<svg width="1920" height="728" viewBox="0 0 1920 728" fill="none" xmlns="http://www.w3.org/2000/svg">
<g clip-path="url(#clip0_444_32)">
<rect width="1920" height="728" fill="#0014C8"/>
<rect width="68" height="214" transform="translate(51 42)" fill="#0014C8"/>
<path d="M104.639 46.5449L104.639 62.4551L68.2733 62.4551L68.2733 46.5449L104.639 46.5449Z" fill="white"/>
<path d="M93.7283 46.5449H109.638V144.052H93.7283V46.5449Z" fill="white"/>
<path d="M81.0024 131.28H96.9126V147.19H81.0024V131.28Z" fill="white"/>
<path d="M55.543 46.7734H71.4531V144.28H55.543V46.7734Z" fill="white"/>
<g clip-path="url(#clip1_444_32)">
<rect width="67" height="214" transform="translate(122 42)" fill="#0014C8"/>
<path d="M208.37 46.5449L208.37 62.4551L151.775 62.4551L151.775 46.5449L208.37 46.5449Z" fill="white"/>
<path d="M163.045 171.421H178.956V207.787H163.045V171.421Z" fill="white"/>
<path d="M151.32 130.826H187.686V146.736H151.32V130.826Z" fill="white"/>
<path d="M138.818 46.5449H154.729V144.052H138.818V46.5449Z" fill="white"/>
<path d="M151.548 213.787H167.458V229.697H151.548V213.787Z" fill="white"/>
</g>
<g clip-path="url(#clip2_444_32)">
<rect width="68" height="214" transform="translate(192 42)" fill="#0014C8"/>
<path d="M234.505 171.421H250.416V207.787H234.505V171.421Z" fill="white"/>
<path d="M221.775 130.826H258.142V146.736H221.775V130.826Z" fill="white"/>
<path d="M209.274 46.5449H225.185V144.052H209.274V46.5449Z" fill="white"/>
<path d="M222.002 213.787H237.912V229.697H222.002V213.787Z" fill="white"/>
<path d="M234.505 88.6855H250.416V104.596H234.505V88.6855Z" fill="white"/>
<path d="M265.872 46.5449L265.872 62.4551L212.686 62.4551L212.686 46.5449L265.872 46.5449Z" fill="white"/>
</g>
<g clip-path="url(#clip3_444_32)">
<rect width="68" height="214" transform="translate(263 42)" fill="#0014C8"/>
<path d="M280.273 46.5449H296.183V144.052H280.273V46.5449Z" fill="white"/>
<path d="M267.543 213.787H283.454V229.697H267.543V213.787Z" fill="white"/>
<path d="M305.5 88.6855H321.41V104.596H305.5V88.6855Z" fill="white"/>
<path d="M336.866 46.5449L336.866 62.4551L283.681 62.4551L283.681 46.5449L336.866 46.5449Z" fill="white"/>
</g>
<g clip-path="url(#clip4_444_32)">
<rect width="67" height="214" transform="translate(334 42)" fill="#0014C8"/>
<path d="M351.274 46.5449H367.184V144.052H351.274V46.5449Z" fill="white"/>
<path d="M375.501 46.5449H391.411V144.052H375.501V46.5449Z" fill="white"/>
<path d="M338.544 213.787H354.455V229.697H338.544V213.787Z" fill="white"/>
<path d="M363.549 171.421H379.459V187.331H363.549V171.421Z" fill="white"/>
<path d="M388.003 213.787H403.913V229.697H388.003V213.787Z" fill="white"/>
<path d="M407.871 46.5449L407.871 62.4551L354.686 62.4551L354.686 46.5449L407.871 46.5449Z" fill="white"/>
</g>
<g clip-path="url(#clip5_444_32)">
<rect width="68" height="214" transform="translate(404 42)" fill="#0014C8"/>
<path d="M421.275 88.9141H437.185V165.965H421.275V88.9141Z" fill="white"/>
<path d="M433.772 213.787H469.911V229.697H433.772V213.787Z" fill="white"/>
<path d="M433.772 131.053H490.367V146.963H433.772V131.053Z" fill="white"/>
<path d="M474.458 47.9102L474.458 63.8203L421.273 63.8203L421.273 47.9102L474.458 47.9102Z" fill="white"/>
</g>
<g clip-path="url(#clip6_444_32)">
<rect width="68" height="214" transform="translate(475 42)" fill="#0014C8"/>
<path d="M492.273 88.9141H508.184V165.965H492.273V88.9141Z" fill="white"/>
<path d="M505 213.787H541.138V229.697H505V213.787Z" fill="white"/>
<path d="M505 131.053H561.594V146.963H505V131.053Z" fill="white"/>
<path d="M508.18 46.5449L508.18 62.4551L492.27 62.4551L492.27 46.5449L508.18 46.5449Z" fill="white"/>
<path d="M533.411 46.5449L533.411 62.4551L517.501 62.4551L517.501 46.5449L533.411 46.5449Z" fill="white"/>
</g>
<g clip-path="url(#clip7_444_32)">
<rect width="67" height="214" transform="translate(546 42)" fill="#0014C8"/>
<path d="M575.775 46.5449H591.686V144.052H575.775V46.5449Z" fill="white"/>
<path d="M578.957 46.5449L578.957 84.2748L563.046 84.2748L563.046 46.5449L578.957 46.5449Z" fill="white"/>
<path d="M578.957 171.421L578.957 207.787L563.046 207.787L563.046 171.421L578.957 171.421Z" fill="white"/>
<path d="M603.185 46.5449L603.185 82.911L587.274 82.911L587.274 46.5449L603.185 46.5449Z" fill="white"/>
<path d="M623.644 131.28L623.644 147.19L587.277 147.19L587.277 131.28L623.644 131.28Z" fill="white"/>
<path d="M587.138 131.053L587.138 146.963L550.772 146.963L550.772 131.053L587.138 131.053Z" fill="white"/>
<path d="M603.185 171.421L603.185 207.787L587.274 207.787L587.274 171.421L603.185 171.421Z" fill="white"/>
</g>
<rect width="68" height="214" transform="translate(51 278)" fill="#0014C8"/>
<path d="M96.9102 367.053L96.9102 382.963L81 382.963L81 367.053L96.9102 367.053Z" fill="white"/>
<path d="M104.639 282.545L104.639 298.455L68.2733 298.455L68.2733 282.545L104.639 282.545Z" fill="white"/>
<path d="M104.639 449.786L104.639 465.696L68.2733 465.696L68.2733 449.786L104.639 449.786Z" fill="white"/>
<path d="M93.4998 282.545H109.41L109.41 380.052H93.4998L93.4998 282.545Z" fill="white"/>
<rect width="67" height="214" transform="translate(122 278)" fill="#0014C8"/>
<path d="M163.274 282.545H179.184L179.184 380.052H163.274L163.274 282.545Z" fill="white"/>
<path d="M139.047 282.545H154.957L154.957 380.052H139.047L139.047 282.545Z" fill="white"/>
<path d="M167.46 407.42L167.46 423.33L151.55 423.33L151.55 407.42L167.46 407.42Z" fill="white"/>
<rect width="68" height="214" transform="translate(192 278)" fill="#0014C8"/>
<path d="M234.505 282.545H250.416L250.416 380.052H234.505L234.505 282.545Z" fill="white"/>
<path d="M209.274 282.545H225.185L225.185 380.052H209.274L209.274 282.545Z" fill="white"/>
<path d="M237.685 407.42L237.685 423.33L221.775 423.33L221.775 407.42L237.685 407.42Z" fill="white"/>
<path d="M237.91 282.545L237.91 298.455L221.999 298.455L221.999 282.545L237.91 282.545Z" fill="white"/>
<rect width="68" height="214" transform="translate(263 278)" fill="#0014C8"/>
<path d="M280.273 282.545H296.183V380.052H280.273V282.545Z" fill="white"/>
<path d="M328.911 324.912L328.911 340.822L292.772 340.822L292.772 324.912L328.911 324.912Z" fill="white"/>
<path d="M329.141 407.42L329.141 423.33L293.002 423.33L293.002 407.42L329.141 407.42Z" fill="white"/>
<path d="M321.64 449.786L321.64 465.696L305.73 465.696L305.73 449.786L321.64 449.786Z" fill="white"/>
<path d="M321.412 282.545L321.412 298.455L305.501 298.455L305.501 282.545L321.412 282.545Z" fill="white"/>
<path d="M308.911 367.053L308.911 382.963L293 382.963L293 367.053L308.911 367.053Z" fill="white"/>
<rect width="67" height="214" transform="translate(334 278)" fill="#0014C8"/>
<path d="M351.274 282.545H367.184V380.052H351.274V282.545Z" fill="white"/>
<path d="M375.501 282.545H391.411V380.052H375.501V282.545Z" fill="white"/>
<path d="M354.456 449.786L354.456 465.696L338.546 465.696L338.546 449.786L354.456 449.786Z" fill="white"/>
<path d="M379.683 282.545L379.683 298.455L363.772 298.455L363.772 282.545L379.683 282.545Z" fill="white"/>
<g clip-path="url(#clip8_444_32)">
<rect width="68" height="214" transform="translate(404 278)" fill="#0014C8"/>
<path d="M408.772 282.545H424.683V380.052H408.772V282.545Z" fill="white"/>
<path d="M459.003 282.545H474.913V380.052H459.003V282.545Z" fill="white"/>
<path d="M437.182 282.545L437.182 339.14L421.271 339.14L421.271 282.545L437.182 282.545Z" fill="white"/>
<path d="M462.413 282.545L462.413 339.14L446.502 339.14L446.502 282.545L462.413 282.545Z" fill="white"/>
<path d="M449.459 367.279L449.459 383.189L433.549 383.189L433.549 367.279L449.459 367.279Z" fill="white"/>
</g>
<rect width="68" height="214" transform="translate(475 278)" fill="#0014C8"/>
<path d="M492.273 282.545H508.184V380.052H492.273V282.545Z" fill="white"/>
<path d="M517.5 282.545H533.411V380.052H517.5V282.545Z" fill="white"/>
<path d="M520.91 367.279L520.91 383.189L505 383.189L505 367.279L520.91 367.279Z" fill="white"/>
<rect width="67" height="214" transform="translate(546 278)" fill="#0014C8"/>
<path d="M563.046 282.545H578.956V380.052H563.046V282.545Z" fill="white"/>
<path d="M587.274 282.545H603.184V380.052H587.274V282.545Z" fill="white"/>
<path d="M591.458 282.545L591.458 298.455L575.548 298.455L575.548 282.545L591.458 282.545Z" fill="white"/>
<path d="M591.458 449.786L591.458 465.696L575.548 465.696L575.548 449.786L591.458 449.786Z" fill="white"/>
<rect width="68" height="214" transform="translate(51 514)" fill="#0014C8"/>
<path d="M68.2727 518.546H84.1829L84.1829 616.053H68.2727L68.2727 518.546Z" fill="white"/>
<path d="M93.4998 518.546H109.41L109.41 616.053H93.4998L93.4998 518.546Z" fill="white"/>
<path d="M96.9102 518.546L96.9102 534.456L81 534.456L81 518.546L96.9102 518.546Z" fill="white"/>
<rect width="67" height="214" transform="translate(122 514)" fill="#0014C8"/>
<path d="M139.047 518.546H154.957L154.957 616.053H139.047L139.047 518.546Z" fill="white"/>
<path d="M187.915 518.546L187.915 534.456L151.776 534.456L151.776 518.546L187.915 518.546Z" fill="white"/>
<path d="M165.864 603.053L165.864 618.963L149.954 618.963L149.954 603.053L165.864 603.053Z" fill="white"/>
<path d="M179.412 562.049L179.412 597.051L163.502 597.051L163.502 562.049L179.412 562.049Z" fill="white"/>
<rect width="68" height="214" transform="translate(192 514)" fill="#0014C8"/>
<path d="M209.274 518.546H225.185L225.185 616.053H209.274L209.274 518.546Z" fill="white"/>
<path d="M258.142 518.546L258.142 534.456L221.776 534.456L221.776 518.546L258.142 518.546Z" fill="white"/>
<path d="M258.369 685.786L258.369 701.696L222.003 701.696L222.003 685.786L258.369 685.786Z" fill="white"/>
<g clip-path="url(#clip9_444_32)">
<rect width="68" height="214" transform="translate(263 514)" fill="#0014C8"/>
<path d="M292.776 518.546H308.687V616.053H292.776V518.546Z" fill="white"/>
<path d="M303.91 518.546L303.91 534.456L267.544 534.456L267.544 518.546L303.91 518.546Z" fill="white"/>
<path d="M342.095 518.546L342.095 534.456L305.729 534.456L305.729 518.546L342.095 518.546Z" fill="white"/>
</g>
<rect width="67" height="214" transform="translate(334 514)" fill="#0014C8"/>
<path d="M375.501 518.546H391.411V616.053H375.501V518.546Z" fill="white"/>
<path d="M387.412 560.913L387.412 576.823L351.046 576.823L351.046 560.913L387.412 560.913Z" fill="white"/>
<path d="M387.412 685.786L387.412 701.696L351.273 701.696L351.273 685.786L387.412 685.786Z" fill="white"/>
<path d="M366.957 518.546L366.957 534.456L351.047 534.456L351.047 518.546L366.957 518.546Z" fill="white"/>
<g clip-path="url(#clip10_444_32)">
<rect width="68" height="214" transform="translate(404 514)" fill="#0014C8"/>
<path d="M433.772 518.546H449.682V616.053H433.772V518.546Z" fill="white"/>
<path d="M444.683 560.685L444.683 576.595L408.317 576.595L408.317 560.685L444.683 560.685Z" fill="white"/>
<path d="M482.867 560.913L482.867 576.823L446.501 576.823L446.501 560.913L482.867 560.913Z" fill="white"/>
<path d="M436.958 518.546L436.958 534.456L421.048 534.456L421.048 518.546L436.958 518.546Z" fill="white"/>
<path d="M436.958 603.053L436.958 618.963L421.048 618.963L421.048 603.053L436.958 603.053Z" fill="white"/>
<path d="M462.413 603.053L462.413 618.963L446.502 618.963L446.502 603.053L462.413 603.053Z" fill="white"/>
<path d="M462.869 518.546L462.869 534.456L446.958 534.456L446.958 518.546L462.869 518.546Z" fill="white"/>
</g>
<g clip-path="url(#clip11_444_32)">
<rect width="68" height="214" transform="translate(475 514)" fill="#0014C8"/>
<path d="M505 518.546H520.91V616.053H505V518.546Z" fill="white"/>
<path d="M515.91 518.546L515.91 534.456L479.544 534.456L479.544 518.546L515.91 518.546Z" fill="white"/>
<path d="M515.91 685.786L515.91 701.696L479.544 701.696L479.544 685.786L515.91 685.786Z" fill="white"/>
<path d="M553.866 518.546L553.866 534.456L517.5 534.456L517.5 518.546L553.866 518.546Z" fill="white"/>
<path d="M554.095 685.786L554.095 701.696L517.729 701.696L517.729 685.786L554.095 685.786Z" fill="white"/>
</g>
<g clip-path="url(#clip12_444_32)">
<rect width="67" height="214" transform="translate(546 514)" fill="#0014C8"/>
<path d="M587.505 518.546H603.416V595.597H587.505V518.546Z" fill="white"/>
<path d="M550.548 518.546H566.459V595.597H550.548V518.546Z" fill="white"/>
<path d="M599.184 643.42L599.184 659.33L562.818 659.33L562.818 643.42L599.184 643.42Z" fill="white"/>
<path d="M615.914 679.785L600.004 679.785L600.004 643.419L615.914 643.419L615.914 679.785Z" fill="white"/>
</g>
<path d="M1260 143L1260 130L650 130L650 143L1260 143Z" fill="white"/>
<path d="M1223 463L1223 450L613 450L613 463L1223 463Z" fill="white"/>
</g>
<defs>
<clipPath id="clip0_444_32">
<rect width="1920" height="728" fill="white"/>
</clipPath>
<clipPath id="clip1_444_32">
<rect width="67" height="214" fill="white" transform="translate(122 42)"/>
</clipPath>
<clipPath id="clip2_444_32">
<rect width="68" height="214" fill="white" transform="translate(192 42)"/>
</clipPath>
<clipPath id="clip3_444_32">
<rect width="68" height="214" fill="white" transform="translate(263 42)"/>
</clipPath>
<clipPath id="clip4_444_32">
<rect width="67" height="214" fill="white" transform="translate(334 42)"/>
</clipPath>
<clipPath id="clip5_444_32">
<rect width="68" height="214" fill="white" transform="translate(404 42)"/>
</clipPath>
<clipPath id="clip6_444_32">
<rect width="68" height="214" fill="white" transform="translate(475 42)"/>
</clipPath>
<clipPath id="clip7_444_32">
<rect width="67" height="214" fill="white" transform="translate(546 42)"/>
</clipPath>
<clipPath id="clip8_444_32">
<rect width="68" height="214" fill="white" transform="translate(404 278)"/>
</clipPath>
<clipPath id="clip9_444_32">
<rect width="68" height="214" fill="white" transform="translate(263 514)"/>
</clipPath>
<clipPath id="clip10_444_32">
<rect width="68" height="214" fill="white" transform="translate(404 514)"/>
</clipPath>
<clipPath id="clip11_444_32">
<rect width="68" height="214" fill="white" transform="translate(475 514)"/>
</clipPath>
<clipPath id="clip12_444_32">
<rect width="67" height="214" fill="white" transform="translate(546 514)"/>
</clipPath>
</defs>
</svg>
