<svg width="1439" height="1439" viewBox="0 0 1439 1439" fill="none" xmlns="http://www.w3.org/2000/svg">
<line x1="719.5" y1="2.18557e-08" x2="719.5" y2="1438" stroke="#0014C8"/>
<line x1="0.5" y1="2.18557e-08" x2="0.499937" y2="1438" stroke="#0014C8"/>
<line x1="899.25" y1="2.18557e-08" x2="899.25" y2="1438" stroke="#0014C8"/>
<line x1="180.25" y1="2.18557e-08" x2="180.25" y2="1438" stroke="#0014C8"/>
<line x1="1079" y1="2.18557e-08" x2="1079" y2="1438" stroke="#0014C8"/>
<line x1="360" y1="2.18557e-08" x2="360" y2="1438" stroke="#0014C8"/>
<line x1="1258.75" y1="2.18557e-08" x2="1258.75" y2="1438" stroke="#0014C8"/>
<line x1="1438.5" y1="2.18557e-08" x2="1438.5" y2="1438" stroke="#0014C8"/>
<line x1="539.75" y1="2.18557e-08" x2="539.75" y2="1438" stroke="#0014C8"/>
<line x1="1438" y1="719.5" x2="-3.21706e-08" y2="719.499" stroke="#0014C8"/>
<line x1="1438" y1="0.500488" x2="-3.21706e-08" y2="0.500317" stroke="#0014C8"/>
<line x1="1438" y1="899.25" x2="-3.21706e-08" y2="899.249" stroke="#0014C8"/>
<line x1="1438" y1="180.25" x2="-3.21706e-08" y2="180.25" stroke="#0014C8"/>
<line x1="1438" y1="1079" x2="-3.21706e-08" y2="1079" stroke="#0014C8"/>
<line x1="1438" y1="360" x2="-3.21706e-08" y2="360" stroke="#0014C8"/>
<line x1="1438" y1="1258.75" x2="-3.21706e-08" y2="1258.75" stroke="#0014C8"/>
<line x1="1438" y1="1438.5" x2="-3.21706e-08" y2="1438.5" stroke="#0014C8"/>
<line x1="1438" y1="539.75" x2="-3.21706e-08" y2="539.75" stroke="#0014C8"/>
</svg>
