<svg width="181" height="56" viewBox="0 0 181 56" fill="none" xmlns="http://www.w3.org/2000/svg">
<path d="M0 0H56.5476V56H0V0Z" fill="#0014C8"/>
<path d="M62.2262 0H118.774V56H62.2262V0Z" fill="#0014C8"/>
<path d="M124.452 0H181V56H124.452V0Z" fill="#0014C8"/>
<path d="M29.1671 37.6938L23.4582 29.5508L28.6032 21.4078H21.2969L17.6085 27.5965V21.4078H11.5002V37.6938H17.6085V31.2724L21.8372 37.6938H29.1671Z" fill="white"/>
<path d="M34.4251 28.4573H34.0727L35.3883 26.3401V21.4078H29.2801V37.6938H35.4588L39.7346 30.9467H40.1105L38.7714 33.0872V37.6938H44.8796V21.4078H39.0063L34.4251 28.4573Z" fill="white"/>
<path d="M70.1242 27.2242V37.6938H76.2089V27.2242H79.8738V21.4078H66.4592V27.2242H70.1242Z" fill="white"/>
<path d="M89.3373 38.1591C94.2944 38.1591 98.3117 34.297 98.3117 29.5508C98.3117 24.8046 94.2944 20.9425 89.3373 20.9425C84.3803 20.9425 80.3394 24.8046 80.3394 29.5508C80.3394 34.297 84.3803 38.1591 89.3373 38.1591ZM86.988 29.5508C86.988 28.2712 88.0217 27.2242 89.3138 27.2242C90.6059 27.2242 91.6631 28.2712 91.6631 29.5508C91.6631 30.8304 90.6059 31.8541 89.3138 31.8541C88.0217 31.8541 86.988 30.8304 86.988 29.5508Z" fill="white"/>
<path d="M98.8082 37.6938H104.916V32.2496H108.37V37.6938H114.478V21.4078H108.37V26.852H104.916V21.4078H98.8082V37.6938Z" fill="white"/>
<path d="M135.733 37.6938H141.842V32.2496H145.295V37.6938H151.403V21.4078H145.295V26.852H141.842V21.4078H135.733V37.6938Z" fill="white"/>
<path d="M165.44 21.4078H158.063L151.626 37.6938H164.993L163.02 32.2729H159.989L161.751 27.5732L165.44 37.6938H171.994L165.44 21.4078Z" fill="white"/>
<path d="M0 0H56.5476V56H0V0Z" fill="#0014C8"/>
<path d="M62.2262 0H118.774V56H62.2262V0Z" fill="#0014C8"/>
<path d="M124.452 0H181V56H124.452V0Z" fill="#0014C8"/>
<path d="M29.1671 37.6938L23.4582 29.5508L28.6032 21.4078H21.2969L17.6085 27.5965V21.4078H11.5002V37.6938H17.6085V31.2724L21.8372 37.6938H29.1671Z" fill="white"/>
<path d="M34.4251 28.4573H34.0727L35.3883 26.3401V21.4078H29.2801V37.6938H35.4588L39.7346 30.9467H40.1105L38.7714 33.0872V37.6938H44.8796V21.4078H39.0063L34.4251 28.4573Z" fill="white"/>
<path d="M70.1242 27.2242V37.6938H76.2089V27.2242H79.8738V21.4078H66.4592V27.2242H70.1242Z" fill="white"/>
<path d="M89.3373 38.1591C94.2944 38.1591 98.3117 34.297 98.3117 29.5508C98.3117 24.8046 94.2944 20.9425 89.3373 20.9425C84.3803 20.9425 80.3394 24.8046 80.3394 29.5508C80.3394 34.297 84.3803 38.1591 89.3373 38.1591ZM86.988 29.5508C86.988 28.2712 88.0217 27.2242 89.3138 27.2242C90.6059 27.2242 91.6631 28.2712 91.6631 29.5508C91.6631 30.8304 90.6059 31.8541 89.3138 31.8541C88.0217 31.8541 86.988 30.8304 86.988 29.5508Z" fill="white"/>
<path d="M98.8082 37.6938H104.916V32.2496H108.37V37.6938H114.478V21.4078H108.37V26.852H104.916V21.4078H98.8082V37.6938Z" fill="white"/>
<path d="M135.733 37.6938H141.842V32.2496H145.295V37.6938H151.403V21.4078H145.295V26.852H141.842V21.4078H135.733V37.6938Z" fill="white"/>
<path d="M165.44 21.4078H158.063L151.626 37.6938H164.993L163.02 32.2729H159.989L161.751 27.5732L165.44 37.6938H171.994L165.44 21.4078Z" fill="white"/>
</svg>
