<svg width="5007" height="6227" viewBox="0 0 5007 6227" fill="none" xmlns="http://www.w3.org/2000/svg">
<path d="M3262.98 3305.5C3272.45 3334.87 3281.26 3363.97 3290.73 3393.35C3304.83 3437.17 3319.37 3480.78 3333.47 3524.6C3335.09 3529.18 3335.37 3534.39 3334.76 3538.83C3326.28 3589.68 3317.56 3640.04 3308.85 3690.4C3307.19 3699.49 3306.86 3709.13 3305.87 3718.5C3303.62 3734.39 3301.37 3750.27 3298.68 3766.37C3295.36 3785.72 3289.82 3804.93 3288.96 3824.92C3287.47 3848.16 3274.49 3859.58 3256.57 3866.21C3241.09 3872.28 3224.91 3875.71 3208.95 3879.63C3170.19 3890.09 3140.55 3866.02 3106.24 3841.17C3110.81 3833.68 3113.82 3825.15 3119.55 3821.28C3130.36 3814.43 3142.05 3807.17 3154.91 3804.7C3184.62 3799.08 3204.63 3781.98 3214.05 3752.65C3233.31 3692.59 3247.44 3630.79 3247.73 3564.8C3247.81 3535.1 3255.45 3505.41 3250.65 3476.81C3245.1 3442.03 3231.56 3407.44 3218.92 3373.62C3209.5 3348.96 3206.79 3327.1 3219.63 3305.06C3230.08 3287.11 3245.18 3285.96 3264.04 3302.03" stroke="#0014C8" stroke-miterlimit="10" stroke-linecap="round" stroke-linejoin="round"/>
<path d="M964.991 2942.81C978.133 2927.15 991.061 2912.19 1004.64 2896.33C1008.91 2899.67 1017.21 2905.87 1024.38 2910.81C1036.03 2900.01 1046.79 2889.62 1057.55 2879.24C1060.23 2880.35 1062.47 2881.68 1065.15 2882.79C1061.78 2861.83 1059.97 2840.73 1055.71 2820.18C1047.92 2782.9 1067.14 2756.08 1079 2726.2C1082.87 2716.08 1091.87 2706.52 1090.85 2696.32C1088.22 2663.14 1100.34 2637.28 1119.13 2610.68C1128.04 2612.43 1138.07 2614.26 1148.76 2616.36C1158.34 2618.4 1167.92 2620.43 1180.17 2622.4C1198.1 2580.18 1216.04 2539.14 1233.75 2497.61C1232.41 2497.05 1230.84 2496.01 1229.5 2495.45C1236.13 2492.34 1242.76 2489.23 1252.92 2484.47C1291.4 2522.79 1337.63 2540.86 1392.42 2532.38C1399.22 2525.04 1407.33 2515.9 1416.54 2505.65C1419.48 2509.61 1425.54 2514.48 1424.9 2516.56C1419.97 2531.33 1417.99 2551.24 1407.2 2559.27C1390.91 2571.65 1389.32 2586.64 1388.21 2604.96C1386.95 2628.69 1395.81 2644.11 1419.22 2650.34C1418.87 2657.63 1418.28 2664.43 1418.14 2671.02C1424.03 2680.12 1430.37 2689.02 1436.93 2698.4C1428.19 2710.8 1427 2722.04 1431.65 2738.85C1439.59 2769.54 1427.27 2798.45 1414.74 2826.87C1402.44 2821.36 1391.26 2815.93 1376.96 2809.58C1354.3 2846.31 1311.22 2831.5 1276.45 2841.28C1241.01 2850.78 1209.21 2868.05 1191.39 2900.15C1166.82 2944.3 1148.75 2993.11 1126.65 3039.07C1117.77 3058.06 1105.98 3075.46 1095.77 3093.89C1108.37 3106.97 1117.62 3117.47 1128.43 3129.01C1151.2 3118.93 1168.97 3136.11 1186.08 3154.19C1207.47 3176.79 1227.56 3201.19 1250.92 3221.09C1261.7 3230.27 1278.82 3231.15 1293.55 3236.1C1291.34 3308.34 1272.48 3329.05 1217.87 3316.09C1205.47 3337.92 1192.85 3360.45 1180.24 3382.97C1156.7 3384.52 1133.38 3385.37 1109.17 3386.63C1095.2 3407.42 1097.27 3431.36 1105.53 3452.41C1121.81 3492.83 1142.3 3531.88 1161.25 3572.24C1175.45 3570.33 1187.65 3568.76 1200.74 3566.78C1217.94 3591.93 1235.36 3616.4 1254.14 3643.78C1254.91 3687.92 1255.5 3735.11 1256.31 3782.79C1264.81 3787.11 1272.86 3791.64 1282.7 3796.52C1287.93 3788.13 1292.29 3781.34 1296.64 3773.37C1321.57 3775.92 1346.28 3779.17 1370.76 3781.93" stroke="#0014C8" stroke-miterlimit="10" stroke-linecap="round" stroke-linejoin="round"/>
<path d="M1769.86 624.129C1761.28 631.119 1753.37 638.388 1744.56 644.892C1729.58 655.477 1700.63 651.249 1686.67 636.436C1676.98 626.144 1667.51 615.158 1656.47 603.128C1646.3 607.894 1637.02 612.245 1628.63 616.182C1622.28 624.496 1617.54 636.214 1608.73 642.718C1592.42 653.925 1575.18 662.006 1554.27 642.736C1530.21 620.198 1505.1 620.698 1481.12 640.84C1465.94 653.298 1447.02 650.896 1428.02 642.596C1378.85 620.557 1335.12 643.431 1285.42 650.122C1375.06 727.354 1457.6 805.541 1546.45 873.054C1585.94 903.191 1634.93 928.283 1688.5 910.289C1704.88 904.981 1726.78 914.884 1746.38 917.565C1746.85 919.717 1746.88 922.077 1747.35 924.229C1752.18 919.59 1757.01 914.951 1761.62 909.826C1784.21 885.586 1815.14 888.292 1844.67 885.72C1891.52 882.146 1939.08 881.21 1985.68 874.789C2010.53 871.444 2034.85 861.227 2058.98 852.883C2071.81 848.053 2082.92 847.592 2096.14 856.227C2115.19 869.246 2135.54 879.285 2155.02 890.918C2161.35 881.424 2167.24 872.137 2173.57 862.644C2175.13 863.688 2177.37 865.012 2178.94 866.056C2180.53 886.671 2163.31 895.933 2152.19 913.605C2137.66 906.772 2123.57 899.731 2110.38 893.456C2097.86 887.46 2086.98 888.407 2078.22 899.631" stroke="#0014C8" stroke-miterlimit="10" stroke-linecap="round" stroke-linejoin="round"/>
<path d="M3126.94 4268.08C3121.88 4272.24 3114.37 4275.76 3112.22 4281.52C3100.38 4312.58 3076.68 4319.54 3047.09 4317.39C3044.07 4324.74 3040.17 4332.5 3036.93 4340.55C3049.14 4357.37 3060.91 4374.4 3073.12 4391.22C3073.55 4389.83 3074.2 4388.93 3074.63 4387.54C3100.42 4405.71 3125.97 4423.4 3154.67 4443.17C3149.87 4450.17 3147.03 4454.46 3142.88 4460.56C3112.57 4453.42 3086.08 4468.21 3061.23 4489.94C3062.47 4536.24 3045.76 4551.19 3013.96 4531.69C3021.87 4488.82 3022.54 4489.09 3000.49 4467.39C2994.81 4474.81 2988.68 4482.43 2983.66 4490.12C2970.99 4507.93 2977.36 4537.57 2951.71 4548.41C2947.73 4550.28 2948.63 4569.43 2950.99 4580.2C2953.8 4591.93 2961.05 4602.77 2965.84 4612.98C2950.3 4632.73 2936.11 4653.03 2920.33 4671.11C2906.09 4687.87 2886.1 4688.94 2863.15 4684.86C2862.87 4679.66 2861.01 4673.41 2863.18 4668.83C2869.65 4652.74 2861.73 4641.62 2852.46 4628.76C2840.25 4611.94 2830.25 4594.09 2817.32 4573.45C2826.13 4566.94 2834.94 4560.44 2845.52 4553.1C2839.65 4527.97 2830.27 4505.67 2799.74 4499.22C2775.22 4494.1 2762.56 4476.31 2753.78 4449.57C2738.99 4404.29 2713.6 4363.98 2679.84 4329.97" stroke="#0014C8" stroke-miterlimit="10" stroke-linecap="round" stroke-linejoin="round"/>
<path d="M2777.4 3402.68C2791.36 3417.49 2805.77 3432.09 2820.86 3448.16C2839.52 3429.32 2854.89 3413.81 2871.8 3396.99C2876.49 3398.94 2883.19 3401.73 2889.89 3404.52C2891.24 3441.86 2887.66 3475.58 2863.98 3502.11C2843.36 3506.44 2821.86 3511.18 2798.58 3515.57C2783.27 3535.8 2774.51 3564.23 2745.54 3576.04C2726.52 3583.77 2713.54 3576.8 2704.24 3561.58C2682.45 3525.51 2656.85 3504.29 2616.59 3519.61C2613.49 3521.06 2609.93 3520.35 2606.82 3520.63C2606.22 3526.25 2605.84 3531.17 2604.61 3540.05C2618.15 3537.86 2630.34 3535.11 2642.33 3534.24C2671.65 3532.36 2690.3 3549.13 2690.01 3579.52C2689.69 3589.17 2683.39 3601.02 2676.12 3606.21C2660.48 3617.7 2642.13 3625.71 2625.35 3634.76C2621.13 3653.35 2617.13 3671.25 2612.91 3689.84C2611.23 3697.74 2608.88 3705.37 2607.64 3713.07C2599.19 3766.28 2616.39 3791.45 2674.15 3806.49C2663.98 3792.87 2656.94 3781.33 2647.93 3771.32C2634.85 3756.09 2631.75 3739.15 2638.87 3722.16C2653.34 3687.5 2669.37 3653.87 2684.73 3619.97C2705.84 3618.98 2723.16 3617.97 2737.38 3617.24C2772.33 3586.02 2804.41 3555.55 2838.96 3528.08C2849.09 3519.77 2865.76 3519.67 2882.81 3514.64C2902.92 3487.41 2905.87 3438.56 2956.45 3430.28C2967.03 3441.33 2981.87 3454.55 2994.28 3469.5C3003.08 3480.21 3001.23 3492.35 2995.38 3505.18C2979.81 3539.77 2962.66 3573.32 2962.06 3614.55C2961.62 3633.14 2952.25 3647.63 2928.5 3651.05C2914.74 3652.75 2904.13 3674.93 2893.19 3689.55C2887.51 3696.97 2885.41 3707.44 2881.1 3717.77C2871.93 3713.17 2862.76 3708.57 2854.26 3704.25" stroke="#0014C8" stroke-miterlimit="10" stroke-linecap="round" stroke-linejoin="round"/>
<path d="M2828.15 627.556C2820.84 647.597 2839.19 657.979 2846.49 672.361C2852.18 683.34 2862.56 696.272 2861.8 706.125C2851.66 802.85 2844.41 899.998 2815.99 992.241C2806.16 1024.14 2758.64 1099.83 2734.24 1122.54C2700.66 1121.07 2687.66 1094.53 2675.52 1065.22C2665.8 1069.78 2656.07 1074.34 2642.81 1080.55C2648.55 1095.07 2654.97 1111.05 2660.72 1126.75C2667.4 1145.57 2673.82 1161.55 2652.45 1176.91C2637.25 1188.19 2631.78 1213.3 2620.67 1230.97C2610.43 1248.23 2598.63 1264.44 2588.6 1279.83C2556.49 1253.94 2527.98 1231.11 2498.57 1207.52C2481.76 1232.61 2468.28 1256.73 2450.98 1277.3C2439.36 1290.46 2423.45 1297.92 2402.97 1295.66C2379.6 1292.97 2369.2 1278.86 2361.6 1258.09C2351.73 1232.46 2335.77 1217.99 2311.57 1220.43C2298.69 1221.72 2281.7 1231.47 2277.17 1242.49C2266.82 1268.71 2263.41 1298.19 2257.1 1327.26C2249.07 1325.09 2239.03 1322.09 2228.55 1319.29C2223.72 1323.93 2219.11 1329.05 2213.18 1334.8C2204.24 1330.68 2195.74 1326.36 2186.8 1322.25C2163.83 1334.2 2163.83 1334.2 2112.49 1316.74C2100.26 1334.34 2088.03 1351.94 2074.7 1370.65C2088.1 1393.44 2069.25 1415.33 2070.46 1440.88C2057.08 1437.65 2044.82 1434.5 2029.43 1430.44C2028.95 1445.5 2028.25 1461.26 2028.03 1479.16C2005.41 1501.04 1976.99 1503.69 1946.85 1493.49C1924.54 1486.15 1903.04 1473.68 1879.99 1478.56C1865.8 1481.65 1853.24 1490.5 1837.77 1497.76C1841.65 1506.03 1846.67 1516.72 1852.15 1528.4C1821.51 1549.29 1834.97 1576.8 1844.2 1604.51C1848.13 1616.32 1849.17 1628.88 1852.24 1643.47C1824.42 1640.49 1802.6 1637.67 1780.34 1635.05C1774.48 1646.7 1769.28 1657.44 1764.72 1666.11C1723.19 1686.77 1682.21 1662.66 1639.23 1656.11C1639.35 1665.55 1639.19 1670.96 1639.28 1678.04C1627.38 1686 1614.16 1695.76 1598.95 1705.85C1602 1719.26 1604.6 1731.68 1607.69 1747.45C1596.62 1751.45 1584.46 1756.56 1571.18 1761.59C1571.25 1784.7 1571.54 1808.3 1572.12 1837.11C1544.71 1849.95 1514.66 1864.04 1481.07 1879.79C1478.16 1878.19 1470.54 1873.46 1462.26 1868.44C1452.99 1873.97 1443.28 1879.71 1430.92 1886.69C1418.14 1877.85 1403.35 1868.17 1389.9 1859.05C1364.01 1868.22 1339.23 1877.47 1315.54 1885.61C1307.86 1911.75 1297.3 1938.66 1291.88 1967.31C1288.53 1984.31 1298.12 2004.73 1294.11 2021.45C1284.18 2063.48 1306.66 2102.19 1309.17 2143.15C1309.47 2149.53 1317.37 2159.47 1323.63 2162.47C1341.75 2171.19 1345.04 2186.25 1349.27 2204.45C1354.67 2227.43 1363.41 2251.81 1375.44 2271.69C1390.86 2296.5 1393.59 2319.55 1384.35 2344.65" stroke="#0014C8" stroke-miterlimit="10" stroke-linecap="round" stroke-linejoin="round"/>
<path d="M1186.07 1673.41C1160.72 1672.24 1134.7 1670.8 1107.79 1669.76C1107.14 1689.05 1106.71 1707.65 1105.61 1727.15C1097.81 1725.47 1090.02 1723.78 1081.32 1721.34C1049.72 1772.34 1011.34 1813.48 944.864 1812.01C929.391 1800.87 925.306 1776.09 902.777 1769.45C884.04 1763.99 869.111 1760.91 855.557 1779.13C847.034 1790.84 832.221 1797.19 819.007 1806.94C821.304 1812.99 822.96 1821.11 827.239 1825.63C858.544 1859.01 857.302 1902.31 863.786 1941.39C866.899 1959.51 873.888 1967.5 885.51 1972.73C944.09 2001.04 1003.11 2029.14 1062.12 2056.05C1089.38 2068.19 1108.48 2084.75 1107.56 2118.4C1107.39 2122.63 1108.58 2128.6 1111.06 2131.59C1145.97 2169.21 1137.62 2212.29 1129.23 2253C1124.2 2277.91 1109.14 2299.8 1102 2315.61C1074.55 2306.52 1052.91 2299.47 1032.6 2292.97C999.377 2338.21 954.483 2356.29 901.843 2359.02C898.764 2361.65 893.674 2363.44 892.834 2367.4C876.323 2416.08 846.48 2465.07 905.75 2513.22C871.415 2558.39 926.785 2578.71 931.486 2617.44C927.125 2624.23 921.482 2635.19 914.712 2644.89C886.749 2684.1 887.148 2734.34 879.276 2780.75C877.411 2791.71 884.031 2805.81 887.955 2817.62C897.173 2844.15 905.279 2870.61 917.149 2895.89C923.541 2909.51 933.526 2926.18 945.162 2932.59C972.898 2946.88 982.573 2974.38 998.42 2997.8C1007.25 3010.87 1013 3026.57 1018.96 3041.57C1021.49 3048.1 1025.16 3057.06 1023.45 3062.6C1005.26 3119.19 1035.29 3157.91 1072.42 3194.49C1091.29 3193.36 1111.28 3192.29 1131.72 3191.02C1160.9 3232.51 1188.96 3272.75 1217.01 3312.99" stroke="#0014C8" stroke-miterlimit="10" stroke-linecap="round" stroke-linejoin="round"/>
<path d="M3587.97 4882.49C3544.2 4883.43 3500.65 4884.86 3452.22 4886.21C3447.55 4868.23 3442.67 4850.94 3437.53 4830.8C3407.14 4817.75 3358.41 4831.11 3349.69 4773.49C3336.94 4767.01 3325.98 4760.88 3315.24 4755.23C3312.65 4725.59 3338.48 4693.31 3370.81 4684.09C3398.5 4676.44 3414.47 4655.31 3409.71 4630.25C3407.58 4619.97 3401.91 4610.18 3396.64 4597.81C3421.46 4592.11 3442.52 4587.57 3469.34 4581.53C3480.27 4548.52 3492.48 4511.35 3505.1 4471.61C3524.38 4466.73 3547.42 4460.67 3572.67 4453.58C3574.36 4446.85 3576.45 4436.38 3578.78 4426.39C3567.7 4429.21 3553.95 4432.09 3540 4435.67C3506.1 4445.04 3470.1 4445.3 3435.76 4436.48C3390.95 4424.86 3359.68 4395.02 3351.04 4343.3C3349.6 4334.49 3347.04 4325.6 3344.23 4313.86C3426.91 4241.87 3530.57 4230.65 3631.28 4232.68C3641.57 4220.14 3646.33 4209.6 3655.16 4204.28C3667.06 4196.33 3673.86 4207.38 3680.67 4218.42C3701.98 4252.34 3724.16 4284.66 3731.33 4325.2C3736.59 4354.77 3726.14 4372.73 3706.1 4387.46C3696.4 4394.38 3687.15 4401.09 3676.13 4408.63C3677.99 4414.88 3678.94 4420.37 3681.01 4425.92C3687.99 4451.13 3691.13 4471.61 3671.42 4495.09C3654.12 4515.66 3652.56 4551.4 3642.68 4579.76C3634.53 4603.75 3623.7 4626.63 3613.54 4649.79C3610.52 4657.13 3603.95 4664.96 3605.37 4671.42C3612.13 4697.32 3600.51 4710.48 3582.19 4720.85C3571.6 4727 3562.38 4736.07 3550.93 4745C3563.38 4799.09 3579.84 4853.67 3606.91 4904.46C3608.7 4904.81 3610.69 4904.47 3612.47 4904.82C3609.98 4919.04 3609.5 4934.09 3604.33 4947.2C3595.27 4969.25 3574.85 4971.7 3554.66 4956.25C3542.76 4946.99 3530.44 4939.12 3514.52 4928.19C3509.82 4943.45 3505.75 4955.45 3502.1 4966.06C3508.19 4973.29 3512.47 4977.81 3516.09 4983.23C3519.26 4987.68 3520.66 4992.96 3525.22 5002.68C3537.16 4997.09 3548.65 4991.7 3560.58 4986.1" stroke="#0014C8" stroke-miterlimit="10" stroke-linecap="round" stroke-linejoin="round"/>
<path d="M1622.45 3659.48C1610.86 3656.61 1599.27 3653.74 1588.34 3651.15C1580.95 3628.51 1574.7 3608.3 1568.92 3590.25C1526.67 3588.7 1488.41 3586.46 1449.96 3586.1C1442.84 3585.87 1432.89 3589.95 1430.51 3595.21C1417.55 3625.03 1389.8 3646.34 1390.94 3684.37C1390.97 3686.73 1389.89 3689.02 1388.8 3691.31C1380.11 3707.25 1366.51 3721.93 1364.51 3739.48C1362.88 3752.11 1378.4 3766.79 1374.4 3784.68C1372.51 3793.28 1378.65 3805.23 1381.94 3819.12C1395.64 3812.7 1404.92 3808.35 1418.18 3802.13C1426.11 3778.83 1436 3751.65 1445.24 3725.37C1472.98 3722.44 1496.51 3719.72 1513.55 3696.3C1521.21 3686.19 1537.85 3683.72 1551.55 3677.3C1555.67 3687.23 1558.65 3694.74 1562.55 3704.18C1573.08 3693.31 1581.65 3685.14 1589.99 3676.48C1600.21 3676.44 1609.77 3676.11 1620.66 3676.34C1624.34 3668.09 1628.68 3660.12 1632.36 3651.87C1646.21 3621.65 1651.96 3618.95 1687.61 3625.97C1714.78 3631.03 1713.06 3635.4 1725.72 3670.4C1746.45 3729.5 1744.53 3789.74 1755.54 3853.4C1771.74 3851.14 1787.71 3848.4 1806.78 3845.39C1809.98 3852.2 1813.43 3861.85 1818.43 3870.19C1832.04 3892.29 1846.32 3914.67 1864.67 3943.44C1866.46 3943.79 1874.06 3947.34 1881.39 3946.87C1921.82 3945.72 1939.16 3981.49 1963.03 4007.08C1976.1 4021.13 1986.53 4037.6 1999.85 4054.49C1994.01 4067.32 1987.51 4081.05 1980.58 4096.16C1972.11 4094.2 1964.98 4092.79 1951.61 4089.57C1953.84 4108.11 1955.81 4123.79 1958.25 4141.63C1947.29 4153.89 1935.9 4167.54 1922.97 4182.5C1911.37 4178.45 1900.43 4174.68 1887.71 4170.56C1873.41 4182.6 1858.67 4194.85 1841.29 4209.52C1836.91 4196.74 1833.23 4186.6 1830.69 4178.9C1818.04 4180.67 1805.9 4186.96 1795.19 4183.67C1742.74 4166.14 1691.92 4172.76 1640.41 4176.74C1613.76 4178.55 1587.31 4178.5 1560.42 4178.64C1555.08 4178.77 1549.05 4176.26 1538.8 4173.95C1543.94 4158.48 1548.02 4146.49 1552.73 4132.41C1537.86 4134.04 1523.2 4134.98 1505.22 4136.88C1489.93 4104.3 1473.72 4069.78 1456.83 4033.79C1432.54 4029.16 1407.59 4024.25 1382.64 4019.33C1340.3 4010.7 1313.76 3985.18 1308.58 3944.29C1288.69 3935.22 1271.05 3928.66 1254.92 3918.42C1247.97 3913.97 1240.44 3897.92 1243.05 3893.14C1256.29 3867.35 1245.74 3841.44 1241.2 3815.69C1239.03 3801.87 1235.08 3787.71 1253.03 3783.44" stroke="#0014C8" stroke-miterlimit="10" stroke-linecap="round" stroke-linejoin="round"/>
<path d="M1126.62 1345.41C1085.87 1303.4 1034.59 1290.66 983.728 1275.35C950.487 1265.42 918.714 1248.28 886.328 1235.58C873.822 1230.76 860.247 1229.41 847.328 1227.16C809.454 1220 770.327 1219.36 737.325 1192.71C730.137 1186.58 720.894 1176.09 721.248 1168.8C721.972 1155.41 734.391 1153.14 746.426 1155.81C751.331 1157.07 756.635 1154.58 762.182 1153.76C762.604 1133.98 732.413 1119.07 749.844 1090.72C760.369 1097.06 771.991 1102.29 780.977 1109.94C796.038 1123.65 811.114 1138.53 823.766 1155.15C842.067 1179.2 861.577 1193.19 891.534 1189.23C914.39 1186.23 938.218 1189.89 962.23 1190.5C965.547 1171.14 968.223 1153.87 972.38 1130.56C986.941 1139.75 997.237 1145.61 1006.44 1152.57C1054 1188.41 1101.35 1224.95 1149.36 1260.59C1157.66 1266.78 1167.71 1270.97 1177.31 1274.18C1225.73 1290.04 1271.37 1313.74 1319.88 1336.68C1317.18 1351.59 1315.53 1361.86 1314.11 1372.61C1310.77 1372.4 1307.22 1372.88 1303.88 1372.66C1286.87 1362.84 1270.3 1352.81 1252.61 1342.71C1245.4 1352.61 1240.16 1359.82 1234.04 1368.62C1213.58 1367.53 1192.67 1366.65 1172 1366.26" stroke="#0014C8" stroke-miterlimit="10" stroke-linecap="round" stroke-linejoin="round"/>
<path d="M1708.31 1292.14C1685.77 1302.71 1698.92 1323.84 1695.33 1339.17C1676.84 1389.37 1658.56 1438.88 1640.28 1488.4C1606.01 1485.47 1584 1502.91 1567.59 1524.25C1562.73 1526.53 1560.75 1528.06 1560.08 1527.78C1531.9 1513.7 1510.69 1524.82 1492.72 1545.12C1467.73 1573.45 1433.61 1582.32 1399.29 1593.07C1374.05 1601.35 1352.73 1620.25 1330.47 1636.02C1312.41 1649.24 1295.49 1664.88 1272.61 1683.92C1271.94 1666.43 1270.69 1654.56 1271.65 1642.83C1274.55 1607.65 1274.55 1607.65 1243.26 1593.84C1255.29 1559.72 1252.79 1555.55 1210.88 1545.53C1213.46 1538.39 1216.27 1531.73 1218.63 1525.29C1234.2 1526.29 1249.11 1527.02 1264.23 1528.23C1267.01 1519.22 1269.56 1509.71 1272.78 1500.49C1279.01 1482.74 1276.59 1467.26 1263.73 1451.33C1254.93 1440.63 1249.42 1426.6 1242.81 1413.67C1234.38 1396.86 1226.22 1384.07 1203.35 1385.9C1191.36 1386.77 1176.91 1368.63 1163.23 1359.02" stroke="#0014C8" stroke-miterlimit="10" stroke-linecap="round" stroke-linejoin="round"/>
<path d="M3396.69 4601.4C3391.32 4599.17 3385.29 4596.66 3379.26 4594.14C3376.57 4574.64 3386.47 4565.85 3401.74 4560.47C3410.15 4557.71 3418.54 4553.78 3426.04 4549.07C3442.36 4539.05 3443.07 4524.48 3431.72 4504.88C3398.11 4501.06 3363.35 4529.23 3326.5 4496.67C3376.5 4460.77 3355.26 4414.36 3329.55 4366.49C3312.72 4335.23 3287.09 4347.25 3262.15 4343.52C3262.09 4338.8 3262.03 4334.08 3262.16 4326.31C3229.01 4323.46 3194.08 4320.26 3154.7 4316.77C3132.1 4268.63 3109.7 4218.62 3085.33 4170.13C3078.04 4155.75 3066.51 4140.39 3053.96 4132.03C2986.51 4087.12 2924.96 4034.11 2868.23 3975.28C2858.77 3965.47 2849.03 3950.46 2848.43 3937.69C2847.14 3905.07 2851.85 3872.61 2852.34 3840.34C2852.44 3830.21 2846.74 3819.24 2843.5 3808.89" stroke="#0014C8" stroke-miterlimit="10" stroke-linecap="round" stroke-linejoin="round"/>
<path d="M2277.21 1026.98C2299.37 1021.34 2310.96 1005.82 2316 982.093C2319.15 966.971 2324.3 952.685 2331.03 939.444C2347.72 904.919 2358.47 857.749 2336.74 808.009C2332.51 807.028 2322.25 804.715 2312.23 802.889C2303.31 801.134 2294.19 800.073 2283.05 798.174C2283.6 789.014 2284.39 780.341 2284.06 771.595C2283.25 760.697 2283.98 747.304 2278.76 738.479C2264.93 717.072 2275.88 703.632 2288.2 693.111C2310.64 674.283 2335.12 658.652 2359.57 640.662C2353.77 621.425 2348.45 604.34 2341.95 582.464C2369.22 576.209 2395.77 566.135 2423.76 564.878C2441.75 564.154 2446.77 556.462 2451.26 541.897C2456.6 524.558 2463.28 507.778 2469.3 490.718C2476 493.509 2481.59 496.228 2487.39 498.254C2509.93 504.897 2520.57 520.675 2522.41 544.137C2522.91 548.649 2521.88 554.476 2523.7 558.367C2541.25 593.454 2557.25 628.676 2553.96 668.783C2553.76 670.657 2557.57 673.025 2560.95 676.78C2569.37 638.419 2599.57 636.126 2628.66 633.762C2666.19 630.999 2665.85 675.069 2691.62 692.06C2696.28 691.654 2704.28 691.463 2714.95 691.209C2705.36 670.784 2696.91 652.79 2688.01 633.824C2693.95 629.256 2697.92 626.211 2701.88 623.166C2722.78 605.654 2737.9 588.476 2725.02 552.983C2719.95 538.744 2734.36 517.747 2739.49 501.102C2740.23 488.889 2738.07 476.253 2741.72 465.642C2748.99 442.061 2774.3 439.688 2789.89 460.266C2805.04 481.051 2819.74 502.043 2836.93 526.024C2850.58 514.881 2862.9 504.359 2876.98 493.008C2885.71 497.816 2895.53 501.516 2904.06 508.198C2910.13 513.069 2918.46 521.624 2918.09 527.731C2916.73 561.596 2923.41 598.811 2893.49 623.521C2881.83 633.142 2873.54 646.518 2861.27 660.58C2847.95 643.686 2838.69 632.005 2829.87 620.118" stroke="#0014C8" stroke-miterlimit="10" stroke-linecap="round" stroke-linejoin="round"/>
<path d="M2632.95 2589.4C2628.57 2612.23 2622.63 2635.18 2620.02 2658.36C2618.63 2671.47 2621.47 2685.56 2622.53 2699.31C2625.65 2700.22 2628.11 2700.85 2631.23 2701.75C2646.71 2677.29 2662.63 2652.62 2677.88 2627.67C2691.39 2605.91 2706.47 2585.19 2716.4 2561.55C2728.49 2532.15 2753.72 2523.88 2777.59 2512.69C2785.1 2509.17 2793.09 2507.8 2803.49 2504.7C2865.18 2514.34 2902.17 2575.91 2879.35 2635.26C2888.21 2633.48 2896.2 2632.11 2907.06 2629.98C2913.46 2643.6 2919.85 2657.21 2928.52 2675.69C2935.89 2660.37 2940.44 2650.53 2948.02 2634.51C2958.6 2645.57 2967.83 2654.89 2978.41 2665.95C2966.06 2691.32 2955.01 2714.89 2944.18 2737.77C2931.32 2740.24 2920.01 2742.57 2906.04 2744.97C2901.55 2759.54 2917.44 2786.5 2887.69 2788.58C2888.18 2810.31 2888.65 2830.85 2889.6 2853.54C2898.97 2856.27 2910.12 2859.35 2919.49 2862.08C2917.62 2908.64 2920.64 2955.28 2913.41 2999.61C2907.63 3035.54 2890.7 3068.4 2878.66 3101.34C2860.88 3101.37 2849.55 3101.34 2833.32 3101.24C2850.13 3148.54 2865.81 3194.58 2882.39 3241.39C2856.48 3266.6 2829.81 3284.44 2789.62 3270.06C2777.11 3265.24 2761.86 3271.8 2743.88 3273.7C2755.32 3300.38 2771.99 3300.27 2790.04 3304.27C2782.06 3324.03 2774.07 3342.61 2766.08 3361.19C2761.63 3360.91 2757.85 3360.9 2754.28 3360.19C2700.2 3354.11 2696.45 3356.46 2683.79 3411.05C2678.5 3433.1 2670.78 3437.32 2649.57 3430.05C2640.64 3427.12 2631.27 3424.39 2624.99 3419.04C2614.63 3408.46 2604.17 3389.63 2595.06 3389.75C2576.17 3389.71 2552.07 3382.02 2539.27 3407.6C2532.33 3421.54 2518.67 3431.5 2508.15 3443.55" stroke="#0014C8" stroke-miterlimit="10" stroke-linecap="round" stroke-linejoin="round"/>
<path d="M2046.79 3638.48C2048.92 3613.16 2051.27 3587.14 2053.38 3560.63C2073.75 3571.85 2091.2 3581.47 2106.42 3589.76C2117.02 3584.78 2124.09 3581.47 2131.61 3577.95C2176.11 3600.39 2199.48 3657.07 2256.25 3664.27C2236.94 3702.4 2245.79 3735.03 2270.91 3771.31C2309.2 3777.09 2342.63 3802.35 2368.66 3840.57C2373.19 3846.76 2379.93 3853.09 2386.63 3855.88C2412.53 3865.1 2423.91 3887.05 2433.77 3911.5" stroke="#0014C8" stroke-miterlimit="10" stroke-linecap="round" stroke-linejoin="round"/>
<path d="M2502.05 1879.61C2496.22 1893.61 2490.39 1907.62 2482.41 1927.38C2485.18 1935.57 2491.16 1951.75 2496.92 1968.63C2489.06 1979.44 2481.84 1989.34 2472.88 2001.26C2478.36 2012.93 2485.4 2025.64 2490.01 2038.91C2494.85 2052.66 2497.02 2066.47 2477.49 2068.51C2457.96 2070.55 2439.11 2074.05 2416.04 2077.74C2441.12 2110.48 2465.49 2140.58 2503.05 2158.57C2506.11 2154.76 2510.06 2150.54 2516.63 2142.71C2547.26 2157.42 2579.9 2172.97 2615.66 2189.42C2603.79 2218.12 2611.2 2241.94 2623.72 2266.33C2632.61 2284.11 2617.78 2306.49 2598.02 2308.04C2590.25 2308.72 2581.55 2306.27 2570.87 2305.35C2573.27 2338.04 2575.42 2367.88 2577.8 2398.21C2580.28 2401.2 2582.32 2404.39 2585.23 2406C2595.98 2412.82 2612.92 2416.75 2617.48 2426.47C2625.94 2445.64 2629.1 2467.3 2630.91 2488.4C2632.17 2500.27 2626.54 2512.4 2624.02 2524.26" stroke="#0014C8" stroke-miterlimit="10" stroke-linecap="round" stroke-linejoin="round"/>
<path d="M2113.74 4022.42C2125.44 3997.95 2134.47 3973.54 2131.65 3943.42C2130.62 3932.04 2141.8 3919.08 2149.22 3908.48C2154.89 3899.89 2162.58 3892.14 2171.17 3886.33C2185.06 3876.85 2183.36 3865.19 2176.07 3850.81C2168.78 3836.43 2162.37 3821.63 2155.75 3807.53C2147.28 3805.57 2139.25 3803.4 2131.45 3801.71C2123.92 3785.67 2119.04 3768.38 2108.66 3755.45C2098.05 3742.03 2082.81 3732.56 2070.01 3721.36C2071.31 3701.17 2072.65 3683.33 2073.79 3667.38C2058.48 3633.62 2031.44 3640.36 2006.29 3637.32C2001.92 3642.93 1996.67 3650.13 1987.93 3662.54C1976.2 3647.87 1962.95 3636.87 1956.54 3622.08C1943.04 3591.03 1924.36 3571.9 1892.59 3573.15C1880.18 3558.21 1872.36 3536.95 1848.9 3544.4C1841.13 3563.46 1833.37 3582.53 1822.37 3609.64C1804.37 3591.97 1791.99 3579.38 1775.34 3563.46C1772.25 3564.91 1763.14 3565.03 1758.54 3570.15C1741.22 3589.54 1725.25 3610.67 1709.06 3631.32" stroke="#0014C8" stroke-miterlimit="10" stroke-linecap="round" stroke-linejoin="round"/>
<path d="M2110.48 4032.79C2096.45 4084.46 2135.32 4117.86 2158.9 4155.45C2167.06 4168.24 2190.87 4170.72 2212.76 4179.44C2199.43 4198.15 2185.23 4218.45 2170.17 4240.35C2143.52 4223.77 2118.64 4207.55 2093.63 4233.52C2095.76 4243.79 2099.02 4256.5 2101.85 4269.41C2083.48 4293.45 2065.99 4317.08 2047.85 4341.61C2066.1 4362.12 2082.55 4379.92 2098.55 4397.93" stroke="#0014C8" stroke-miterlimit="10" stroke-linecap="round" stroke-linejoin="round"/>
<path d="M591.465 1416.95C576.88 1423.79 562.081 1431.32 547.267 1437.68C492.204 1460.53 437.826 1484.83 408.554 1544.24C406.815 1547.43 404.634 1550.83 401.997 1553.25C399.802 1555.47 396.48 1556.43 392.288 1558.99C397.558 1589.75 402.586 1618.84 408.313 1650.56C395.325 1660.81 379.671 1671.11 366.043 1683.44C359.229 1689.6 351.574 1699.71 351.676 1707.97C352.235 1717.2 359.511 1730.41 366.898 1734.66C372.945 1738.35 386.234 1734.49 392.606 1728.54C402.5 1719.74 408.784 1706.71 419.931 1691.4C450.734 1701.88 482.421 1711.94 514.123 1723.18C529.524 1728.42 542.871 1729.28 554.047 1716.33C566.32 1702.27 583.97 1691.62 573.426 1665.71C568.845 1654.81 567.359 1642.45 563.39 1627.1C606.394 1617.62 649.169 1607.65 692.173 1598.17" stroke="#0014C8" stroke-miterlimit="10" stroke-linecap="round" stroke-linejoin="round"/>
<path d="M2895.18 3768.64C2897.18 3786.69 2884.59 3793.18 2871.93 3793.78C2846.61 3794.97 2833.45 3809.45 2824.39 3831.5C2805.14 3820.35 2792.32 3826.36 2785.68 3846.68C2776.26 3876.01 2768.4 3905.21 2782.35 3937.24C2784.65 3943.28 2786.96 3950.5 2785.92 3956.33C2778.59 3992.4 2787.5 4029.76 2786.17 4065.98C2785.46 4080.55 2785.62 4093.53 2792.24 4107.63C2800.23 4124.65 2787.28 4155.65 2772.54 4167.9C2765.49 4173.57 2757.6 4182.02 2756.59 4190.21C2753.66 4223.03 2733.9 4242.97 2715.96 4265.62C2696.26 4290.29 2681.29 4320.44 2660.47 4343.85C2620.57 4388.66 2614.04 4400.03 2607.5 4464.21C2585.44 4478.11 2548.38 4464.63 2533.02 4498.54C2530.39 4519.35 2527.34 4542.73 2524.74 4565.9C2522.51 4565.76 2520.29 4565.62 2518.07 4565.47C2522.63 4575.2 2527.2 4584.93 2531.99 4595.14C2525.66 4604.63 2519.99 4613.22 2513.23 4624.1C2517.8 4633.83 2523.51 4645.99 2528.99 4657.66C2517.8 4669.43 2507.7 4680.1 2497.17 4690.97" stroke="#0014C8" stroke-miterlimit="10" stroke-linecap="round" stroke-linejoin="round"/>
<path d="M2837.55 1956.64C2834 1957.12 2830.89 1957.39 2827.78 1957.66C2833.8 1977.38 2839.15 1996.82 2845.65 2018.7C2817.94 2025.16 2796.23 2030.59 2771.63 2036.79C2761.71 2024.83 2752.88 2011.76 2742.31 2001.88C2727.92 1988.46 2727.51 1973.81 2733.33 1958.63C2741.51 1936.99 2749.91 1915.85 2760.33 1895.54C2775.31 1866.56 2800.8 1861.14 2835.34 1868.08C2836.64 1883.49 2838.17 1899.39 2838.8 1914.52C2839.42 1928.47 2857.16 1943.29 2839.31 1955.81" stroke="#0014C8" stroke-miterlimit="10" stroke-linecap="round" stroke-linejoin="round"/>
<path d="M818.504 1802.92C799.082 1796 779.674 1790.27 760.465 1782.66C738.348 1773.45 731.087 1761.43 736.798 1737.99C741.654 1717.32 748.065 1696.51 757.171 1678.01C769.313 1653.33 784.363 1630.25 799.642 1607.66C804.873 1599.28 813.469 1593.47 821.594 1585.5C834.266 1621.69 825.636 1660.74 861.46 1681.91C861.81 1710.23 862.146 1737.36 862.267 1765.19" stroke="#0014C8" stroke-miterlimit="10" stroke-linecap="round" stroke-linejoin="round"/>
<path d="M2538.61 5140.21C2530.41 5142.27 2522.21 5144.33 2513.57 5146.61C2506.49 5131.53 2499.64 5116.94 2492.57 5101.87C2472.71 5113.55 2455.34 5111.01 2438.62 5089.19C2416.22 5093.16 2392.94 5097.55 2366.55 5102.21C2362.01 5094.85 2358.15 5087.76 2352.7 5078.45C2307.09 5092.71 2308.57 5051.08 2299.72 5018.44C2293.46 5015.44 2286.74 5011.47 2280.04 5008.68C2263.96 5001.98 2246.35 4997.78 2248.48 4972.46C2248.45 4970.1 2235.47 4963.13 2228.13 4962.42C2213.43 4959.82 2197.68 4963.04 2183.62 4958.36C2157.74 4950.33 2156.36 4946.23 2157.29 4913.75C2149.67 4909.02 2141.18 4904.7 2133.99 4898.57C2123.43 4889.87 2113.73 4878.4 2120.45 4863.98C2126.72 4849.77 2130.49 4831.39 2153.22 4836.16C2171.27 4840.15 2189.74 4841.58 2206.88 4843.63C2207.5 4840.37 2208.13 4837.11 2208.74 4832.67C2215.67 4835.95 2222.16 4839.43 2228.86 4842.22C2233.71 4838.76 2238.12 4835.51 2246.93 4829.01C2258.67 4843.68 2270.18 4857.86 2281.24 4872.25C2275.63 4885.56 2271.08 4895.41 2266.11 4906.64C2276.88 4914.64 2287.88 4923.13 2298.64 4931.14C2302.81 4944.61 2307.21 4958.57 2312.3 4975.17C2336.37 4962.1 2358.01 4950.77 2381.63 4937.91C2385.25 4943.33 2389.56 4950.21 2394.77 4957.86C2396.32 4957.72 2399.22 4958.15 2401.2 4956.62C2427.17 4936.14 2461.1 4947.53 2490.11 4939.26C2499.64 4936.58 2512.78 4939.31 2519.6 4933.15C2538.29 4916.68 2557.24 4921.44 2577.8 4930.78" stroke="#0014C8" stroke-miterlimit="10" stroke-linecap="round" stroke-linejoin="round"/>
<path d="M1958.43 2755.82C1957.79 2757.9 1956.26 2760.39 1956.29 2762.75C1960.88 2810.44 1928.37 2823.9 1895.84 2835C1886.1 2838.38 1873.8 2832.87 1856.45 2831.51C1835.99 2848.82 1797.41 2856.23 1794.14 2897.52C1778.73 2909.49 1766.18 2919.52 1750.56 2932.19C1738.71 2926.47 1722.61 2918.59 1701.37 2908.97C1693.02 2916.45 1682.03 2926.35 1668.17 2938.18C1659.88 2933.17 1649.36 2926.83 1639.06 2920.98C1626.12 2934.76 1615.37 2946.32 1602.42 2960.11C1623.99 2978.48 1643.09 2995.04 1663.98 3013.13C1664.28 3019.51 1664.62 3028.26 1664.72 3036.52C1655.83 3037.12 1648.06 3037.8 1637.18 3038.75C1616.03 3071.8 1601.87 3112.86 1563.9 3134.22C1564.81 3136.16 1566.4 3138.39 1567.31 3140.33C1582.27 3145.78 1597.9 3151.5 1607.73 3155.2C1611.8 3178.81 1616.71 3198.46 1618.28 3217.9C1618.83 3225.95 1614.71 3234.41 1611.24 3241.96C1606.68 3250.63 1601.22 3258.53 1594.9 3268.02C1576.25 3269.65 1556.92 3270.99 1535.83 3273.16C1527.18 3292.65 1518.98 3311.92 1510.11 3332.1C1475.77 3323.28 1460.4 3356 1433.86 3367.25C1432.01 3379.4 1430.62 3392.51 1428.17 3410.27C1407.65 3404.46 1387.36 3399.15 1364.38 3392.71C1367.53 3413.19 1371.33 3432.77 1372.46 3452.41C1372.8 3462.34 1368.71 3473.15 1365.49 3482.38C1353.27 3518.37 1321.36 3544.6 1323.46 3588.12C1325.58 3634 1344.47 3669.64 1386.94 3688.89" stroke="#0014C8" stroke-miterlimit="10" stroke-linecap="round" stroke-linejoin="round"/>
<path d="M3524.77 5081.14C3553.38 5075.45 3582.65 5070.03 3610.81 5064.54C3625.77 5088.37 3620.5 5111.61 3610.31 5132.41C3604.46 5144.06 3602.79 5153.14 3607.19 5167.1C3610.18 5175.78 3605.23 5188.2 3600.66 5196.86C3588.72 5219.67 3575.88 5241.71 3561.24 5262.22C3556.88 5269.01 3545.82 5273.01 3537.37 5273.41C3505.85 5276.32 3474.52 5277.36 3443.21 5279.58" stroke="#0014C8" stroke-miterlimit="10" stroke-linecap="round" stroke-linejoin="round"/>
<path d="M1868.47 1478.08C1867.97 1473.57 1866.8 1468.78 1867.18 1463.85C1870.86 1420 1831.27 1381.6 1789.33 1387.62C1781.01 1397.45 1773.57 1406.88 1764.15 1417.82C1746.45 1370.94 1730.38 1329.82 1714.99 1288.97C1713.66 1289.6 1711.66 1289.94 1710.34 1290.56C1712.42 1278.91 1714.72 1267.74 1716.59 1256.78C1729.45 1254.31 1740.1 1252.87 1754.96 1250.06C1756.45 1226.81 1757.7 1201.9 1759.77 1171.86C1739.04 1185.14 1723.68 1183.44 1710.88 1155.02C1718.54 1144.91 1726.82 1131.53 1738.02 1120.94C1758.24 1101.97 1779.14 1084.46 1788.78 1055.61C1791.35 1047.28 1800.62 1041.75 1805.66 1036.42C1825.56 1045.49 1821.95 1059.64 1823 1072.2C1863.15 1084.23 1901.47 1072.79 1940.32 1069.41C1954.98 1068.47 1968.94 1064.89 1983.83 1064.44C1999.15 1063.78 2009.5 1055.96 2016.67 1042.51C2026.02 1025.67 2034.7 1008.54 2044.69 989.619C2020.28 974.366 1989.29 966.941 1981.92 928.269C2006.97 904.659 2042.62 911.678 2070.72 901.469C2092.2 912.759 2113.65 921.69 2132.7 934.71C2145.48 943.552 2155.21 957.384 2171.87 974.493C2186.28 971.888 2207.69 977.279 2227.7 995.784C2234.67 1002.6 2248.65 1000.2 2262.24 1002.73C2264.98 1008.57 2271.07 1015.8 2271.15 1022.88C2273.03 1067.09 2273.8 1111.23 2273.9 1155.09C2274.08 1169.25 2279.3 1178.07 2291.18 1186.15C2301.72 1193.67 2321.04 1192.32 2320.63 1213.28" stroke="#0014C8" stroke-miterlimit="10" stroke-linecap="round" stroke-linejoin="round"/>
<path d="M2849.96 3700.85C2834.49 3708.11 2819.02 3715.36 2803.55 3722.61C2802.2 3720.87 2801.28 3718.93 2799.93 3717.19C2795.36 3724.67 2790.55 3731.67 2784.88 3740.26C2788.67 3741.45 2790.9 3741.6 2793.35 3742.23C2835.01 3750.58 2876.45 3758.44 2918.11 3766.79C2955.33 3774.85 2984.52 3799.14 3012.4 3825.22C3012.78 3855.89 2992.84 3860.5 2969.57 3866.07C2969.72 3877.87 2969.86 3889.66 2970.24 3901.95C2988.2 3917.25 2995.5 3896.03 3009.7 3894.12C3013.14 3902.6 3015.92 3911.97 3020.7 3921C3027.99 3935.38 3036.16 3949.35 3043.45 3963.73C3052.34 3981.51 3061 3998.81 3068.56 4017.22C3073.84 4030.76 3078.66 4043.33 3095.56 4043.72C3098.71 4028.6 3101.41 4013.68 3104.34 3999.26C3123.24 3999.3 3130.94 4011.11 3138.01 4026.19C3162.22 4078.91 3187.55 4131.71 3214.71 4189.57C3208.85 4201.22 3201.26 4216.05 3193.89 4231.37C3195.9 4232.21 3198.14 4233.53 3199.71 4234.57C3206.03 4242.29 3212.79 4249.8 3219.33 4258C3263.69 4250.26 3263.69 4250.26 3267.57 4222.93C3260.14 4215.14 3252.48 4206.86 3240.55 4194.07C3247.07 4182.7 3251.29 4164.11 3261.9 4159.14C3286.2 4147.75 3312.92 4151.83 3340.1 4175.28C3324.27 4207.02 3293.25 4232.84 3309.38 4278.67C3293.45 4284.95 3278.86 4290.61 3264.7 4296.06" stroke="#0014C8" stroke-miterlimit="10" stroke-linecap="round" stroke-linejoin="round"/>
<path d="M995.33 2541.63C1008.21 2540.34 1007.32 2540.76 1017.72 2554.87C1027.89 2568.49 1034.49 2581.41 1023.79 2596.52C1013.53 2611.41 1016.93 2634.74 998.168 2645.31C995.516 2646.56 997.93 2662.04 1001.8 2669.13C1011.57 2686.5 1008.16 2698.77 996.974 2710.54C955.682 2660.49 937.902 2606.53 956.492 2546.2C968.925 2545.11 980.688 2543.75 993.12 2542.67" stroke="#0014C8" stroke-miterlimit="10" stroke-linecap="round" stroke-linejoin="round"/>
<path d="M2580.31 1282.28C2574.29 1299.34 2568.28 1316.4 2561.19 1335.74C2594.62 1343.8 2616.22 1364.53 2620.18 1397.08C2623.65 1426.3 2625.8 1456.15 2603.65 1480.18C2583.69 1502 2568.24 1528.82 2551 1554.11C2558.95 1585.98 2567.34 1617.64 2575.29 1649.51C2602.52 1640.9 2621.87 1660.3 2618.7 1691.45C2615.36 1726.84 2610.47 1762.36 2606.69 1797.95C2604.89 1814.81 2604.44 1832.22 2603.99 1849.64C2602.78 1895.3 2568.59 1916.67 2529.01 1896.66C2521.85 1892.9 2514.92 1889.62 2507.76 1885.86" stroke="#0014C8" stroke-miterlimit="10" stroke-linecap="round" stroke-linejoin="round"/>
<path d="M2000.78 4057.52C2021.43 4055.56 2042.55 4055.74 2062.72 4051.62C2080.9 4047.85 2097.68 4038.79 2118.92 4031.2C2117.58 4030.65 2122.49 4031.91 2124.97 4034.9C2153.7 4075.42 2192.98 4089.04 2236.77 4089.27C2275.67 4089.43 2301.6 4119.4 2332.12 4143.06C2313.91 4180.07 2316.14 4217 2328.42 4256.93C2334.2 4274.98 2331.33 4295.31 2332.24 4314.47" stroke="#0014C8" stroke-miterlimit="10" stroke-linecap="round" stroke-linejoin="round"/>
<path d="M2631.45 2529.35C2653.64 2544.46 2654.13 2547.8 2640.8 2584.89C2605.83 2596.55 2570.1 2600.84 2531.94 2588.47C2503.37 2579.32 2473.97 2574.12 2444.32 2567.25C2438.91 2578.69 2435.21 2585.76 2432.19 2593.11C2421.22 2622.58 2402.38 2644.47 2376.09 2657.39C2363.27 2663.4 2358.72 2673.24 2362.65 2685.05C2372.32 2712.55 2361.69 2733.56 2351.97 2756.51C2308.73 2728.72 2269.12 2743.14 2228.62 2756.79C2208.03 2763.47 2184.49 2765.02 2180.79 2789.3C2161.71 2792.31 2145.53 2795.74 2129.54 2797.31C2121.77 2797.98 2113.53 2796.51 2106.16 2793.44C2085.83 2785.76 2069.94 2794.4 2054.27 2803.52C2038.6 2812.65 2024.06 2823.03 2006.42 2834.86C1988.02 2802.54 1971.43 2772.94 1951.88 2738.2C1940.45 2748.31 1932.1 2755.78 1922.43 2765.06C1913.01 2740.4 1895.04 2725.1 1867.04 2725.17C1848.14 2725.13 1828.32 2721.97 1809.37 2717.2C1801.42 2720.93 1793.02 2724.87 1783.74 2729.22C1781.95 2728.87 1778.62 2728.66 1776.15 2726.85C1728.66 2696.9 1691.83 2720.69 1655.24 2744.97C1635.83 2757.63 1617.83 2775.56 1590.42 2751.63C1593.8 2719.78 1596.94 2686.27 1600.95 2651.16C1591.11 2646.28 1582.17 2642.17 1568.31 2635.61C1577.73 2624.67 1585.83 2614.35 1594.82 2604.79C1611.27 2586.99 1628.17 2568.98 1645.29 2551.46C1667.01 2528.82 1647.99 2482.56 1619.81 2468.47C1611.31 2464.15 1601.73 2462.12 1591.46 2458.63C1589.5 2444.12 1587.35 2431.48 1585.39 2416.97C1548.97 2401.42 1512.34 2387.73 1471.68 2388.41C1454.57 2388.72 1436 2379.03 1418.36 2372.47C1409.87 2369.32 1402.88 2361.33 1394.61 2357.49C1370.91 2346.06 1346.55 2335.53 1321.97 2324.51C1321.77 2326.38 1320.9 2327.97 1320.7 2329.85C1319.03 2320.54 1318.03 2311.52 1316.13 2301.73C1302.55 2300.38 1289.86 2298.62 1276.96 2297.55C1278.03 2294.08 1278.87 2290.13 1280.38 2286.45C1280.72 2277.99 1280.39 2269.24 1280.51 2261.47C1255.4 2261.97 1231.85 2262.33 1208.29 2262.7C1208.05 2261.03 1207.57 2258.88 1207.33 2257.21C1201.84 2262.75 1196.57 2267.6 1189.54 2274.45C1171.4 2263.38 1153.26 2252.3 1135.56 2241.02" stroke="#0014C8" stroke-miterlimit="10" stroke-linecap="round" stroke-linejoin="round"/>
<path d="M2072.56 746.224C2056.11 745.632 2039.66 745.041 2022.53 744.17C2015.36 757.617 2008.19 771.064 1999.71 786.313C1954.71 777.747 1907.48 769.037 1858.91 759.77C1865.66 747.709 1871.34 740.296 1874.35 731.767C1879.92 714.916 1871.49 698.103 1854.1 694.386C1824.92 688.492 1805.8 670.754 1792.12 642.757C1789.15 636.435 1781.98 631.492 1776.8 626.206" stroke="#0014C8" stroke-miterlimit="10" stroke-linecap="round" stroke-linejoin="round"/>
<path d="M2919.6 5762.41C2924.35 5769.08 2929.98 5775.34 2934.29 5782.22C2944.96 5800.36 2941.73 5808.4 2917.49 5825.7C2923.97 5846.4 2930.24 5867.79 2936.94 5888.97C2934.73 5890.01 2932.74 5890.35 2930.53 5891.38C2941.55 5902.24 2966.02 5903.82 2955.08 5935.65C2932.91 5940.11 2907.23 5948.59 2880.56 5949.23C2849.68 5950.06 2822.43 5957.49 2796.15 5971.59C2775.39 5982.51 2755.83 5982.19 2736.05 5964.17C2731.33 5959.86 2724.61 5955.89 2718.15 5954.77C2687.86 5949.98 2658.25 5946.65 2628.29 5932.22C2613.76 5925.39 2594.01 5928.12 2578.05 5932.04C2544.15 5940.22 2520.2 5927.12 2503.14 5895.37C2496.69 5895.42 2490.9 5894.58 2485.57 5894.7C2472.02 5895.71 2458.26 5897.42 2444.5 5899.12C2431.41 5901.11 2417.48 5907.05 2404.79 5905.28C2376.28 5900.85 2350.76 5903.91 2326.94 5918.64" stroke="#0014C8" stroke-miterlimit="10" stroke-linecap="round" stroke-linejoin="round"/>
<path d="M2501.29 3452.1C2457.14 3459.15 2413.66 3466.48 2369.52 3473.54C2369.76 3475.2 2370 3476.87 2370.25 3478.53C2363.07 3473.59 2355.9 3468.65 2349.18 3464.68C2330.14 3471.23 2312.21 3476.67 2293.17 3483.22C2274.18 3457.71 2253.75 3458.98 2228.75 3468.92C2215.92 3473.75 2210.69 3482.14 2204.13 3491.15C2199.1 3497.66 2195.71 3511.12 2189.49 3511.66C2152.86 3515.19 2143.66 3543.83 2134.7 3574.14" stroke="#0014C8" stroke-miterlimit="10" stroke-linecap="round" stroke-linejoin="round"/>
<path d="M3833.55 5428.77C3850.95 5433.66 3867.89 5437.59 3875.49 5459.53C3881.73 5478.56 3873.49 5495.48 3855.67 5491.97C3821.13 5485.02 3786.57 5475.71 3755.58 5468.29C3744.39 5444.46 3732.38 5425.77 3749.46 5404.71C3774.33 5402.54 3800.31 5400.45 3828.72 5397.8C3829.77 5410.37 3830.1 5419.11 3830.64 5427.16" stroke="#0014C8" stroke-miterlimit="10" stroke-linecap="round" stroke-linejoin="round"/>
<path d="M1135.53 1347.18C1088.17 1364.63 1039.84 1357.03 991.228 1344.22C952.424 1333.93 913.435 1326.69 874.218 1318.97C869.54 1318.2 864.236 1320.69 859.816 1322.76C834.18 1334.78 809.015 1348.95 782.238 1358.54C762.76 1365.3 740.072 1364.07 720.595 1370.83C682.311 1384.62 644.954 1401.54 607.583 1417.29" stroke="#0014C8" stroke-miterlimit="10" stroke-linecap="round" stroke-linejoin="round"/>
<path d="M2213.47 4637.07C2220.91 4627.65 2227.91 4618.43 2237.54 4606.79C2249.9 4617.02 2262.03 4627.95 2275.74 4639.91C2282.47 4626.67 2291.22 4615.45 2293.28 4602.62C2297.88 4579.1 2315.56 4570.81 2331.46 4562.17C2346.91 4553.74 2359.52 4566.81 2371.44 4578.43C2390.34 4596.86 2409.22 4614.11 2431.49 4635.12C2425.33 4640.38 2418.94 4645.16 2413.45 4650.7C2407.31 4657.14 2402.07 4664.34 2392.87 4675.77C2405.54 4693.57 2417.37 4715.31 2433.58 4732.63C2447.09 4746.47 2452.58 4759.32 2448.14 4777.42C2433.27 4779.06 2418.84 4780.48 2402.41 4782.25C2383.82 4752.99 2365.92 4725.19 2346.65 4694.48C2337.94 4709.24 2331.84 4719.22 2325.31 4730.59C2329.88 4740.31 2334.9 4751.01 2338.55 4758.79C2335.17 4809.03 2299.89 4831.5 2275.39 4863.16" stroke="#0014C8" stroke-miterlimit="10" stroke-linecap="round" stroke-linejoin="round"/>
<path d="M2690.49 4291.83C2668.39 4302.2 2647.65 4297.08 2624.16 4284.95C2600.67 4272.83 2573.51 4268.95 2549.86 4262.23C2537.54 4272.76 2527.65 4281.55 2517.09 4290.06C2511.14 4294.63 2504.78 4301.76 2498.55 4301.13C2474.52 4299.34 2456.67 4311.86 2439.49 4324.66C2393.02 4287.71 2354.67 4314 2311.51 4328.89C2317.44 4341.54 2322.44 4349.88 2325.66 4359.05C2333.97 4383.63 2325.55 4403.6 2304.37 4417.09C2293.57 4423.94 2284.57 4433.5 2275.58 4443.05C2247.07 4457.01 2221.69 4453.49 2194.25 4427.19C2169.73 4403.68 2136.3 4396.8 2103.6 4394.92C2087.81 4430.22 2112.13 4455.6 2122.7 4483.87" stroke="#0014C8" stroke-miterlimit="10" stroke-linecap="round" stroke-linejoin="round"/>
<path d="M3680.84 3299.43C3678.72 3307.55 3677.27 3315.94 3674.3 3328.01C3660.91 3323.61 3649.31 3319.56 3639.04 3316.06C3633.9 3295.93 3629.46 3278.43 3624.79 3260.44C3619.2 3239.34 3633.61 3218.34 3653.02 3224.07C3678.67 3231.63 3705.45 3240.43 3721.61 3271.42C3720.16 3279.81 3718.51 3290.08 3716.86 3300.34C3705.46 3312.81 3694.15 3315.14 3683.05 3298.4" stroke="#0014C8" stroke-miterlimit="10" stroke-linecap="round" stroke-linejoin="round"/>
<path d="M3182.41 5075.58C3197.28 5092.34 3212.16 5109.09 3227.47 5125.64C3232.88 5131.41 3238.72 5136.98 3245.44 5140.95C3282.61 5163.86 3286.73 5191 3256.44 5221.81C3253.59 5224.93 3251.2 5229.02 3246.82 5234.63C3261.4 5263.39 3256.81 5305.29 3301.01 5321.35C3296.66 5329.32 3292.74 5335.9 3291.43 5337.7C3304.21 5364.93 3314.48 5386.81 3324.75 5408.7" stroke="#0014C8" stroke-miterlimit="10" stroke-linecap="round" stroke-linejoin="round"/>
<path d="M3124.48 2700.08C3125.82 2700.64 3127.39 2701.68 3127.83 2701.47C3158.24 2680.1 3185.39 2682.79 3205.44 2722.05C3237.37 2698.18 3281.85 2699.87 3305.94 2724.77C3303.04 2759.95 3286.19 2781.5 3247.3 2799.73C3235 2794.22 3222.04 2788.43 3208.41 2782.37C3143.01 2832.61 3108.29 2793.11 3085.92 2727.06" stroke="#0014C8" stroke-miterlimit="10" stroke-linecap="round" stroke-linejoin="round"/>
<path d="M3001.79 5029.78C3002.2 5062.82 3002.61 5095.86 3003.03 5130.07C2994.58 5129.29 2983.68 5129.06 2971.45 5128.27C2963.97 5116.94 2954.93 5104.56 2947.68 5093.72C2921.29 5098.38 2895.11 5102.35 2871.6 5106.25C2853.52 5082.69 2873.36 5051.43 2841.19 5038.03C2832.14 5042.87 2821.32 5048.54 2808.07 5055.94C2808.97 5056.7 2806.94 5054.68 2804.93 5053.85C2769.07 5047.52 2749.07 5011.8 2718.65 4996.4C2702.99 4988.31 2685.61 4984.6 2668.19 4978.52C2664.63 4996.21 2661.04 5011.54 2657.47 5028.05C2685.02 5045.39 2711.27 5064.54 2717.29 5102.65C2702.31 5113.23 2686.44 5124.23 2666.61 5138.28C2631.95 5139.1 2590.61 5139.5 2549.5 5140.38" stroke="#0014C8" stroke-miterlimit="10" stroke-linecap="round" stroke-linejoin="round"/>
<path d="M2025.42 4345.61C2013.03 4350.23 2001.31 4355.13 1988.92 4359.75C1970.35 4367.28 1957.63 4363.15 1946.69 4340.99C1939.85 4327.58 1923.08 4319.43 1911.4 4309.48C1879.85 4328.42 1869.37 4325.62 1857.31 4285C1850.12 4260.49 1846.25 4235.01 1840.38 4209.88" stroke="#0014C8" stroke-miterlimit="10" stroke-linecap="round" stroke-linejoin="round"/>
<path d="M2956.82 4715.63C2962 4720.92 2967.62 4726 2972.8 4731.28C2972.29 4762.37 2999.92 4804 3026.84 4806.21C3056.43 4808.36 3081.41 4815.63 3095.79 4846.27C3106.52 4869.12 3123.24 4890.95 3119.35 4918.28C3118.96 4922.03 3121.24 4926.89 3122.62 4930.99C3147.89 4925.08 3173.38 4919.65 3197.76 4914.15C3203.47 4926.31 3206.89 4933.6 3210.77 4941.87C3219.94 4946.47 3229.34 4951.56 3245 4959.64C3238.6 4981.63 3231.99 5004.3 3225.41 5029.34C3191.07 5037.73 3177.6 5063.03 3170.25 5097.92C3164.8 5124.21 3138.01 5132.62 3110.56 5123.54C3105.42 5121.79 3100.08 5120.74 3095.61 5119.27C3086.18 5129.03 3076.95 5138.1 3065.54 5149.39C3048.13 5143.31 3029.83 5137.65 3011.31 5131.5" stroke="#0014C8" stroke-miterlimit="10" stroke-linecap="round" stroke-linejoin="round"/>
<path d="M2879.51 5481.62C2863.09 5484.57 2846.68 5487.52 2831.15 5490.05C2828.88 5503.58 2827.01 5514.54 2825.37 5525.99C2814.91 5524.37 2805.11 5523.03 2796.43 5521.76C2766.89 5541.55 2792.79 5569.16 2792 5595.05C2761.22 5586.93 2740.49 5635.81 2703.83 5601.37C2697.81 5581.65 2691.53 5559.08 2683.65 5533.11C2677.42 5532.47 2661.67 5535.69 2663.56 5508.7C2637.24 5519.26 2613.79 5527.88 2588.35 5538.03C2582.93 5531.08 2577.95 5523.92 2573.2 5517.25C2558.03 5530.88 2543.09 5545.01 2525.29 5561.07C2527.66 5573.01 2530.74 5588.78 2534.08 5607.38C2497.83 5587.59 2505.18 5625.09 2492.68 5638.66C2485.11 5637.47 2476.87 5635.99 2468.18 5634.72" stroke="#0014C8" stroke-miterlimit="10" stroke-linecap="round" stroke-linejoin="round"/>
<path d="M2905.02 1020.29C2916.16 986.585 2962.07 960.314 2989.99 971.55C2998.02 1027.71 2994.78 1035.76 2956.19 1041.99C2941.77 1044.59 2922.91 1029.7 2906.16 1022.72" stroke="#0014C8" stroke-miterlimit="10" stroke-linecap="round" stroke-linejoin="round"/>
<path d="M3440.59 5286.74C3436.58 5340.24 3391.6 5388.03 3325.25 5414.39C3334.7 5424.2 3341.52 5436.43 3351.35 5440.13C3373.24 5448.85 3371.18 5461.69 3362.7 5476.94C3355.96 5489 3348.77 5501.27 3340.29 5516.52C3328.45 5511.98 3315.95 5507.16 3304.78 5502.9C3295.03 5505.1 3285.28 5507.3 3273.08 5510.05C3267.15 5497.41 3260.99 5484.28 3254.82 5471.15C3246.68 5477.93 3240.08 5483.4 3230.84 5491.29C3219.81 5443.66 3184.57 5434.07 3149.8 5426.64C3134.87 5423.55 3118.52 5431.22 3103.6 5429.31C3087.57 5427.33 3071.47 5419.45 3055.4 5413.94" stroke="#0014C8" stroke-miterlimit="10" stroke-linecap="round" stroke-linejoin="round"/>
<path d="M2438.43 5495.62C2438.31 5503.39 2438.85 5511.44 2438.73 5519.21C2419.46 5525.28 2414.9 5533.94 2425.13 5552.29C2436.27 5572.58 2449.41 5592.52 2461 5612.6C2463.95 5617.75 2466.7 5624.76 2466.78 5630.66C2466.01 5658.9 2464.14 5687.08 2462.31 5718.79C2458.1 5720.17 2451.67 5721.4 2445.7 5723.61C2420.93 5734.03 2394.83 5743.9 2386.32 5775.18C2378.87 5801.81 2353.34 5803.7 2335.49 5816.22C2318.96 5828.12 2294.97 5828.69 2283.89 5849.9" stroke="#0014C8" stroke-miterlimit="10" stroke-linecap="round" stroke-linejoin="round"/>
<path d="M2625.32 5324.95C2614.65 5325.21 2603.56 5326.85 2592.87 5324.74C2583.51 5323.2 2570.81 5320.25 2567.17 5313.65C2563.08 5306.08 2563.54 5289.84 2568.59 5284.51C2581.1 5272.12 2576.97 5261.01 2572.11 5246.08C2561.48 5213.09 2553.29 5179.56 2543.77 5146.64" stroke="#0014C8" stroke-miterlimit="10" stroke-linecap="round" stroke-linejoin="round"/>
<path d="M1637.97 3836.13C1634.89 3855.97 1635.79 3875.12 1646.03 3894.64C1660.81 3921.53 1646.89 3945.86 1639.44 3972.49C1668.91 3983.58 1696.6 3994.33 1721.61 4003.96C1732.06 4058.39 1742.74 4113.3 1753.42 4168.21" stroke="#0014C8" stroke-miterlimit="10" stroke-linecap="round" stroke-linejoin="round"/>
<path d="M2877.86 5345.97C2875.65 5347 2873.21 5347.55 2871.23 5349.08C2835.6 5380.02 2822.91 5378.26 2787.73 5337.79C2785.25 5334.8 2781.46 5333.61 2776.46 5325.27C2765.41 5330.45 2754.82 5336.6 2743.08 5340.32C2735.56 5342.67 2726.44 5342.79 2718.63 5339.92C2700.32 5333.08 2682.4 5322.49 2663.65 5315.86C2640.2 5307.27 2627.2 5316.33 2625.53 5342.63C2624.59 5356.72 2624.76 5370.88 2624.07 5386.63C2597.55 5399.07 2602.33 5426.49 2602.4 5449.61C2583.21 5461.57 2566 5472.01 2547.02 5483.28C2507 5446.27 2473.85 5480.21 2438.4 5489.71" stroke="#0014C8" stroke-miterlimit="10" stroke-linecap="round" stroke-linejoin="round"/>
<path d="M1485.02 2390.51C1489.25 2408.71 1493.47 2426.9 1497.93 2445.58C1473.86 2458.64 1453.6 2474.07 1427.27 2447.85C1422.99 2443.33 1405.91 2446 1401.09 2451.82C1394.31 2460.34 1390.47 2474 1390.18 2486.01C1389.87 2496.83 1396.46 2508.58 1399.93 2519.41" stroke="#0014C8" stroke-miterlimit="10" stroke-linecap="round" stroke-linejoin="round"/>
<path d="M2752.85 5757.56C2738.73 5748.16 2721.32 5742.08 2710.94 5729.15C2694.69 5709.48 2675.31 5706.1 2655.75 5705.78C2625.96 5705.51 2596.22 5708.77 2566.69 5711.35C2556.92 5712.37 2547.17 5714.56 2535.42 5717.11C2514.64 5708.45 2491.41 5699.17 2467.51 5689.61" stroke="#0014C8" stroke-miterlimit="10" stroke-linecap="round" stroke-linejoin="round"/>
<path d="M1745.43 3806.54C1715.74 3814.52 1686.28 3822.99 1656.58 3829.8C1647.27 3831.79 1636.38 3831.56 1626.57 3829.04C1613.19 3825.81 1600.24 3821.2 1587.49 3814.72C1550.81 3796.32 1518.32 3810.96 1486.44 3821.16C1467.98 3802.52 1450.19 3784.16 1432.19 3766.49" stroke="#0014C8" stroke-miterlimit="10" stroke-linecap="round" stroke-linejoin="round"/>
<path d="M2679.68 1861.58C2684.81 1881.72 2695.97 1903.19 2670.4 1919.93C2659.5 1919.69 2645.27 1919.25 2625.48 1918.44C2632.19 1885.63 2637.64 1859.34 2643.09 1833.05C2645.97 1832.29 2648.85 1831.54 2651.73 1830.78C2660.52 1840.31 2669.75 1849.63 2678.53 1859.15" stroke="#0014C8" stroke-miterlimit="10" stroke-linecap="round" stroke-linejoin="round"/>
<path d="M2928.21 5556.66C2915.94 5570.72 2912.58 5586.53 2912.84 5607.77C2913.32 5628.31 2901.79 5648.55 2894.52 5672.12C2902.56 5675.47 2913.71 5678.55 2922.9 5684.33C2938.8 5694.08 2947.22 5709.71 2948.77 5727.97C2950.8 5748.37 2942.21 5754.18 2919.05 5750.8" stroke="#0014C8" stroke-miterlimit="10" stroke-linecap="round" stroke-linejoin="round"/>
<path d="M2782.85 4029.01C2759.03 4043.74 2735.21 4058.47 2711.39 4073.2C2712.74 4074.94 2713.65 4076.88 2715.01 4078.62C2690.36 4080.09 2676.18 4065.97 2664.78 4042.84C2655.89 4025.05 2644.34 4007.33 2630.62 3994.18C2623.64 3987.37 2608.57 3990.87 2597.69 3991.82C2562.27 3985.29 2561.68 3955.31 2558.9 3928.72C2540.62 3905.85 2518.59 3903.72 2496.16 3905.33C2477.28 3906.47 2458.42 3908.79 2439.55 3911.11" stroke="#0014C8" stroke-miterlimit="10" stroke-linecap="round" stroke-linejoin="round"/>
<path d="M3312.98 4756.32C3308.38 4761.45 3304 4767.06 3298.73 4771.91C3282.46 4786.65 3268.7 4805.57 3240.91 4787.74C3220.52 4774.16 3197.09 4766.75 3175.17 4755.67C3153.25 4744.59 3131.55 4732.81 3112.31 4722.85C3106.82 4710 3102.24 4699.09 3097.41 4686.52C3075.7 4691.95 3068.82 4675 3059.86 4651.32C3040.3 4651 3018.95 4650.33 3003.61 4649.81C2990.79 4637.43 2980.66 4627.34 2970.09 4617.46" stroke="#0014C8" stroke-miterlimit="10" stroke-linecap="round" stroke-linejoin="round"/>
<path d="M2856.83 5898.63C2838.97 5892.76 2821.79 5887.17 2801.93 5880.47C2800.69 5888.17 2798.59 5898.64 2797.78 5904.96C2788.37 5917.08 2780.49 5926.71 2770.64 5939.04C2767.52 5938.13 2758.61 5936.38 2746.8 5934.2C2755.04 5917.29 2762.18 5901.48 2770.63 5883.87C2765.05 5882.33 2759.25 5880.3 2753.23 5878.97C2764.64 5849.29 2809.19 5838.5 2830.8 5860.41C2839.13 5868.96 2843.09 5884.31 2858.82 5879.9C2858.89 5885.8 2858.97 5891.7 2859.04 5897.6" stroke="#0014C8" stroke-miterlimit="10" stroke-linecap="round" stroke-linejoin="round"/>
<path d="M3157.09 5550.21C3149.86 5558.94 3142.19 5567.88 3135.62 5575.7C3103 5579.73 3075.99 5570.44 3053.44 5544.22C3024.21 5553.18 2996.99 5562.97 2965.41 5561.17C2908.26 5558.89 2865.21 5492.45 2892.79 5439.77C2894.53 5436.59 2894.92 5432.84 2900.61 5425.43C2885.26 5406.52 2869.92 5387.61 2854.35 5369.39" stroke="#0014C8" stroke-miterlimit="10" stroke-linecap="round" stroke-linejoin="round"/>
<path d="M2703.2 5605.8C2700.34 5607.73 2697.25 5609.19 2692.61 5611.95C2688.55 5606.74 2683.8 5600.06 2677.02 5591.38C2669.8 5600.1 2663.45 5608.42 2654.91 5618.95C2659.98 5633.18 2672.6 5647.44 2662.19 5667.75C2656.12 5680.09 2673.4 5693.94 2692.29 5693.98C2698.74 5693.92 2704.95 5693.38 2711.19 5694.02C2719.2 5695.01 2727.46 5697.66 2734.59 5699.07C2742.42 5721.5 2749.13 5742.68 2756.05 5763.17C2779.38 5762.32 2801.82 5761.88 2825.82 5761.31C2831.53 5756.26 2839 5749.19 2849.76 5738.81C2863.87 5747.03 2878.43 5756.22 2893.43 5765.21C2904.81 5768.77 2912.97 5763.17 2911.66 5747.76" stroke="#0014C8" stroke-miterlimit="10" stroke-linecap="round" stroke-linejoin="round"/>
<path d="M2338.41 582.995C2272.92 589.374 2206.75 595.474 2135.48 602.187C2136.84 622.318 2138.47 646.475 2139.71 674.379C2111.86 687.435 2083.13 700.905 2052.19 715.412C2055.39 722.221 2059.27 730.489 2063.15 738.757" stroke="#0014C8" stroke-miterlimit="10" stroke-linecap="round" stroke-linejoin="round"/>
<path d="M3377.08 4818.19C3374.89 4838.8 3374.48 4859.76 3370.51 4880.01C3368.63 4889.79 3361.17 4898.03 3357.07 4907.67C3353.62 4916.41 3349.96 4925.84 3348.52 4935.41C3345.85 4952.69 3344.74 4971 3342.53 4990.43C3324.24 4984.77 3310.02 4967.11 3296.92 4986.31" stroke="#0014C8" stroke-miterlimit="10" stroke-linecap="round" stroke-linejoin="round"/>
<path d="M2876.95 4907.38C2867.19 4909.58 2857.21 4911.29 2844.35 4913.76C2844.63 4900.57 2844.49 4888.78 2844.33 4875.8C2834.16 4862.17 2822.84 4846.12 2808.15 4826.31C2788.01 4832.79 2766.53 4839.89 2745.51 4846.78" stroke="#0014C8" stroke-miterlimit="10" stroke-linecap="round" stroke-linejoin="round"/>
<path d="M2945.05 5207.64C2944.91 5214.23 2945.44 5221.1 2945.35 5231.23C2928.99 5238.9 2910.87 5247.39 2892.31 5256.1C2879.94 5261.9 2872.47 5268.96 2876.7 5287.15C2880.71 5306.03 2879.17 5325.74 2880.13 5349.61C2932.35 5366.66 2987.59 5376.36 3040.52 5397.23C3044.82 5402.92 3048.89 5409.32 3053.64 5415.99C3052.48 5429.59 3050.66 5444.09 3049.28 5458.38" stroke="#0014C8" stroke-miterlimit="10" stroke-linecap="round" stroke-linejoin="round"/>
<path d="M3118.85 2693.84C3111.61 2701.39 3105.05 2710.4 3096.67 2715.51C3076.82 2728.38 3056.29 2739.78 3034.66 2752.3C3029.46 2744.65 3023.4 2739.78 3023.12 2735.75C3021.66 2707.37 3021.75 2678.84 3020.29 2650.46C3019.16 2630.82 3034.46 2627.8 3044.91 2628.24C3064.26 2629.25 3082.71 2629.5 3101.64 2650.29C3113.8 2663.57 3125.88 2669.78 3122.57 2689.13" stroke="#0014C8" stroke-miterlimit="10" stroke-linecap="round" stroke-linejoin="round"/>
<path d="M2582.83 4941.45C2561.2 4972.36 2549.41 5006.96 2551.47 5048.11C2552.09 5062.06 2547.59 5075.45 2547.09 5089.33C2546.37 5102.72 2546.99 5116.67 2547.6 5130.62" stroke="#0014C8" stroke-miterlimit="10" stroke-linecap="round" stroke-linejoin="round"/>
<path d="M2205.89 4833.46C2187.95 4802.12 2219.93 4800.18 2227.42 4777.09C2221.07 4767.01 2211.32 4750.82 2203.6 4737.83C2219.25 4709.14 2252.86 4731.35 2266.1 4705.56C2211.84 4649.72 2173.27 4585.93 2142.63 4516.05C2139.19 4507.58 2132.45 4501.25 2127.24 4493.61" stroke="#0014C8" stroke-miterlimit="10" stroke-linecap="round" stroke-linejoin="round"/>
<path d="M1317.63 1878.75C1317.21 1862.92 1316.35 1847.31 1317.04 1831.56C1318.28 1805.47 1316.24 1802.27 1289.94 1796.8C1257.84 1824.9 1225.07 1852.73 1190.98 1882.35C1175.11 1856.57 1187.9 1812.6 1141.1 1820.9C1148.71 1788.85 1137.36 1752.05 1167.22 1739.83C1172.49 1716.59 1176.7 1698.01 1180.47 1679.62" stroke="#0014C8" stroke-miterlimit="10" stroke-linecap="round" stroke-linejoin="round"/>
<path d="M1482.25 3826.1C1473.5 3837.32 1464.96 3847.85 1459.49 3854.57C1463.89 3868.53 1471.13 3879.37 1468.75 3884.64C1455.12 3914.17 1453.04 3944.21 1463.45 3976.72C1465.29 3981.79 1463.36 3988.03 1463.02 3996.49C1449.15 3988.76 1441.76 3984.51 1430.12 3978.1C1428.53 3993.09 1427.79 4005.3 1426.61 4017.72" stroke="#0014C8" stroke-miterlimit="10" stroke-linecap="round" stroke-linejoin="round"/>
<path d="M2813.92 4572.06C2797.17 4565.09 2780.41 4558.11 2761.87 4550.78C2756.77 4569.79 2751.23 4589 2745.92 4608.69C2744.12 4607.16 2742.1 4605.15 2740.3 4603.62C2727.57 4616.7 2714.61 4629.31 2700.78 4643.5C2721.95 4665.62 2739.51 4683.49 2755.27 4699.83C2752.52 4729.6 2717.17 4746.18 2743.83 4781.14C2711.49 4790.37 2715.96 4828.62 2695.75 4847.59" stroke="#0014C8" stroke-miterlimit="10" stroke-linecap="round" stroke-linejoin="round"/>
<path d="M2702.65 4650.96C2676.25 4672.83 2649.4 4694.91 2622.79 4717.48C2623.79 4726.5 2624.78 4734.35 2626.03 4746.22C2623.38 4747.46 2617.66 4752.51 2612.99 4751.74C2585.82 4747.86 2560.38 4739.62 2546.67 4709.26C2503.46 4702.22 2466.54 4682.15 2438.07 4644.48C2436.48 4642.25 2433.13 4640.86 2430.22 4639.25" stroke="#0014C8" stroke-miterlimit="10" stroke-linecap="round" stroke-linejoin="round"/>
<path d="M2451.08 5890.15C2444.81 5868.76 2437.88 5847.1 2431.15 5824.74C2438.29 5808.93 2446.51 5790.83 2456.67 5767.68C2469.88 5756.74 2476.84 5780.77 2488.69 5786.49" stroke="#0014C8" stroke-miterlimit="10" stroke-linecap="round" stroke-linejoin="round"/>
<path d="M2871.19 4981.25C2882.24 4976.07 2893.29 4970.89 2904.78 4965.5C2910.02 4939.9 2899.12 4921.28 2882.52 4908.89C2884.54 4892.52 2889.47 4877.75 2887.95 4863.03C2886.91 4850.47 2872.32 4838.92 2885.42 4819.73C2914.07 4835.96 2943.83 4852.26 2972.92 4868.29C2980.24 4920.63 3010.82 4967.4 3004.73 5014.16C3039.78 5026.8 3074.83 5039.43 3109.88 5052.07C3108.16 5056.44 3106.65 5060.12 3104.92 5064.48C3113.11 5061.24 3121.29 5058 3129.92 5054.55" stroke="#0014C8" stroke-miterlimit="10" stroke-linecap="round" stroke-linejoin="round"/>
<path d="M781.981 1363.22C789.426 1372.19 792.253 1385.1 809.32 1381.25C818.631 1379.26 830.739 1387.83 845.028 1392.99C837.719 1413.03 831.478 1429.61 823.955 1450.34C815.426 1443.66 808.053 1440.59 805.542 1435.24C791.161 1404.6 773.025 1411.92 752.083 1425.89C755.507 1433.18 759.16 1440.97 766.236 1456.04C747.314 1453.64 733.739 1452.29 717.041 1450.03C706.269 1477.63 707.061 1505.74 731.88 1535.63C725.367 1548.18 718.64 1561.42 712.128 1573.97C704.357 1574.64 697.698 1575.39 689.927 1576.07C692.253 1584.47 694.123 1591.9 696.236 1601C731.614 1603.99 764.145 1574.5 801.28 1593.87" stroke="#0014C8" stroke-miterlimit="10" stroke-linecap="round" stroke-linejoin="round"/>
<path d="M3173.22 5142.18C3181.79 5152.4 3190.59 5163.11 3198.72 5173.53C3198.09 5176.79 3197.24 5179.57 3196.61 5182.83C3183.55 5187.17 3169.82 5191.24 3155.65 5195.51C3153.43 5178.15 3152.63 5167.26 3151.13 5153.72C3155.98 5150.26 3162.81 5145.28 3169.19 5140.5" stroke="#0014C8" stroke-miterlimit="10" stroke-linecap="round" stroke-linejoin="round"/>
<path d="M3420.3 5260.67C3418.4 5250.88 3416.27 5240.61 3414.35 5228.46C3424.38 5213.08 3456.66 5217.52 3452.72 5186.15C3429.51 5160.84 3405.64 5135.25 3384.92 5112.93C3381.99 5091.75 3379.1 5074.12 3376.64 5055.1C3361.92 5050.14 3347.86 5045.46 3338.93 5042.53C3315.23 5012.71 3295.13 4987.13 3274.14 4960.78C3265.06 4963.26 3255.53 4965.94 3246.24 4969.12" stroke="#0014C8" stroke-miterlimit="10" stroke-linecap="round" stroke-linejoin="round"/>
<path d="M3436.05 5277.02C3412.78 5246.99 3381.73 5252.06 3351.68 5248.94C3342.16 5233.23 3333.07 5217.32 3323.77 5202.1C3309.26 5197.63 3295.43 5193.43 3281.6 5189.24" stroke="#0014C8" stroke-miterlimit="10" stroke-linecap="round" stroke-linejoin="round"/>
<path d="M2787.46 3314.92C2802.01 3322.93 2816.56 3330.95 2831.1 3338.96C2831.71 3334.52 2832.55 3330.57 2833.17 3326.13C2842.51 3326.49 2852.49 3324.78 2860.76 3328.62C2865.68 3331.06 2870.49 3342.45 2870.57 3349.53C2871.65 3364.45 2859.47 3368.38 2849.06 3371.48C2841.53 3373.82 2832.84 3371.37 2824.84 3371.56" stroke="#0014C8" stroke-miterlimit="10" stroke-linecap="round" stroke-linejoin="round"/>
<path d="M2834.94 1744.28C2835.95 1771.69 2836.73 1798.62 2838.17 1825.83C2839.23 1839.57 2831.75 1845.45 2821.78 1848.34C2808.05 1852.41 2799.03 1841.22 2795.34 1831.08C2788.68 1813.43 2783.77 1793.78 2782.42 1774.84C2780.49 1744.3 2808.29 1727.7 2833.8 1741.85" stroke="#0014C8" stroke-miterlimit="10" stroke-linecap="round" stroke-linejoin="round"/>
<path d="M2780.79 5041.46C2777.72 5026.88 2774.88 5012.79 2771.56 4996.54C2800.43 4976.48 2779.15 4944.93 2778.58 4917.31C2778.22 4887.82 2757.97 4867.65 2741.02 4845.33C2713.49 4847.56 2684.63 4850.41 2652.66 4853.53C2649.71 4830 2647.7 4811.95 2644.73 4787.24C2632.43 4798.94 2622.76 4808.22 2613.97 4815.9C2603.92 4811.72 2593.63 4807.05 2577.78 4800.83C2579.88 4827.14 2581.23 4846.09 2582.56 4863.86C2562.06 4877.62 2544.45 4891.81 2541.89 4918.52" stroke="#0014C8" stroke-miterlimit="10" stroke-linecap="round" stroke-linejoin="round"/>
<path d="M2995.04 4659.18C2995.38 4669.11 2995.06 4678.75 2995.22 4691.73C2973.28 4696.68 2956.32 4709.96 2945.04 4731.87C2940.71 4741.02 2928.76 4745.43 2922.81 4750C2926.29 4779.23 2929.3 4807.48 2932.55 4836.21" stroke="#0014C8" stroke-miterlimit="10" stroke-linecap="round" stroke-linejoin="round"/>
<path d="M3545.42 3131.56C3552.16 3137.89 3558.47 3144.42 3567.01 3152.28C3570.54 3150.63 3577.17 3147.52 3583.8 3144.41C3582.23 3143.37 3581.34 3142.6 3579.77 3141.56C3587.21 3132.13 3593.23 3116.26 3602.12 3115.65C3615.88 3113.95 3624.93 3127.5 3626.69 3143.88C3628.47 3161.44 3632.9 3178.94 3635.56 3196.09C3606.79 3206.01 3579.13 3216.02 3548.15 3226.98C3543.13 3216.28 3537.88 3205.1 3532.63 3193.91C3533.95 3193.29 3535.28 3192.67 3536.61 3192.05C3529.42 3185.93 3522.23 3179.8 3514.81 3173.2C3516.47 3162.93 3518.13 3153.84 3519.35 3144.96C3484.39 3121.01 3479.48 3101.36 3501.13 3072.82C3531.37 3074.06 3540.2 3087.13 3538.5 3129.46" stroke="#0014C8" stroke-miterlimit="10" stroke-linecap="round" stroke-linejoin="round"/>
<path d="M2869.22 5275.84C2819.46 5259.43 2774.47 5233.65 2740.5 5183.12C2742.8 5170.78 2745.72 5155.17 2748.19 5139.77C2768.52 5130.24 2788.41 5120.91 2808.3 5111.59" stroke="#0014C8" stroke-miterlimit="10" stroke-linecap="round" stroke-linejoin="round"/>
<path d="M3168.08 5085.28C3158.27 5082.76 3148.46 5080.24 3139.09 5077.52C3132.71 5046.69 3131.23 5017.13 3100.13 5000.26C3090.06 4994.9 3086.69 4973.93 3078.7 4956.91C3052.82 4948.88 3024.49 4940.21 2996.6 4931.33" stroke="#0014C8" stroke-miterlimit="10" stroke-linecap="round" stroke-linejoin="round"/>
<path d="M2759.61 5766.22C2762.84 5775.39 2765.85 5785.25 2769.99 5796.36C2766.08 5804.13 2761.54 5813.97 2757.22 5824.3C2749.88 5823.59 2742.75 5822.19 2733.39 5820.64C2723.68 5843.59 2694.91 5853.52 2700.01 5888.51C2709.85 5893.39 2720.36 5898.54 2732.21 5904.26C2732.62 5920.08 2733.26 5935.21 2733.67 5951.04" stroke="#0014C8" stroke-miterlimit="10" stroke-linecap="round" stroke-linejoin="round"/>
<path d="M3454.94 5185.1C3462.57 5172.62 3471.09 5160.91 3477.82 5147.67C3490.83 5121.4 3491.48 5120.5 3518.51 5113.76C3527.06 5086.02 3522.34 5063.32 3497.19 5043.07C3485.3 5033.81 3478.86 5016.66 3470.48 5003.39C3471.79 5001.59 3473.1 4999.78 3474.41 4997.98C3463.06 4996.78 3451.27 4995.78 3437.69 4994.43C3434.76 4990.47 3430.22 4983.1 3425.91 4976.22C3401 4974.85 3377.21 4973.55 3352.97 4972.45" stroke="#0014C8" stroke-miterlimit="10" stroke-linecap="round" stroke-linejoin="round"/>
<path d="M1288.98 3287.88C1303.13 3318.03 1330.22 3334.4 1352.71 3355.89C1361.48 3364.24 1366.75 3376.6 1373.55 3387.65" stroke="#0014C8" stroke-miterlimit="10" stroke-linecap="round" stroke-linejoin="round"/>
<path d="M3229.73 5492.41C3225.93 5508.44 3222.13 5524.46 3218.31 5539.3C3193.23 5542.16 3172.58 5544.13 3155.71 5546.11C3140.42 5531.91 3128.72 5520.78 3116.59 5509.86C3104.45 5498.94 3092.08 5487.53 3079.5 5476.81C3065.8 5464.85 3052.63 5460.93 3034.71 5467.55C2995.1 5481.97 2976.36 5512.12 2970.44 5554.65" stroke="#0014C8" stroke-miterlimit="10" stroke-linecap="round" stroke-linejoin="round"/>
<path d="M2573.78 5927.54C2569.13 5875.14 2531.98 5836.19 2513.84 5789.52C2512.24 5786.12 2502.9 5785.75 2494.88 5783.58C2490.2 5818.4 2485.5 5852.05 2481.02 5885" stroke="#0014C8" stroke-miterlimit="10" stroke-linecap="round" stroke-linejoin="round"/>
<path d="M3016.02 5284.12C3013.1 5299.73 3010.41 5315.82 3007.49 5331.43C2995.43 5344.8 2967.11 5337.31 2965.92 5366.94" stroke="#0014C8" stroke-miterlimit="10" stroke-linecap="round" stroke-linejoin="round"/>
<path d="M2806.59 5061.95C2797.56 5086.36 2800.84 5100.24 2819.51 5118.19C2834.13 5132.1 2847.86 5146.43 2866.77 5166.04C2892.94 5179.28 2927.14 5194.69 2960.48 5212.88C2979.94 5223.33 2981.33 5227.43 2982.9 5246.86C2995.49 5258.76 3006.73 5268.91 3022.02 5283.1C3034.97 5287.71 3053.26 5293.37 3071.78 5299.52" stroke="#0014C8" stroke-miterlimit="10" stroke-linecap="round" stroke-linejoin="round"/>
<path d="M2842.96 5036.02C2846.42 5028.47 2849.43 5019.94 2854.02 5013.63C2859.26 5006.43 2866.53 5001.24 2875.54 4992.86C2864.2 4974.45 2853.54 4957.49 2843.1 4939.84C2822.88 4940.42 2803.78 4941.07 2785.12 4941.52" stroke="#0014C8" stroke-miterlimit="10" stroke-linecap="round" stroke-linejoin="round"/>
<path d="M3068.83 5149.6C3077.16 5176.54 3085.5 5203.49 3092.72 5230.36C3094.59 5237.79 3095.15 5247.02 3092.78 5253.47C3087.64 5268.93 3080.48 5283.56 3074 5298.46C3077.04 5310.68 3079.87 5323.59 3083.62 5339.63C3118.67 5352.27 3153.69 5344.16 3189 5342.43" stroke="#0014C8" stroke-miterlimit="10" stroke-linecap="round" stroke-linejoin="round"/>
<path d="M2834.88 3375.74C2839.83 3380.54 2844.55 3384.86 2849.5 3389.66C2842.27 3415.6 2837.63 3418.36 2814.22 3412.13C2799.94 3408.15 2785 3403.88 2770.72 3399.89" stroke="#0014C8" stroke-miterlimit="10" stroke-linecap="round" stroke-linejoin="round"/>
<path d="M2661.13 4981.87C2653.96 4976.93 2646.12 4971.71 2638.27 4966.48C2639.95 4958.58 2641.43 4952.54 2643.53 4942.07C2622.82 4939.32 2603.9 4936.92 2584.75 4934.03" stroke="#0014C8" stroke-miterlimit="10" stroke-linecap="round" stroke-linejoin="round"/>
<path d="M3290.1 5339.51C3272.78 5340.51 3263.58 5351.94 3252.85 5364.69C3244.97 5374.32 3230.56 5378.1 3219.53 5384.47" stroke="#0014C8" stroke-miterlimit="10" stroke-linecap="round" stroke-linejoin="round"/>
<path d="M2285.53 4440.15C2292.12 4451.9 2298.48 4463.15 2305.51 4474.69C2304.63 4475.1 2303.07 4475.24 2302.19 4475.65C2315.68 4488.31 2329.61 4500.76 2343.77 4513.7C2344.39 4527.65 2344.78 4541.11 2345.17 4554.57" stroke="#0014C8" stroke-miterlimit="10" stroke-linecap="round" stroke-linejoin="round"/>
<path d="M2604.58 5447.38C2618.63 5450.88 2632.45 5453.9 2645.82 5457.12C2653.17 5476.22 2659.36 5491.71 2665.34 5507.89" stroke="#0014C8" stroke-miterlimit="10" stroke-linecap="round" stroke-linejoin="round"/>
<path d="M2698.53 5860.13C2688.97 5859.28 2679.4 5858.42 2674.51 5858.34C2659.92 5865.18 2649.31 5870.15 2638.7 5875.13C2638.04 5893.24 2637.6 5911.84 2636.72 5930.64" stroke="#0014C8" stroke-miterlimit="10" stroke-linecap="round" stroke-linejoin="round"/>
<path d="M3554.43 4960.46C3547.97 4977.73 3562.06 4984.77 3571.69 4990.34C3596.77 5005.87 3613.24 5026.03 3613.41 5057.39" stroke="#0014C8" stroke-miterlimit="10" stroke-linecap="round" stroke-linejoin="round"/>
<path d="M2632.02 5873.53C2610.01 5855.37 2588.23 5837.69 2567.79 5820.58C2544.74 5843.84 2523.89 5864.9 2503.26 5886.43" stroke="#0014C8" stroke-miterlimit="10" stroke-linecap="round" stroke-linejoin="round"/>
<path d="M3242.1 5231.51C3219.73 5219.45 3197.85 5211.91 3176.28 5229.14C3172.32 5232.19 3163.83 5229.04 3157.61 5229.59C3136.51 5230.58 3115.42 5232.75 3097.8 5245.76" stroke="#0014C8" stroke-miterlimit="10" stroke-linecap="round" stroke-linejoin="round"/>
<path d="M2532.32 5718.57C2530.86 5744.17 2540.77 5773.34 2518.79 5793.14" stroke="#0014C8" stroke-miterlimit="10" stroke-linecap="round" stroke-linejoin="round"/>
<path d="M3104.65 5352.31C3094.02 5373.31 3077.15 5392.5 3091.06 5420.98" stroke="#0014C8" stroke-miterlimit="10" stroke-linecap="round" stroke-linejoin="round"/>
<path d="M2679.69 5136.3C2698.11 5152.58 2716.31 5168.37 2734.74 5184.65" stroke="#0014C8" stroke-miterlimit="10" stroke-linecap="round" stroke-linejoin="round"/>
<path d="M3171.01 5235.17C3164 5261.59 3184.85 5276.14 3197.1 5296.5C3195.49 5310.3 3193.69 5325.98 3191.88 5341.66C3198.91 5353.2 3206.4 5365.7 3213.89 5378.21C3224.4 5401.76 3211.52 5420.26 3205.34 5441.55" stroke="#0014C8" stroke-miterlimit="10" stroke-linecap="round" stroke-linejoin="round"/>
<path d="M3120.71 4938.4C3116.77 4961.02 3113.27 4983.42 3109.32 5006.04" stroke="#0014C8" stroke-miterlimit="10" stroke-linecap="round" stroke-linejoin="round"/>
<path d="M2969.73 5133.78C2961.99 5155.21 2953.81 5176.85 2946.08 5198.27" stroke="#0014C8" stroke-miterlimit="10" stroke-linecap="round" stroke-linejoin="round"/>
<path d="M2600.57 4755.17C2600.98 4770.99 2600.73 4786.54 2601.15 4802.36" stroke="#0014C8" stroke-miterlimit="10" stroke-linecap="round" stroke-linejoin="round"/>
<path d="M3264.08 4301.66C3263.27 4307.97 3262.9 4314.08 3262.09 4320.39" stroke="#0014C8" stroke-miterlimit="10" stroke-linecap="round" stroke-linejoin="round"/>
<path d="M2315.82 5917.98C2311.12 5916.02 2307.1 5914.35 2302.41 5912.4" stroke="#0014C8" stroke-miterlimit="10" stroke-linecap="round" stroke-linejoin="round"/>
</svg>
