<svg width="3642" height="4388" viewBox="0 0 3642 4388" fill="none" xmlns="http://www.w3.org/2000/svg">
<path d="M2383.37 2308.56C2389.67 2328.97 2395.47 2349.19 2401.76 2369.59C2411.12 2400.03 2420.82 2430.31 2430.18 2460.75C2431.26 2463.93 2431.34 2467.58 2430.76 2470.72C2423.06 2506.7 2415.2 2542.35 2407.34 2578C2405.85 2584.43 2405.35 2591.22 2404.35 2597.84C2402.25 2609.07 2400.14 2620.3 2397.7 2631.69C2394.7 2645.39 2390.04 2659.05 2388.86 2673.12C2387.13 2689.51 2377.13 2697.89 2363.55 2703.02C2351.82 2707.71 2339.64 2710.56 2327.61 2713.74C2298.36 2722.14 2276.86 2706 2251.88 2689.45C2255.5 2684.06 2257.97 2677.98 2262.36 2675.1C2270.62 2670 2279.55 2664.58 2289.23 2662.5C2311.58 2657.75 2327 2645.19 2334.82 2624.31C2350.83 2581.56 2363.04 2537.73 2365.03 2491.31C2365.88 2470.42 2372.39 2449.34 2369.57 2429.36C2366.36 2405.05 2357.17 2381.09 2348.62 2357.65C2342.25 2340.56 2340.8 2325.26 2350.99 2309.41C2359.28 2296.51 2370.59 2295.3 2384.26 2306.1" stroke="#EFEFEF" stroke-miterlimit="10" stroke-linecap="round" stroke-linejoin="round"/>
<path d="M675.856 2114.89C686.097 2103.53 696.16 2092.66 706.736 2081.14C709.834 2083.38 715.87 2087.51 721.098 2090.8C730.091 2082.89 738.413 2075.3 746.734 2067.71C748.707 2068.42 750.345 2069.29 752.319 2070C750.362 2055.35 749.57 2040.56 746.941 2026.22C742.115 2000.22 757.203 1980.85 766.863 1959.51C770.031 1952.29 777.009 1945.33 776.523 1938.18C775.445 1914.92 785.201 1896.41 799.953 1877.2C806.566 1878.2 814.008 1879.21 821.944 1880.41C829.05 1881.58 836.157 1882.75 845.257 1883.81C859.785 1853.64 874.293 1824.3 888.642 1794.62C887.656 1794.26 886.511 1793.57 885.524 1793.21C890.562 1790.85 895.599 1788.49 903.324 1784.86C931.053 1810.78 965.117 1822.25 1006.29 1814.82C1011.57 1809.47 1017.88 1802.83 1025.03 1795.37C1027.12 1798.08 1031.52 1801.34 1030.99 1802.82C1026.91 1813.34 1024.9 1827.4 1016.62 1833.33C1004.11 1842.48 1002.52 1853.06 1001.2 1865.97C999.617 1882.69 1005.82 1893.3 1023.15 1897.05C1022.69 1902.19 1022.08 1906.98 1021.79 1911.62C1025.95 1917.87 1030.45 1923.95 1035.1 1930.37C1028.24 1939.33 1027.04 1947.27 1030.07 1958.96C1035.18 1980.33 1025.2 2000.99 1015.07 2021.31C1006.03 2017.77 997.822 2014.24 987.303 2010.16C969.384 2036.6 937.587 2027.34 911.338 2035.15C884.596 2042.78 860.375 2055.78 846.191 2078.82C826.646 2110.53 811.836 2145.34 794.087 2178.25C786.943 2191.85 777.668 2204.39 769.537 2217.63C778.609 2226.49 785.235 2233.62 793.004 2241.45C810.29 2233.75 823.109 2245.35 835.415 2257.61C850.797 2272.93 865.151 2289.55 882.075 2302.92C889.887 2309.09 902.661 2309.24 913.536 2312.33C909.942 2363.19 895.293 2378.26 854.827 2370.61C844.976 2386.29 834.947 2402.47 824.917 2418.65C807.284 2420.37 789.829 2421.59 771.702 2423.13C760.707 2438.12 761.615 2454.9 767.224 2469.48C778.307 2497.47 792.569 2524.38 805.646 2552.25C816.31 2550.53 825.473 2549.1 835.308 2547.35C847.489 2564.58 859.848 2581.32 873.153 2600.07C872.544 2631.09 871.715 2664.26 871.043 2697.77C877.279 2700.58 883.179 2703.55 890.401 2706.71C894.535 2700.68 897.976 2695.78 901.438 2690.06C919.996 2691.19 938.376 2692.81 956.598 2694.1" stroke="#EFEFEF" stroke-miterlimit="10" stroke-linecap="round" stroke-linejoin="round"/>
<path d="M1339.24 462.844C1332.64 467.989 1326.53 473.313 1319.77 478.122C1308.29 485.967 1286.77 483.77 1276.73 473.728C1269.77 466.75 1262.99 459.278 1255.06 451.115C1247.34 454.739 1240.29 458.047 1233.91 461.041C1228.94 467.057 1225.08 475.424 1218.32 480.233C1205.84 488.55 1192.74 494.695 1177.63 481.705C1160.25 466.501 1141.48 467.525 1123.02 482.331C1111.34 491.498 1097.26 490.316 1083.29 484.989C1047.14 470.809 1013.85 488.065 976.523 494.102C1041.44 546.007 1101.02 598.774 1165.61 643.867C1194.31 664.001 1230.25 680.332 1270.76 666.244C1283.14 662.073 1299.25 668.449 1313.82 669.809C1314.11 671.31 1314.07 672.969 1314.37 674.47C1318.1 671.078 1321.84 667.687 1325.41 663.959C1342.95 646.309 1365.99 647.383 1388.12 644.783C1423.23 641.015 1458.79 639.082 1493.79 633.319C1512.45 630.301 1530.9 622.465 1549.15 615.951C1558.87 612.212 1567.18 611.59 1576.83 617.307C1590.72 625.952 1605.66 632.465 1619.9 640.123C1624.89 633.278 1629.54 626.59 1634.52 619.745C1635.66 620.437 1637.3 621.308 1638.45 622C1639.08 636.454 1625.96 643.427 1617.18 656.152C1606.5 651.736 1596.16 647.163 1586.47 643.104C1577.28 639.223 1569.12 640.181 1562.28 648.307" stroke="#EFEFEF" stroke-miterlimit="10" stroke-linecap="round" stroke-linejoin="round"/>
<path d="M2256.01 2989.09C2252.11 2992.15 2246.4 2994.82 2244.64 2998.93C2234.96 3021.09 2217.07 3026.62 2195.01 3025.9C2192.56 3031.15 2189.43 3036.71 2186.8 3042.45C2195.47 3053.96 2203.81 3065.61 2212.49 3077.12C2212.84 3076.13 2213.36 3075.48 2213.71 3074.49C2232.49 3086.58 2251.12 3098.33 2272.03 3111.46C2268.25 3116.51 2266.02 3119.61 2262.76 3124.01C2240.29 3119.8 2220.1 3130.91 2200.95 3146.86C2200.64 3179.37 2187.75 3190.34 2164.51 3177.48C2171.57 3147.12 2172.07 3147.3 2156.17 3132.63C2151.72 3137.99 2146.94 3143.52 2142.98 3149.06C2133.03 3161.92 2137 3182.6 2117.54 3190.91C2114.52 3192.32 2114.68 3205.77 2116.15 3213.27C2117.94 3221.45 2123.06 3228.88 2126.37 3235.93C2114.23 3250.23 2103.08 3264.89 2090.8 3278.02C2079.71 3290.19 2064.74 3291.48 2047.71 3289.23C2047.63 3285.57 2046.41 3281.23 2048.15 3277.95C2053.42 3266.47 2047.8 3258.86 2041.22 3250.07C2032.54 3238.57 2025.55 3226.28 2016.45 3212.11C2023.2 3207.3 2029.96 3202.49 2038.06 3197.05C2034.35 3179.53 2027.93 3164.11 2005.29 3160.39C1987.11 3157.44 1978.12 3145.27 1972.28 3126.7C1962.45 3095.26 1944.55 3067.6 1920.23 3044.59" stroke="#EFEFEF" stroke-miterlimit="10" stroke-linecap="round" stroke-linejoin="round"/>
<path d="M2017.92 2389.87C2027.95 2399.92 2038.33 2409.8 2049.17 2420.69C2063.62 2406.95 2075.52 2395.63 2088.61 2383.34C2092.06 2384.59 2097 2386.37 2101.93 2388.16C2101.94 2414.38 2098.36 2438.18 2079.95 2457.47C2064.43 2461.07 2048.23 2464.98 2030.72 2468.69C2018.73 2483.32 2011.42 2503.55 1989.46 2512.63C1975.04 2518.57 1965.53 2514.02 1958.98 2503.57C1943.67 2478.79 1925.11 2464.55 1894.61 2476.4C1892.26 2477.51 1889.62 2477.11 1887.29 2477.38C1886.69 2481.35 1886.27 2484.82 1885.12 2491.1C1895.29 2489.2 1904.47 2486.94 1913.46 2486C1935.41 2483.89 1948.9 2495.18 1947.87 2516.57C1947.37 2523.36 1942.35 2531.86 1936.77 2535.7C1924.78 2544.2 1910.85 2550.32 1898.07 2557.14C1894.42 2570.32 1890.95 2583.02 1887.3 2596.2C1885.83 2601.81 1883.87 2607.23 1882.74 2612.68C1875 2650.32 1887.18 2667.55 1929.93 2676.59C1922.7 2667.28 1917.75 2659.36 1911.28 2652.56C1901.92 2642.2 1900.06 2630.37 1905.83 2618.24C1917.57 2593.47 1930.45 2569.4 1942.84 2545.15C1958.64 2543.88 1971.61 2542.72 1982.26 2541.82C2009.21 2518.93 2034 2496.65 2060.56 2476.4C2068.35 2470.29 2080.8 2469.77 2093.68 2465.78C2109.44 2446.09 2112.96 2411.67 2150.97 2404.48C2158.59 2411.98 2169.32 2420.87 2178.19 2431.05C2184.48 2438.35 2182.77 2446.93 2178.06 2456.11C2165.49 2480.85 2151.78 2504.9 2150.23 2533.9C2149.4 2546.99 2142.01 2557.43 2124.17 2560.47C2113.85 2562.04 2105.32 2577.92 2096.75 2588.49C2092.31 2593.86 2090.46 2601.28 2086.96 2608.66C2080.23 2605.67 2073.5 2602.68 2067.26 2599.87" stroke="#EFEFEF" stroke-miterlimit="10" stroke-linecap="round" stroke-linejoin="round"/>
<path d="M2130.02 437.001C2124.02 451.288 2137.46 458.096 2142.52 468.014C2146.48 475.58 2153.89 484.395 2153.06 491.344C2142.89 559.626 2134.87 628.128 2111.16 693.748C2102.96 716.444 2065.42 770.932 2046.58 787.554C2021.53 787.426 2012.52 769.112 2004.24 748.825C1996.85 752.292 1989.46 755.758 1979.38 760.484C1983.28 770.539 1987.65 781.601 1991.53 792.484C1996.01 805.54 2000.38 816.602 1984 827.975C1972.34 836.313 1967.58 854.116 1958.8 866.84C1950.69 879.25 1941.44 890.966 1933.53 902.053C1910.23 884.71 1889.54 869.423 1868.19 853.623C1854.96 871.712 1844.24 889.035 1830.76 903.965C1821.72 913.53 1809.63 919.202 1794.39 918.157C1777 916.892 1769.61 907.249 1764.49 892.849C1757.8 875.091 1746.26 865.344 1728.11 867.711C1718.46 868.963 1705.5 876.273 1701.82 884.146C1693.38 902.854 1690.04 923.68 1684.55 944.286C1678.61 942.976 1671.18 941.131 1663.43 939.443C1659.69 942.835 1656.11 946.562 1651.53 950.762C1644.96 948.108 1638.72 945.298 1632.15 942.644C1614.66 951.666 1614.66 951.666 1576.77 940.762C1567.16 953.465 1557.55 966.169 1547.09 979.681C1556.49 995.349 1541.82 1011.25 1542.03 1029.17C1532.12 1027.27 1523.04 1025.38 1511.65 1022.94C1510.89 1033.54 1509.95 1044.63 1509.3 1057.23C1491.81 1073.22 1470.5 1075.84 1448.26 1069.48C1431.78 1064.92 1416.05 1056.72 1398.69 1060.77C1388.01 1063.32 1378.39 1069.89 1366.63 1075.4C1369.31 1081.11 1372.78 1088.5 1376.56 1096.56C1353.1 1112.07 1362.42 1131.06 1368.58 1150.29C1371.19 1158.49 1371.64 1167.3 1373.54 1177.47C1352.83 1176.12 1336.6 1174.72 1320.04 1173.47C1315.35 1181.82 1311.17 1189.52 1307.53 1195.73C1275.94 1211.37 1245.97 1195.52 1214.03 1192.07C1213.86 1198.7 1213.6 1202.51 1213.48 1207.49C1204.37 1213.4 1194.23 1220.61 1182.59 1228.12C1184.52 1237.46 1186.13 1246.13 1188.01 1257.13C1179.63 1260.24 1170.41 1264.16 1160.35 1268.06C1159.78 1284.3 1159.37 1300.89 1159.03 1321.13C1138.21 1330.89 1115.37 1341.61 1089.85 1353.58C1087.72 1352.53 1082.15 1349.41 1076.09 1346.1C1069.02 1350.24 1061.61 1354.54 1052.19 1359.78C1042.87 1353.9 1032.08 1347.49 1022.28 1341.44C1002.68 1348.58 983.917 1355.75 966.002 1362.1C959.563 1380.69 950.952 1399.89 946.13 1420.19C943.174 1432.23 949.791 1446.33 946.341 1458.19C937.796 1488.02 953.56 1514.63 954.335 1543.36C954.389 1547.84 960.028 1554.62 964.626 1556.56C977.926 1562.2 979.987 1572.71 982.657 1585.39C986.074 1601.4 991.957 1618.31 1000.41 1631.96C1011.27 1649 1012.69 1665.13 1005.11 1683.03" stroke="#EFEFEF" stroke-miterlimit="10" stroke-linecap="round" stroke-linejoin="round"/>
<path d="M875.057 1216.28C856.143 1216.14 836.735 1215.82 816.655 1215.82C815.652 1229.4 814.827 1242.49 813.488 1256.23C807.704 1255.26 801.92 1254.28 795.485 1252.79C770.505 1289.51 740.715 1319.46 691.078 1320.21C679.813 1312.8 677.425 1295.48 660.766 1291.41C646.909 1288.08 635.835 1286.31 625.217 1299.48C618.534 1307.95 607.293 1312.81 597.156 1320.02C598.711 1324.21 599.731 1329.88 602.807 1332.94C625.308 1355.58 623.219 1386.06 627.017 1413.37C628.857 1426.03 633.866 1431.46 642.411 1434.83C685.431 1453.16 728.787 1471.34 772.164 1488.69C792.214 1496.49 806.041 1507.62 804.454 1531.31C804.213 1534.29 804.939 1538.46 806.713 1540.5C831.797 1566.02 824.396 1596.53 817.037 1625.39C812.613 1643.03 800.768 1658.84 795.009 1670.14C774.738 1664.49 758.751 1660.11 743.75 1656.08C717.709 1688.79 683.673 1702.71 644.26 1706.03C641.889 1707.97 638.037 1709.36 637.303 1712.17C623.659 1746.84 600.043 1782.1 643.046 1814.37C616.175 1847.05 657.01 1859.86 659.485 1886.97C656.044 1891.86 651.533 1899.71 646.214 1906.71C624.264 1935.04 623.215 1970.36 616.088 2003.21C614.401 2010.96 618.97 2020.7 621.586 2028.9C627.763 2047.31 633.112 2065.7 641.305 2083.16C645.716 2092.56 652.732 2104.02 661.256 2108.22C681.601 2117.52 688.094 2136.6 699.309 2152.65C705.557 2161.6 709.434 2172.48 713.489 2182.87C715.201 2187.4 717.701 2193.6 716.275 2197.55C701.162 2237.83 722.573 2264.25 749.336 2288.98C763.474 2287.68 778.442 2286.39 793.745 2284.95C814.442 2313.34 834.331 2340.89 854.22 2368.44" stroke="#EFEFEF" stroke-miterlimit="10" stroke-linecap="round" stroke-linejoin="round"/>
<path d="M2584.05 3408.84C2551.31 3410.68 2518.73 3412.85 2482.5 3415.1C2479.49 3402.58 2476.31 3390.55 2473.01 3376.53C2450.65 3368.17 2413.87 3378.87 2408.9 3338.58C2399.55 3334.37 2391.52 3330.35 2383.65 3326.67C2382.51 3305.89 2402.67 3282.5 2427.08 3275.15C2447.98 3269.03 2460.48 3253.74 2457.6 3236.25C2456.28 3229.08 2452.3 3222.34 2448.7 3213.79C2467.4 3209.11 2483.26 3205.36 2503.46 3200.39C2512.52 3176.88 2522.64 3150.42 2533.13 3122.14C2547.67 3118.19 2565.05 3113.31 2584.11 3107.65C2585.56 3102.87 2587.4 3095.45 2589.4 3088.36C2581.05 3090.65 2570.7 3093.04 2560.17 3095.93C2534.6 3103.42 2507.68 3104.58 2482.26 3099.29C2449.08 3092.32 2426.52 3072.18 2421.45 3036.04C2420.6 3029.88 2418.93 3023.7 2417.15 3015.52C2480.86 2962.68 2558.63 2952.02 2633.83 2950.74C2641.86 2941.65 2645.7 2934.11 2652.44 2930.13C2661.55 2924.22 2666.34 2931.81 2671.12 2939.4C2686.14 2962.67 2701.85 2984.8 2706.12 3013.12C2709.26 3033.78 2700.97 3046.68 2685.59 3057.58C2678.16 3062.7 2671.07 3067.67 2662.63 3073.27C2663.85 3077.61 2664.42 3081.44 2665.82 3085.3C2670.36 3102.83 2672.16 3117.15 2656.8 3134.19C2643.31 3149.12 2641.19 3174.29 2633.05 3194.5C2626.32 3211.59 2617.61 3227.97 2609.4 3244.52C2606.94 3249.77 2601.82 3255.45 2602.71 3259.96C2607.07 3277.99 2598.03 3287.55 2584.06 3295.33C2575.98 3299.94 2568.85 3306.57 2560.05 3313.15C2567.91 3350.85 2578.74 3388.8 2597.61 3423.78C2598.94 3423.98 2600.44 3423.69 2601.76 3423.89C2599.52 3433.96 2598.75 3444.56 2594.54 3453.91C2587.17 3469.66 2571.85 3471.93 2557.17 3461.61C2548.53 3455.42 2539.54 3450.21 2527.93 3442.95C2524.01 3453.81 2520.65 3462.35 2517.64 3469.91C2521.99 3474.83 2525.07 3477.9 2527.63 3481.61C2529.88 3484.65 2530.78 3488.33 2533.93 3495.04C2543 3490.79 2551.73 3486.69 2560.8 3482.44" stroke="#EFEFEF" stroke-miterlimit="10" stroke-linecap="round" stroke-linejoin="round"/>
<path d="M1148.04 2601.28C1139.46 2599.58 1130.87 2597.87 1122.78 2596.34C1117.86 2580.62 1113.73 2566.57 1109.89 2554.03C1078.36 2554.07 1049.83 2553.53 1021.11 2554.3C1015.79 2554.33 1008.25 2557.46 1006.33 2561.23C995.839 2582.54 974.537 2598.27 974.367 2624.99C974.325 2626.65 973.455 2628.28 972.584 2629.92C965.66 2641.36 955.104 2652.05 953.135 2664.45C951.584 2673.37 962.787 2683.28 959.316 2695.97C957.67 2702.07 961.945 2710.31 964.026 2719.98C974.437 2715.1 981.49 2711.79 991.565 2707.06C998.12 2690.47 1006.24 2671.09 1013.84 2652.36C1034.66 2649.56 1052.31 2647.02 1065.68 2630.09C1071.67 2622.77 1084.17 2620.6 1094.58 2615.71C1097.39 2622.59 1099.42 2627.78 1102.08 2634.32C1110.24 2626.39 1116.86 2620.42 1123.33 2614.11C1130.97 2613.8 1138.12 2613.32 1146.25 2613.19C1149.22 2607.29 1152.68 2601.57 1155.65 2595.67C1166.81 2574.04 1171.18 2571.99 1197.63 2575.97C1217.81 2578.8 1216.4 2581.92 1224.92 2606.19C1238.83 2647.2 1235.78 2689.6 1242.3 2734.08C1254.47 2732.06 1266.47 2729.7 1280.81 2727.07C1283.02 2731.77 1285.34 2738.47 1288.85 2744.2C1298.42 2759.38 1308.49 2774.73 1321.44 2794.47C1322.76 2794.67 1328.35 2796.96 1333.84 2796.44C1364.09 2794.54 1376.08 2819.23 1393.24 2836.59C1402.63 2846.12 1409.98 2857.42 1419.48 2868.94C1414.77 2878.12 1409.55 2887.94 1403.97 2898.75C1397.69 2897.6 1392.4 2896.81 1382.49 2894.9C1383.66 2907.87 1384.71 2918.85 1386.06 2931.33C1377.54 2940.24 1368.66 2950.15 1358.6 2961.01C1350.03 2958.48 1341.96 2956.12 1332.57 2953.56C1321.56 2962.41 1310.21 2971.42 1296.83 2982.2C1293.9 2973.33 1291.42 2966.3 1289.73 2960.95C1280.23 2962.54 1270.99 2967.29 1263.07 2965.26C1224.35 2954.34 1186.2 2960.35 1147.59 2964.53C1127.63 2966.52 1107.86 2967.19 1087.76 2968.02C1083.77 2968.25 1079.33 2966.64 1071.73 2965.29C1075.99 2954.28 1079.36 2945.73 1083.26 2935.71C1072.1 2937.26 1061.12 2938.31 1047.64 2940.13C1037.08 2917.63 1025.89 2893.78 1014.24 2868.93C996.213 2866.32 977.696 2863.54 959.18 2860.75C927.773 2855.82 908.622 2838.58 905.853 2809.97C891.229 2804.12 878.223 2799.98 866.444 2793.22C861.373 2790.27 856.174 2779.19 858.251 2775.75C868.836 2757.27 861.651 2739.33 858.948 2721.34C857.695 2711.68 855.121 2701.83 868.649 2698.35" stroke="#EFEFEF" stroke-miterlimit="10" stroke-linecap="round" stroke-linejoin="round"/>
<path d="M839.295 987.21C809.969 958.764 771.991 951.177 734.39 941.773C709.816 935.683 686.531 924.48 662.67 916.416C653.454 913.364 643.345 912.78 633.751 911.544C605.641 907.522 576.419 908.119 552.471 890.262C547.264 886.149 540.638 879.014 541.098 873.881C541.998 864.444 551.339 862.521 560.262 864.071C563.894 864.826 567.924 862.935 572.09 862.21C572.936 848.291 550.775 838.61 564.561 818.211C572.256 822.386 580.801 825.753 587.311 830.894C598.198 840.127 609.065 850.19 618.075 861.534C631.106 877.956 645.311 887.273 667.803 883.686C684.964 880.962 702.672 882.899 720.6 882.683C723.597 868.984 726.06 856.766 729.792 840.264C740.426 846.338 747.964 850.177 754.652 854.825C789.234 878.756 823.639 903.181 858.557 926.955C864.594 931.089 871.995 933.763 879.081 935.765C914.845 945.621 948.312 961.061 983.952 975.891C981.531 986.451 980.022 993.715 978.67 1001.32C976.183 1001.25 973.517 1001.68 971.029 1001.62C958.578 995.171 946.463 988.562 933.519 981.932C927.864 989.093 923.751 994.3 918.946 1000.65C903.684 1000.44 888.086 1000.38 872.646 1000.66" stroke="#EFEFEF" stroke-miterlimit="10" stroke-linecap="round" stroke-linejoin="round"/>
<path d="M1275.4 934.221C1258.28 942.256 1267.54 956.759 1264.44 967.634C1249.28 1003.43 1234.29 1038.74 1219.3 1074.04C1193.77 1072.9 1176.86 1085.76 1164.03 1101.2C1160.33 1102.93 1158.81 1104.06 1158.32 1103.88C1137.64 1094.73 1121.5 1103.13 1107.52 1117.88C1088.09 1138.47 1062.35 1145.62 1036.42 1154.1C1017.34 1160.59 1000.89 1174.45 983.841 1186.14C969.988 1195.92 956.924 1207.38 939.316 1221.37C939.291 1209.09 938.669 1200.78 939.705 1192.51C942.815 1167.69 942.815 1167.69 919.804 1158.82C929.705 1134.51 927.951 1131.64 896.901 1125.72C899.02 1120.63 901.296 1115.87 903.236 1111.28C914.845 1111.57 925.961 1111.68 937.234 1112.13C939.552 1105.71 941.712 1098.96 944.365 1092.39C949.494 1079.74 948.105 1068.92 938.917 1058.07C932.628 1050.78 928.888 1041.06 924.298 1032.15C918.448 1020.55 912.693 1011.78 895.553 1013.67C886.569 1014.61 876.257 1002.24 866.294 995.849" stroke="#EFEFEF" stroke-miterlimit="10" stroke-linecap="round" stroke-linejoin="round"/>
<path d="M2448.63 3216.27C2444.69 3214.85 2440.25 3213.24 2435.81 3211.64C2434.32 3197.99 2441.95 3191.55 2453.51 3187.35C2459.87 3185.19 2466.25 3182.2 2471.98 3178.69C2484.44 3171.2 2485.36 3160.93 2477.4 3147.46C2452.39 3145.67 2425.65 3166.41 2398.98 3144.5C2437.32 3117.91 2422.69 3085.85 2404.76 3052.88C2393.02 3031.34 2373.54 3040.48 2355 3038.52C2355.09 3035.21 2355.17 3031.89 2355.47 3026.42C2330.77 3025.31 2304.75 3023.99 2275.41 3022.6C2259.82 2989.35 2244.42 2954.78 2227.5 2921.33C2222.43 2911.41 2214.23 2900.92 2205.08 2895.38C2155.87 2865.61 2111.29 2829.98 2070.47 2790.12C2063.67 2783.48 2056.79 2773.19 2056.68 2764.22C2056.59 2741.32 2060.98 2718.36 2062.21 2695.66C2062.56 2688.53 2058.6 2680.96 2056.45 2673.78" stroke="#EFEFEF" stroke-miterlimit="10" stroke-linecap="round" stroke-linejoin="round"/>
<path d="M1707.54 732.592C1724.25 728.031 1733.32 716.807 1737.72 699.991C1740.48 689.273 1744.72 679.09 1750.1 669.6C1763.5 644.877 1772.8 611.422 1757.89 577.03C1754.75 576.453 1747.15 575.102 1739.71 574.086C1733.1 573.091 1726.31 572.589 1718.03 571.553C1718.69 565.097 1719.51 558.978 1719.5 552.837C1719.19 545.196 1720.09 535.759 1716.43 529.694C1706.67 515.012 1715.21 505.269 1724.7 497.54C1741.97 483.701 1760.68 472.054 1779.43 458.75C1775.62 445.378 1772.1 433.508 1767.83 418.3C1788.37 413.171 1808.48 405.377 1829.43 403.743C1842.9 402.752 1846.85 397.209 1850.6 386.848C1855.05 374.513 1860.5 362.535 1865.45 350.378C1870.38 352.161 1874.49 353.923 1878.77 355.192C1895.43 359.259 1902.96 370.068 1903.71 386.516C1903.96 389.675 1903.03 393.801 1904.29 396.487C1916.46 420.688 1927.47 445.026 1923.94 473.315C1923.74 474.637 1926.53 476.2 1928.95 478.75C1936.27 451.552 1958.9 449.13 1980.7 446.688C2008.82 443.74 2007.38 474.737 2026.18 485.993C2029.68 485.583 2035.66 485.234 2043.64 484.77C2037.02 470.665 2031.19 458.239 2025.05 445.142C2029.61 441.771 2032.65 439.524 2035.7 437.276C2051.78 424.403 2063.55 411.919 2054.87 387.308C2051.46 377.432 2062.8 362.282 2067.07 350.44C2067.95 341.833 2066.68 333.006 2069.69 325.448C2075.75 308.672 2094.73 306.326 2105.83 320.377C2116.59 334.586 2127.02 348.952 2139.22 365.354C2149.71 357.153 2159.2 349.425 2170.03 341.066C2176.42 344.213 2183.67 346.551 2189.86 351.021C2194.26 354.284 2200.26 360.076 2199.82 364.379C2197.89 388.228 2201.89 414.216 2178.87 432.392C2169.89 439.47 2163.35 449.097 2153.8 459.313C2144.3 447.791 2137.69 439.826 2131.42 431.704" stroke="#EFEFEF" stroke-miterlimit="10" stroke-linecap="round" stroke-linejoin="round"/>
<path d="M1931.72 1821.83C1927.83 1838 1922.77 1854.3 1920.21 1870.67C1918.81 1879.92 1920.56 1889.76 1920.98 1899.39C1923.29 1899.95 1925.11 1900.33 1927.42 1900.88C1939.64 1883.27 1952.2 1865.49 1964.26 1847.54C1974.94 1831.87 1986.77 1816.9 1994.82 1800.01C2004.64 1779.02 2023.72 1772.52 2041.86 1764.02C2047.57 1761.34 2053.57 1760.16 2061.43 1757.7C2107.27 1762.83 2133.26 1805.13 2114.61 1847.48C2121.29 1845.99 2127.29 1844.81 2135.47 1843.02C2139.88 1852.43 2144.29 1861.83 2150.28 1874.59C2156.2 1863.62 2159.86 1856.58 2165.95 1845.11C2173.56 1852.6 2180.21 1858.91 2187.82 1866.4C2177.91 1884.58 2169.02 1901.45 2160.32 1917.82C2150.64 1919.9 2142.13 1921.85 2131.62 1923.91C2127.88 1934.27 2139.03 1952.8 2116.74 1955.07C2116.52 1970.33 2116.33 1984.76 2116.43 2000.7C2123.35 2002.36 2131.6 2004.23 2138.53 2005.89C2135.89 2038.69 2136.9 2071.4 2130.3 2102.77C2125.02 2128.19 2111.49 2151.75 2101.61 2175.23C2088.32 2175.73 2079.85 2176.02 2067.73 2176.38C2079.02 2209.19 2089.51 2241.15 2100.64 2273.62C2080.6 2292.03 2060.19 2305.3 2030.54 2296.26C2021.33 2293.21 2009.75 2298.23 1996.26 2300.05C2004.1 2318.5 2016.56 2317.98 2029.94 2320.31C2023.45 2334.42 2016.98 2347.7 2010.51 2360.98C2007.19 2360.89 2004.37 2360.99 2001.72 2360.59C1961.47 2357.76 1958.6 2359.51 1947.68 2398.24C1943.14 2413.89 1937.25 2417.06 1921.6 2412.52C1915 2410.7 1908.08 2409.03 1903.52 2405.43C1896.06 2398.27 1888.76 2385.31 1881.94 2385.64C1867.83 2386.12 1850.02 2381.36 1839.77 2399.69C1834.21 2409.67 1823.74 2417.04 1815.56 2425.8" stroke="#EFEFEF" stroke-miterlimit="10" stroke-linecap="round" stroke-linejoin="round"/>
<path d="M1465.65 2575.2C1467.93 2557.34 1470.38 2538.98 1472.67 2520.28C1487.59 2527.63 1500.37 2533.92 1511.52 2539.34C1519.58 2535.56 1524.95 2533.04 1530.66 2530.36C1563.32 2544.95 1579.27 2584.18 1621.5 2587.73C1606.04 2615.05 1611.78 2637.77 1629.58 2662.61C1658.05 2665.64 1682.35 2682.51 1700.78 2708.69C1704 2712.92 1708.87 2717.19 1713.8 2718.98C1732.91 2724.76 1740.83 2739.9 1747.54 2756.83" stroke="#EFEFEF" stroke-miterlimit="10" stroke-linecap="round" stroke-linejoin="round"/>
<path d="M1852.84 1326.17C1848.11 1336.17 1843.38 1346.18 1836.88 1360.29C1838.73 1365.98 1842.77 1377.2 1846.62 1388.91C1840.45 1396.72 1834.8 1403.88 1827.78 1412.5C1831.56 1420.56 1836.49 1429.31 1839.57 1438.52C1842.82 1448.06 1844.07 1457.71 1829.42 1459.67C1814.77 1461.63 1800.59 1464.59 1783.25 1467.81C1801.11 1490.16 1818.52 1510.68 1846.11 1522.32C1848.5 1519.56 1851.57 1516.48 1856.69 1510.8C1879.18 1520.32 1903.16 1530.38 1929.45 1541C1919.81 1561.5 1924.7 1578.05 1933.41 1594.86C1939.57 1607.13 1927.89 1623.27 1913.08 1624.89C1907.25 1625.57 1900.82 1624.08 1892.86 1623.72C1893.78 1646.64 1894.59 1667.57 1895.55 1688.84C1897.32 1690.87 1898.76 1693.07 1900.89 1694.12C1908.74 1698.63 1921.3 1700.93 1924.45 1707.65C1930.26 1720.9 1932.04 1736.05 1932.83 1750.84C1933.45 1759.15 1928.92 1767.83 1926.72 1776.24" stroke="#EFEFEF" stroke-miterlimit="10" stroke-linecap="round" stroke-linejoin="round"/>
<path d="M1505.42 2843.37C1514.82 2825.85 1522.22 2808.45 1520.92 2787.34C1520.46 2779.36 1529.16 2769.95 1534.99 2762.3C1539.46 2756.11 1545.41 2750.45 1551.99 2746.13C1562.62 2739.09 1561.66 2730.94 1556.6 2721.02C1551.54 2711.1 1547.15 2700.87 1542.58 2691.13C1536.3 2689.98 1530.36 2688.67 1524.58 2687.7C1519.38 2676.61 1516.19 2664.59 1508.78 2655.77C1501.21 2646.62 1490.08 2640.37 1480.81 2632.83C1482.33 2618.6 1483.8 2606.03 1485.08 2594.77C1474.54 2571.44 1454.16 2576.91 1435.45 2575.44C1432.03 2579.51 1427.91 2584.71 1421.05 2593.67C1412.67 2583.67 1403.07 2576.29 1398.67 2566.06C1389.42 2544.59 1375.97 2531.64 1352.2 2533.37C1343.32 2523.19 1338.05 2508.46 1320.31 2514.32C1314 2527.93 1307.68 2541.55 1298.74 2560.91C1285.76 2548.97 1276.85 2540.45 1264.83 2529.69C1262.48 2530.79 1255.67 2531.12 1252.09 2534.85C1238.63 2548.95 1226.13 2564.24 1213.48 2579.19" stroke="#EFEFEF" stroke-miterlimit="10" stroke-linecap="round" stroke-linejoin="round"/>
<path d="M1502.74 2850.77C1490.87 2887.48 1519.02 2909.93 1535.63 2935.73C1541.39 2944.5 1559.12 2945.61 1575.24 2951.16C1564.78 2964.67 1553.63 2979.33 1541.78 2995.13C1522.31 2984.19 1504.16 2973.44 1484.76 2992.37C1486.08 2999.54 1488.18 3008.39 1489.95 3017.4C1475.57 3034.79 1461.87 3051.88 1447.65 3069.61C1460.75 3083.54 1472.56 3095.62 1484.03 3107.86" stroke="#EFEFEF" stroke-miterlimit="10" stroke-linecap="round" stroke-linejoin="round"/>
<path d="M437.521 1051.82C426.438 1057.02 415.178 1062.71 403.937 1067.57C362.178 1085.12 320.891 1103.67 297.424 1146.23C296.039 1148.51 294.319 1150.96 292.283 1152.74C290.583 1154.35 288.075 1155.12 284.874 1157.03C287.988 1178.52 290.965 1198.84 294.393 1220.99C284.414 1228.54 272.44 1236.21 261.925 1245.24C256.668 1249.75 250.677 1257.07 250.532 1262.88C250.702 1269.35 255.785 1278.44 261.191 1281.23C265.611 1283.67 275.645 1280.6 280.566 1276.24C288.195 1269.79 293.241 1260.46 301.981 1249.39C324.718 1255.94 348.127 1262.16 371.515 1269.22C382.884 1272.49 392.834 1272.74 401.533 1263.33C411.081 1253.12 424.556 1245.16 417.371 1227.22C414.241 1219.67 413.461 1211.03 410.907 1200.34C443.297 1192.52 475.528 1184.37 507.918 1176.55" stroke="#EFEFEF" stroke-miterlimit="10" stroke-linecap="round" stroke-linejoin="round"/>
<path d="M2096.19 2644.07C2097.21 2656.71 2087.62 2661.61 2078.15 2662.37C2059.19 2663.89 2048.97 2674.42 2041.61 2690.16C2027.52 2682.84 2017.78 2687.41 2012.27 2701.88C2004.45 2722.76 1997.79 2743.5 2007.36 2765.64C2008.91 2769.83 2010.45 2774.85 2009.52 2778.97C2003.07 2804.54 2008.72 2830.56 2006.76 2856.07C2005.84 2866.34 2005.61 2875.46 2010.18 2885.2C2015.69 2896.95 2005.18 2919.09 1993.84 2928.1C1988.43 2932.28 1982.3 2938.43 1981.32 2944.22C1978.25 2967.37 1962.96 2981.93 1948.94 2998.34C1933.56 3016.21 1921.57 3037.81 1905.37 3054.83C1874.36 3087.41 1869.17 3095.58 1862.57 3140.88C1845.71 3151.25 1818.38 3142.77 1805.99 3167.02C1803.46 3181.72 1800.56 3198.25 1797.99 3214.61C1796.34 3214.57 1794.68 3214.53 1793.02 3214.49C1796.17 3221.2 1799.32 3227.92 1802.63 3234.97C1797.65 3241.82 1793.18 3248.01 1787.84 3255.84C1790.99 3262.56 1794.93 3270.96 1798.71 3279.02C1790.03 3287.59 1782.2 3295.36 1774.04 3303.29" stroke="#EFEFEF" stroke-miterlimit="10" stroke-linecap="round" stroke-linejoin="round"/>
<path d="M2101.46 1371.38C2098.79 1371.81 2096.46 1372.08 2094.13 1372.36C2098.1 1386.06 2101.58 1399.59 2105.85 1414.8C2084.97 1420.09 2068.6 1424.49 2050.06 1429.5C2042.96 1421.36 2036.71 1412.41 2029.08 1405.75C2018.68 1396.69 2018.77 1386.4 2023.52 1375.57C2030.22 1360.14 2037.07 1345.04 2045.39 1330.48C2057.36 1309.71 2076.56 1305.21 2102.18 1309.17C2102.74 1319.97 2103.46 1331.1 2103.53 1341.73C2103.61 1351.52 2116.48 1361.47 2102.8 1370.75" stroke="#EFEFEF" stroke-miterlimit="10" stroke-linecap="round" stroke-linejoin="round"/>
<path d="M596.836 1317.17C582.507 1312.83 568.157 1309.32 554.006 1304.48C537.724 1298.6 532.621 1290.34 537.517 1273.7C541.7 1259.04 547.049 1244.24 554.35 1230.98C564.085 1213.3 575.951 1196.67 587.975 1180.37C592.109 1174.34 598.689 1170.02 604.974 1164.2C613.474 1189.31 605.978 1217 632.181 1230.93C631.683 1250.83 631.207 1269.9 630.552 1289.47" stroke="#EFEFEF" stroke-miterlimit="10" stroke-linecap="round" stroke-linejoin="round"/>
<path d="M1793.05 3618.07C1786.87 3619.74 1780.69 3621.41 1774.17 3623.24C1769.29 3612.83 1764.56 3602.76 1759.68 3592.35C1744.52 3601.09 1731.61 3599.78 1719.7 3584.87C1702.86 3588.27 1685.34 3591.98 1665.49 3595.97C1662.3 3590.91 1659.6 3586.03 1655.78 3579.63C1621.31 3590.88 1623.54 3561.56 1617.8 3538.85C1613.2 3536.91 1608.29 3534.3 1603.36 3532.51C1591.51 3528.23 1578.47 3525.75 1580.74 3507.89C1580.78 3506.23 1571.27 3501.67 1565.8 3501.37C1554.88 3499.94 1543.03 3502.63 1532.65 3499.71C1513.53 3494.76 1512.6 3491.91 1514.17 3469.05C1508.6 3465.92 1502.37 3463.11 1497.16 3459C1489.51 3453.17 1482.57 3445.36 1487.97 3435.04C1493.04 3424.88 1496.35 3411.85 1513.21 3414.59C1526.59 3416.92 1540.35 3417.43 1553.1 3418.41C1553.66 3416.1 1554.22 3413.79 1554.79 3410.66C1559.88 3412.77 1564.64 3415.05 1569.57 3416.83C1573.29 3414.27 1576.67 3411.87 1583.43 3407.06C1591.8 3417.06 1600.03 3426.72 1607.91 3436.54C1603.36 3446.05 1599.7 3453.1 1595.68 3461.13C1603.51 3466.47 1611.5 3472.15 1619.33 3477.49C1622.09 3486.85 1625 3496.55 1628.36 3508.08C1646.69 3498.25 1663.17 3489.7 1681.17 3480.03C1683.73 3483.74 1686.77 3488.47 1690.45 3493.7C1691.62 3493.56 1693.77 3493.78 1695.29 3492.66C1715.25 3477.56 1740.3 3484.66 1762.2 3478.07C1769.39 3475.93 1779.14 3477.5 1784.4 3472.98C1798.81 3460.9 1812.84 3463.74 1827.96 3469.76" stroke="#EFEFEF" stroke-miterlimit="10" stroke-linecap="round" stroke-linejoin="round"/>
<path d="M1423.25 1956.84C1422.72 1958.32 1421.51 1960.11 1421.47 1961.77C1423.62 1995.18 1398.97 2005.52 1374.36 2014.2C1366.99 2016.83 1357.95 2013.29 1345.02 2012.8C1329.27 2025.51 1300.24 2031.76 1296.69 2060.88C1284.85 2069.71 1275.21 2077.1 1263.19 2086.42C1254.49 2082.72 1242.67 2077.61 1227.06 2071.42C1220.62 2076.9 1212.14 2084.15 1201.47 2092.85C1195.41 2089.54 1187.71 2085.37 1180.18 2081.53C1170.13 2091.57 1161.79 2099.99 1151.75 2110.02C1167.37 2122.36 1181.2 2133.5 1196.33 2145.66C1196.38 2150.14 1196.4 2156.28 1196.25 2162.08C1189.6 2162.75 1183.77 2163.43 1175.62 2164.39C1158.92 2188.2 1147.24 2217.45 1118.3 2233.48C1118.93 2234.83 1120.05 2236.35 1120.68 2237.69C1131.71 2241.12 1143.24 2244.73 1150.48 2247.07C1152.89 2263.55 1156.03 2277.24 1156.69 2290.87C1156.88 2296.51 1153.57 2302.57 1150.78 2307.98C1147.14 2314.19 1142.85 2319.89 1137.87 2326.74C1123.89 2328.38 1109.41 2329.84 1093.6 2331.94C1086.61 2345.87 1079.96 2359.64 1072.8 2374.07C1047.37 2368.78 1035 2392.2 1014.88 2400.83C1013.17 2409.41 1011.77 2418.67 1009.47 2431.23C994.29 2427.7 979.269 2424.5 962.274 2420.59C964.073 2434.91 966.386 2448.57 966.706 2462.35C966.697 2469.32 963.351 2477.04 960.698 2483.61C950.598 2509.24 926.053 2528.55 926.451 2559.09C926.808 2591.29 939.968 2615.85 971.188 2628.25" stroke="#EFEFEF" stroke-miterlimit="10" stroke-linecap="round" stroke-linejoin="round"/>
<path d="M2531.56 3550.24C2553.08 3545.47 2575.1 3540.88 2596.29 3536.26C2606.84 3552.62 2602.28 3569.1 2594.11 3584C2589.42 3592.35 2587.93 3598.78 2590.84 3608.48C2592.85 3614.5 2588.81 3623.36 2585.17 3629.58C2575.63 3645.93 2565.44 3661.78 2553.95 3676.59C2550.51 3681.48 2542.14 3684.59 2535.82 3685.1C2512.18 3687.99 2488.74 3689.56 2465.29 3691.96" stroke="#EFEFEF" stroke-miterlimit="10" stroke-linecap="round" stroke-linejoin="round"/>
<path d="M1390.06 1060.72C1389.81 1057.56 1389.06 1054.22 1389.48 1050.75C1393.41 1019.81 1364.85 993.874 1333.35 999.227C1326.87 1006.37 1321.06 1013.19 1313.72 1021.14C1301.76 988.646 1290.85 960.162 1280.44 931.857C1279.43 932.33 1277.93 932.624 1276.92 933.097C1278.79 924.846 1280.81 916.931 1282.5 909.174C1292.18 907.092 1300.18 905.799 1311.35 903.423C1313.09 887.037 1314.69 869.487 1317.05 848.305C1301.2 858.197 1289.77 857.414 1280.97 837.778C1286.96 830.46 1293.5 820.833 1302.16 813.083C1317.78 799.202 1333.86 786.329 1341.84 765.785C1343.98 759.864 1351.06 755.726 1354.97 751.841C1369.59 757.683 1366.52 767.729 1366.97 776.535C1396.65 783.915 1425.59 774.848 1454.71 771.427C1465.69 770.374 1476.22 767.484 1487.36 766.767C1498.83 765.892 1506.77 760.117 1512.49 750.469C1519.93 738.374 1526.87 726.102 1534.85 712.528C1517.01 702.457 1494.05 698.066 1489.58 671.071C1508.93 653.798 1535.38 657.778 1556.66 649.847C1572.4 657.21 1588.19 662.915 1602.08 671.56C1611.39 677.435 1618.29 686.9 1630.28 698.485C1641.13 696.266 1656.98 699.484 1671.43 711.959C1676.46 716.566 1686.97 714.505 1697.06 715.919C1698.95 719.949 1703.31 724.87 1703.18 729.846C1703.4 760.883 1702.79 791.9 1701.69 822.739C1701.44 832.69 1705.11 838.756 1713.77 844.117C1721.44 849.121 1735.91 847.657 1735.05 862.405" stroke="#EFEFEF" stroke-miterlimit="10" stroke-linecap="round" stroke-linejoin="round"/>
<path d="M2064.16 2597.63C2052.41 2603.15 2040.66 2608.66 2028.9 2614.17C2027.94 2612.99 2027.31 2611.64 2026.34 2610.46C2022.72 2615.84 2018.94 2620.89 2014.47 2627.09C2017.28 2627.82 2018.93 2627.86 2020.75 2628.24C2051.66 2633 2082.42 2637.42 2113.33 2642.17C2140.93 2646.85 2162.1 2663.14 2182.23 2680.74C2181.69 2702.3 2166.66 2706.07 2149.13 2710.61C2148.92 2718.9 2148.71 2727.19 2148.66 2735.82C2161.68 2746.1 2167.7 2730.99 2178.36 2729.26C2180.71 2735.13 2182.54 2741.65 2185.87 2747.87C2190.93 2757.79 2196.66 2767.39 2201.72 2777.31C2207.89 2789.57 2213.9 2801.51 2219.05 2814.25C2222.64 2823.63 2225.9 2832.34 2238.52 2832.16C2241.28 2821.44 2243.7 2810.88 2246.28 2800.66C2260.4 2800.18 2265.84 2808.28 2270.72 2818.69C2287.4 2855.12 2304.91 2891.57 2323.66 2931.53C2318.97 2939.88 2312.89 2950.51 2306.98 2961.48C2308.46 2962.02 2310.1 2962.89 2311.24 2963.58C2315.75 2968.84 2320.61 2973.94 2325.28 2979.53C2358.63 2972.9 2358.63 2972.9 2362.27 2953.57C2356.93 2948.3 2351.42 2942.68 2342.85 2934C2348.03 2925.84 2351.68 2912.65 2359.74 2908.87C2378.21 2900.21 2398.07 2902.36 2417.75 2918.12C2405.07 2940.87 2381.2 2959.86 2392.02 2991.66C2379.95 2996.5 2368.89 3000.87 2358.16 3005.08" stroke="#EFEFEF" stroke-miterlimit="10" stroke-linecap="round" stroke-linejoin="round"/>
<path d="M709.258 1831.93C718.914 1830.68 718.242 1830.99 725.635 1840.64C732.87 1849.94 737.459 1858.85 729.055 1869.76C720.987 1880.51 722.902 1896.82 708.598 1904.76C706.583 1905.71 707.972 1916.53 710.671 1921.41C717.508 1933.36 714.635 1942.09 705.957 1950.67C676.441 1916.57 664.6 1879.1 680.11 1836.18C689.431 1835.08 698.258 1833.81 707.578 1832.72" stroke="#EFEFEF" stroke-miterlimit="10" stroke-linecap="round" stroke-linejoin="round"/>
<path d="M1927.28 904.032C1922.33 916.188 1917.38 928.344 1911.56 942.139C1936.33 946.907 1951.91 960.904 1954 983.691C1955.81 1004.15 1956.61 1025.08 1939.42 1042.57C1923.92 1058.45 1911.65 1077.72 1898.09 1095.97C1903.17 1118.17 1908.6 1140.21 1913.69 1162.4C1934.27 1155.62 1948.21 1168.74 1945 1190.74C1941.56 1215.71 1936.95 1240.82 1933.17 1265.95C1931.38 1277.85 1930.57 1290.11 1929.77 1302.37C1927.64 1334.51 1901.52 1350.45 1872.47 1337.45C1867.22 1334.99 1862.13 1332.87 1856.88 1330.42" stroke="#EFEFEF" stroke-miterlimit="10" stroke-linecap="round" stroke-linejoin="round"/>
<path d="M1420.09 2871.11C1435.57 2869.17 1451.35 2868.74 1466.53 2865.3C1480.22 2862.16 1493 2855.34 1509.08 2849.44C1508.09 2849.08 1511.73 2849.84 1513.5 2851.87C1533.88 2879.6 1562.88 2888.12 1595.59 2887.11C1624.66 2886.18 1643.23 2906.56 1665.41 2922.38C1650.8 2948.9 1651.48 2974.8 1659.58 3002.55C1663.42 3015.1 1660.74 3029.47 1660.9 3042.91" stroke="#EFEFEF" stroke-miterlimit="10" stroke-linecap="round" stroke-linejoin="round"/>
<path d="M1932.17 1779.55C1948.35 1789.58 1948.62 1791.91 1937.67 1818.35C1911.22 1827.48 1884.4 1831.46 1856.22 1823.78C1835.12 1818.11 1813.29 1815.24 1791.32 1811.21C1786.96 1819.4 1784.01 1824.47 1781.56 1829.72C1772.57 1850.73 1757.9 1866.63 1737.91 1876.42C1728.17 1880.99 1724.51 1888.03 1727.13 1896.23C1733.62 1915.31 1725.11 1930.36 1717.23 1946.76C1685.66 1928.38 1655.68 1939.58 1625.04 1950.26C1609.48 1955.52 1591.85 1957.23 1588.43 1974.41C1574.09 1977.03 1561.91 1979.88 1549.92 1981.41C1544.1 1982.09 1537.98 1981.28 1532.55 1979.32C1517.57 1974.46 1505.46 1980.96 1493.51 1987.8C1481.55 1994.64 1470.41 2002.32 1456.91 2011.11C1444.03 1988.88 1432.42 1968.51 1418.75 1944.61C1409.93 1952.02 1403.49 1957.5 1396.02 1964.29C1389.64 1947.2 1376.62 1936.92 1355.69 1937.72C1341.58 1938.2 1326.85 1936.5 1312.81 1933.66C1306.77 1936.5 1300.39 1939.49 1293.34 1942.8C1292.01 1942.6 1289.53 1942.54 1287.73 1941.33C1253.04 1921.55 1224.89 1939.26 1196.89 1957.32C1182.05 1966.74 1168.11 1979.83 1148.27 1963.73C1151.65 1941.25 1154.9 1917.6 1158.84 1892.81C1151.62 1889.64 1145.05 1886.99 1134.86 1882.75C1142.2 1874.8 1148.52 1867.33 1155.5 1860.36C1168.27 1847.41 1181.38 1834.29 1194.64 1821.51C1211.48 1805.01 1198.51 1772.99 1177.83 1763.84C1171.59 1761.03 1164.49 1759.86 1156.91 1757.68C1155.83 1747.53 1154.56 1738.7 1153.49 1728.55C1126.69 1718.59 1099.69 1709.95 1069.28 1711.51C1056.48 1712.19 1042.87 1705.87 1029.86 1701.73C1023.61 1699.75 1018.6 1694.31 1012.52 1691.84C995.114 1684.43 977.194 1677.68 959.117 1670.59C958.918 1671.91 958.226 1673.06 958.027 1674.38C957.028 1667.88 956.522 1661.56 955.365 1654.73C945.257 1654.15 935.82 1653.25 926.206 1652.84C927.097 1650.37 927.831 1647.57 929.058 1644.94C929.539 1638.98 929.526 1632.84 929.829 1627.37C911.051 1628.4 893.439 1629.28 875.826 1630.17C875.689 1629.01 875.395 1627.51 875.258 1626.34C871.008 1630.38 866.937 1633.93 861.501 1638.94C848.242 1631.64 834.983 1624.34 822.059 1616.88" stroke="#EFEFEF" stroke-miterlimit="10" stroke-linecap="round" stroke-linejoin="round"/>
<path d="M1562.15 540.603C1549.87 540.628 1537.59 540.653 1524.82 540.5C1519.1 550.148 1513.38 559.796 1506.64 570.745C1473.23 565.928 1438.18 561.069 1402.13 555.853C1407.49 547.192 1411.94 541.826 1414.41 535.748C1419.03 523.749 1413.18 512.153 1400.29 510.005C1378.63 506.643 1364.83 494.681 1355.35 475.36C1353.3 470.994 1348.08 467.711 1344.35 464.133" stroke="#EFEFEF" stroke-miterlimit="10" stroke-linecap="round" stroke-linejoin="round"/>
<path d="M2061.16 4045.45C2064.53 4050.02 2068.57 4054.27 2071.61 4058.99C2079.1 4071.46 2076.46 4077.2 2057.89 4090.01C2062.18 4104.39 2066.29 4119.26 2070.73 4133.98C2069.05 4134.76 2067.55 4135.06 2065.87 4135.85C2073.82 4143.18 2092.06 4143.64 2083.03 4166.31C2066.34 4170.04 2046.93 4176.69 2026.99 4177.86C2003.88 4179.27 1983.32 4185.23 1963.31 4195.85C1947.5 4204.08 1932.89 4204.38 1918.59 4192.24C1915.18 4189.33 1910.27 4186.72 1905.47 4186.1C1882.97 4183.55 1860.93 4182 1838.93 4172.66C1828.25 4168.24 1813.42 4170.69 1801.4 4173.88C1775.84 4180.54 1758.3 4171.97 1746.4 4150.1C1741.58 4150.31 1737.28 4149.87 1733.29 4150.1C1723.14 4151.18 1712.81 4152.74 1702.48 4154.31C1692.65 4156.06 1682.08 4160.6 1672.64 4159.7C1651.46 4157.35 1632.3 4160.19 1614.11 4171.18" stroke="#EFEFEF" stroke-miterlimit="10" stroke-linecap="round" stroke-linejoin="round"/>
<path d="M1810.26 2431.97C1777.08 2438.12 1744.4 2444.43 1711.22 2450.57C1711.36 2451.74 1711.49 2452.9 1711.63 2454.07C1706.4 2450.79 1701.17 2447.5 1696.26 2444.89C1681.86 2450.01 1668.31 2454.31 1653.91 2459.43C1640.41 2442 1625.11 2443.44 1606.16 2451.1C1596.44 2454.84 1592.31 2460.88 1587.17 2467.39C1583.23 2472.1 1580.34 2481.65 1575.68 2482.2C1548.21 2485.66 1540.57 2506.05 1533.06 2527.6" stroke="#EFEFEF" stroke-miterlimit="10" stroke-linecap="round" stroke-linejoin="round"/>
<path d="M2753 3786.45C2765.87 3789.42 2778.43 3791.73 2783.52 3806.96C2787.67 3820.17 2781.06 3832.29 2767.84 3830.3C2742.21 3826.34 2716.63 3820.72 2693.68 3816.33C2685.96 3799.87 2677.48 3787.05 2690.81 3771.78C2709.45 3769.59 2728.92 3767.43 2750.22 3764.81C2750.67 3773.61 2750.68 3779.75 2750.87 3785.4" stroke="#EFEFEF" stroke-miterlimit="10" stroke-linecap="round" stroke-linejoin="round"/>
<path d="M845.907 988.205C810.056 1001.75 774.146 997.695 738.162 989.992C709.442 983.798 680.502 979.755 651.405 975.377C647.931 974.958 643.901 976.849 640.542 978.424C621.064 987.562 601.88 998.201 581.614 1005.66C566.878 1010.93 549.958 1010.68 535.223 1015.95C506.246 1026.68 477.878 1039.58 449.531 1051.64" stroke="#EFEFEF" stroke-miterlimit="10" stroke-linecap="round" stroke-linejoin="round"/>
<path d="M1563.54 3272.97C1569.36 3266.15 1574.83 3259.48 1582.35 3251.04C1591.3 3257.9 1600.08 3265.25 1610 3273.3C1615.38 3263.81 1622.22 3255.69 1624.11 3246.61C1628.18 3229.95 1641.61 3223.64 1653.72 3217.14C1665.5 3210.8 1674.57 3219.66 1683.17 3227.5C1696.8 3239.96 1710.44 3251.59 1726.52 3265.76C1721.78 3269.62 1716.88 3273.15 1712.63 3277.2C1707.86 3281.89 1703.75 3287.1 1696.57 3295.38C1705.56 3307.55 1713.82 3322.53 1725.47 3334.27C1735.19 3343.64 1738.95 3352.53 1735.15 3365.38C1723.99 3366.93 1713.17 3368.31 1700.85 3370C1687.74 3349.92 1675.11 3330.85 1661.53 3309.77C1654.63 3320.39 1649.8 3327.57 1644.62 3335.73C1647.77 3342.45 1651.23 3349.84 1653.76 3355.21C1649.88 3390.63 1622.91 3407.38 1603.75 3430.3" stroke="#EFEFEF" stroke-miterlimit="10" stroke-linecap="round" stroke-linejoin="round"/>
<path d="M1929.21 3017.43C1912.42 3025.3 1897.06 3022.27 1879.83 3014.37C1862.61 3006.47 1842.41 3004.47 1824.92 3000.38C1815.44 3008.11 1807.81 3014.56 1799.69 3020.83C1795.12 3024.2 1790.18 3029.38 1785.54 3029.1C1767.63 3028.49 1753.96 3037.77 1740.78 3047.23C1707.05 3022.49 1677.68 3042.01 1645.03 3053.64C1649.13 3062.37 1652.64 3068.1 1654.8 3074.46C1660.35 3091.52 1653.52 3105.79 1637.34 3115.84C1629.08 3120.94 1622.1 3127.9 1615.12 3134.87C1593.45 3145.44 1574.58 3143.64 1554.78 3125.89C1537.08 3110.01 1512.29 3106.08 1487.91 3105.63C1475.16 3130.87 1492.66 3148.07 1499.8 3167.66" stroke="#EFEFEF" stroke-miterlimit="10" stroke-linecap="round" stroke-linejoin="round"/>
<path d="M2695.74 2293.14C2693.94 2298.91 2692.63 2304.85 2690.09 2313.41C2680.2 2310.68 2671.64 2308.14 2664.06 2305.96C2660.76 2291.94 2657.91 2279.75 2654.9 2267.23C2651.29 2252.54 2662.62 2237.39 2676.97 2240.9C2695.94 2245.52 2715.72 2250.99 2726.96 2272.35C2725.65 2278.29 2724.14 2285.56 2722.64 2292.82C2713.78 2301.89 2705.27 2303.84 2697.42 2292.36" stroke="#EFEFEF" stroke-miterlimit="10" stroke-linecap="round" stroke-linejoin="round"/>
<path d="M2275.87 3555.47C2286.54 3566.85 2297.2 3578.24 2308.21 3589.47C2312.09 3593.38 2316.31 3597.14 2321.23 3599.75C2348.4 3614.86 2350.74 3633.84 2327.28 3656.32C2325.07 3658.59 2323.17 3661.53 2319.75 3665.59C2329.87 3685.43 2325.31 3715.02 2357.92 3725.13C2354.46 3730.85 2351.35 3735.58 2350.32 3736.88C2359.15 3755.69 2366.24 3770.8 2373.33 3785.92" stroke="#EFEFEF" stroke-miterlimit="10" stroke-linecap="round" stroke-linejoin="round"/>
<path d="M2296.02 1886.53C2297 1886.89 2298.15 1887.58 2298.48 1887.42C2321.78 1871.58 2342 1872.75 2355.92 1899.81C2380.43 1882.17 2413.62 1882.17 2430.95 1899.03C2427.84 1923.85 2414.67 1939.45 2385.12 1953.31C2376.08 1949.77 2366.55 1946.05 2356.52 1942.14C2306.31 1979.22 2281.43 1952.38 2266.47 1906.54" stroke="#EFEFEF" stroke-miterlimit="10" stroke-linecap="round" stroke-linejoin="round"/>
<path d="M2142.13 3528.06C2141.55 3551.28 2140.97 3574.5 2140.37 3598.54C2134.07 3598.22 2125.94 3598.35 2116.82 3598.12C2111.54 3590.35 2105.11 3581.9 2099.98 3574.47C2080.14 3578.45 2060.47 3581.94 2042.79 3585.32C2029.92 3569.23 2045.58 3546.72 2021.9 3538.16C2015.01 3541.81 2006.77 3546.08 1996.67 3551.64C1997.32 3552.15 1995.86 3550.79 1994.38 3550.25C1967.75 3546.77 1953.76 3522.19 1931.45 3512.17C1919.96 3506.91 1907.07 3504.76 1894.22 3500.95C1891.09 3513.49 1887.99 3524.36 1884.88 3536.07C1905.01 3547.52 1924.1 3560.28 1927.59 3586.92C1916.1 3594.76 1903.95 3602.92 1888.76 3613.33C1862.83 3614.84 1831.93 3616.22 1801.19 3617.94" stroke="#EFEFEF" stroke-miterlimit="10" stroke-linecap="round" stroke-linejoin="round"/>
<path d="M1430.81 3073.01C1421.42 3076.59 1412.54 3080.35 1403.15 3083.93C1389.07 3089.72 1379.67 3087.16 1372.09 3071.87C1367.34 3062.62 1355.03 3057.34 1346.57 3050.65C1322.48 3064.82 1314.72 3063.13 1306.8 3034.89C1302.08 3017.85 1299.87 3000.03 1296.16 2982.52" stroke="#EFEFEF" stroke-miterlimit="10" stroke-linecap="round" stroke-linejoin="round"/>
<path d="M2116.93 3308.38C2120.65 3311.96 2124.72 3315.38 2128.44 3318.95C2127.23 3340.83 2146.77 3369.36 2166.82 3370.2C2188.88 3370.91 2207.35 3375.36 2217.28 3396.52C2224.68 3412.3 2236.59 3427.2 2232.95 3446.53C2232.56 3449.17 2234.13 3452.53 2235.06 3455.37C2254.1 3450.54 2273.29 3446.04 2291.66 3441.52C2295.6 3449.92 2297.96 3454.96 2300.64 3460.66C2307.37 3463.65 2314.26 3466.98 2325.74 3472.24C2320.37 3487.88 2314.82 3504 2309.24 3521.78C2283.34 3528.6 2272.6 3546.75 2266.17 3571.49C2261.39 3590.12 2241.15 3596.75 2220.88 3591.1C2217.09 3590.01 2213.12 3589.41 2209.82 3588.5C2202.51 3595.62 2195.37 3602.24 2186.54 3610.48C2173.69 3606.68 2160.17 3603.19 2146.49 3599.36" stroke="#EFEFEF" stroke-miterlimit="10" stroke-linecap="round" stroke-linejoin="round"/>
<path d="M2038.69 3849.07C2026.35 3851.58 2014 3854.1 2002.33 3856.29C2000.27 3865.87 1998.58 3873.62 1997.05 3881.72C1989.27 3880.86 1981.99 3880.18 1975.53 3879.52C1952.93 3894.22 1971.54 3912.94 1970.26 3931.16C1947.48 3926.28 1930.67 3961.21 1904.21 3937.98C1900.23 3924.27 1896.15 3908.57 1890.95 3890.52C1886.32 3890.23 1874.47 3892.92 1876.6 3873.89C1856.65 3882.02 1838.89 3888.72 1819.61 3896.53C1815.75 3891.79 1812.22 3886.89 1808.85 3882.32C1797.15 3892.32 1785.61 3902.65 1771.87 3914.42C1773.32 3922.76 1775.2 3933.76 1777.2 3946.75C1750.64 3933.81 1755.13 3959.97 1745.43 3969.85C1739.8 3969.21 1733.68 3968.4 1727.23 3967.74" stroke="#EFEFEF" stroke-miterlimit="10" stroke-linecap="round" stroke-linejoin="round"/>
<path d="M2176.88 711.133C2186.1 687.135 2221.11 667.432 2241.68 674.584C2246.17 713.861 2243.54 719.603 2214.53 725.018C2203.69 727.236 2190 717.269 2177.66 712.812" stroke="#EFEFEF" stroke-miterlimit="10" stroke-linecap="round" stroke-linejoin="round"/>
<path d="M2463.17 3697.06C2458.74 3734.78 2423.85 3769.59 2373.56 3789.91C2380.36 3796.55 2385.13 3804.96 2392.37 3807.3C2408.5 3812.85 2406.61 3821.93 2399.87 3832.88C2394.5 3841.54 2388.81 3850.36 2382.06 3861.31C2373.34 3858.44 2364.12 3855.39 2355.89 3852.69C2348.55 3854.5 2341.2 3856.31 2332.01 3858.57C2327.92 3849.83 2323.66 3840.77 2319.41 3831.7C2313.15 3836.69 2308.07 3840.71 2300.95 3846.5C2293.98 3813.31 2267.91 3807.51 2242.13 3803.21C2231.05 3801.44 2218.63 3807.27 2207.53 3806.33C2195.61 3805.37 2183.79 3800.26 2171.92 3796.81" stroke="#EFEFEF" stroke-miterlimit="10" stroke-linecap="round" stroke-linejoin="round"/>
<path d="M1708.74 3870.7C1708.44 3876.16 1708.63 3881.81 1708.33 3887.28C1693.77 3892.06 1690.13 3898.28 1697.28 3910.9C1705.06 3924.87 1714.35 3938.54 1722.47 3952.35C1724.53 3955.89 1726.4 3960.75 1726.3 3964.89C1724.97 3984.78 1722.82 4004.64 1720.6 4026.98C1717.42 4028.06 1712.58 4029.11 1708.06 4030.82C1689.27 4038.81 1669.5 4046.45 1662.31 4068.67C1656.02 4087.6 1636.89 4089.61 1623.22 4098.89C1610.55 4107.7 1592.6 4108.75 1583.76 4123.96" stroke="#EFEFEF" stroke-miterlimit="10" stroke-linecap="round" stroke-linejoin="round"/>
<path d="M1852.92 3745.69C1844.95 3746.16 1836.61 3747.61 1828.68 3746.41C1821.73 3745.57 1812.31 3743.85 1809.77 3739.3C1806.91 3734.09 1807.7 3722.66 1811.61 3718.77C1821.3 3709.72 1818.5 3702.02 1815.28 3691.65C1808.22 3668.73 1802.99 3645.37 1796.76 3622.48" stroke="#EFEFEF" stroke-miterlimit="10" stroke-linecap="round" stroke-linejoin="round"/>
<path d="M1154.9 2725.08C1152.06 2739.12 1152.23 2752.56 1159.36 2766.02C1169.68 2784.53 1158.62 2802.01 1152.34 2820.94C1174.07 2827.95 1194.48 2834.77 1212.91 2840.87C1219.26 2878.87 1225.77 2917.2 1232.28 2955.53" stroke="#EFEFEF" stroke-miterlimit="10" stroke-linecap="round" stroke-linejoin="round"/>
<path d="M2041.07 3753.71C2039.39 3754.5 2037.56 3754.95 2036.04 3756.08C2008.58 3778.79 1999.15 3777.89 1973.95 3750.38C1972.17 3748.34 1969.37 3747.61 1965.86 3741.88C1957.47 3745.82 1949.39 3750.43 1940.52 3753.36C1934.83 3755.21 1928.02 3755.53 1922.25 3753.73C1908.75 3749.41 1895.65 3742.44 1881.82 3738.28C1864.53 3732.87 1854.57 3739.59 1852.61 3758.13C1851.53 3768.06 1851.29 3778.01 1850.34 3789.1C1830.19 3798.56 1833.03 3817.71 1832.46 3833.96C1817.8 3842.89 1804.66 3850.69 1790.18 3859.12C1761.27 3834.17 1735.59 3858.92 1708.85 3866.55" stroke="#EFEFEF" stroke-miterlimit="10" stroke-linecap="round" stroke-linejoin="round"/>
<path d="M1079.21 1712.59C1081.88 1725.27 1084.55 1737.95 1087.38 1750.96C1069.04 1760.79 1053.49 1772.19 1034.52 1754.45C1031.44 1751.39 1018.61 1753.72 1014.85 1757.94C1009.55 1764.12 1006.32 1773.83 1005.78 1782.28C1005.26 1789.9 1009.87 1797.98 1012.17 1805.5" stroke="#EFEFEF" stroke-miterlimit="10" stroke-linecap="round" stroke-linejoin="round"/>
<path d="M1936.67 4046.49C1926.38 4040.26 1913.53 4036.45 1906.11 4027.64C1894.5 4014.24 1880.11 4012.38 1865.5 4012.68C1843.25 4013.29 1820.93 4016.38 1798.8 4018.98C1791.47 4019.96 1784.12 4021.77 1775.28 4023.87C1759.98 4018.34 1742.87 4012.44 1725.26 4006.36" stroke="#EFEFEF" stroke-miterlimit="10" stroke-linecap="round" stroke-linejoin="round"/>
<path d="M1235.98 2701.39C1213.58 2707.8 1191.34 2714.55 1168.97 2720.13C1161.96 2721.78 1153.82 2721.9 1146.56 2720.4C1136.65 2718.49 1127.1 2715.59 1117.74 2711.38C1090.83 2699.42 1066.15 2710.59 1042.05 2718.61C1028.76 2706 1015.96 2693.57 1002.99 2681.63" stroke="#EFEFEF" stroke-miterlimit="10" stroke-linecap="round" stroke-linejoin="round"/>
<path d="M1986.03 1308.75C1989.33 1322.77 1997.09 1337.57 1977.53 1350.03C1969.4 1350.15 1958.77 1350.22 1944.01 1350.18C1949.9 1326.93 1954.68 1308.3 1959.46 1289.67C1961.63 1289.06 1963.8 1288.45 1965.98 1287.84C1972.29 1294.3 1978.93 1300.61 1985.24 1307.07" stroke="#EFEFEF" stroke-miterlimit="10" stroke-linecap="round" stroke-linejoin="round"/>
<path d="M2073.08 3900.55C2063.53 3910.76 2060.6 3921.97 2060.22 3936.9C2060.03 3951.33 2050.87 3965.87 2044.81 3982.65C2050.73 3984.79 2058.98 3986.65 2065.69 3990.47C2077.31 3996.9 2083.18 4007.67 2083.86 4020.47C2084.83 4034.76 2078.25 4039.08 2061.03 4037.32" stroke="#EFEFEF" stroke-miterlimit="10" stroke-linecap="round" stroke-linejoin="round"/>
<path d="M2005.25 2830.15C1987.05 2841.14 1968.86 2852.14 1950.66 2863.13C1951.62 2864.32 1952.25 2865.66 1953.22 2866.85C1934.76 2868.54 1924.54 2858.99 1916.64 2843.03C1910.48 2830.76 1902.32 2818.61 1892.42 2809.74C1887.39 2805.13 1876.03 2808 1867.88 2808.96C1841.58 2805.31 1841.94 2784.24 1840.58 2765.62C1827.53 2750.03 1811.13 2749.12 1794.32 2750.86C1780.18 2752.17 1766.02 2754.3 1751.86 2756.44" stroke="#EFEFEF" stroke-miterlimit="10" stroke-linecap="round" stroke-linejoin="round"/>
<path d="M2381.97 3327.45C2378.39 3331.18 2374.97 3335.24 2370.9 3338.79C2358.35 3349.6 2347.55 3363.27 2327.27 3351.48C2312.39 3342.47 2295.08 3337.89 2279 3330.69C2262.92 3323.48 2247.01 3315.78 2232.9 3309.29C2229.14 3300.4 2226.01 3292.85 2222.74 3284.14C2206.37 3288.55 2201.69 3276.81 2195.62 3260.4C2181.01 3260.7 2165.08 3260.8 2153.63 3260.84C2144.38 3252.48 2137.08 3245.66 2129.45 3239" stroke="#EFEFEF" stroke-miterlimit="10" stroke-linecap="round" stroke-linejoin="round"/>
<path d="M2010.6 4142.93C1997.42 4139.28 1984.72 4135.81 1970.06 4131.63C1968.93 4137.08 1967.08 4144.5 1966.31 4148.96C1958.95 4157.74 1952.8 4164.72 1945.11 4173.65C1942.8 4173.1 1936.19 4172.1 1927.42 4170.89C1934.03 4158.77 1939.79 4147.47 1946.58 4134.86C1942.45 4133.92 1938.17 4132.66 1933.71 4131.88C1943.03 4110.71 1976.61 4101.92 1992.17 4116.75C1998.17 4122.54 2000.72 4133.22 2012.59 4129.7C2012.49 4133.85 2012.38 4138 2012.28 4142.14" stroke="#EFEFEF" stroke-miterlimit="10" stroke-linecap="round" stroke-linejoin="round"/>
<path d="M2244.27 3889.89C2238.64 3896.22 2232.67 3902.71 2227.55 3908.39C2203.06 3912.09 2183.13 3906.28 2166.98 3888.46C2144.9 3895.54 2124.29 3903.15 2100.74 3902.73C2058.09 3902.66 2027.7 3857.1 2049.72 3819.31C2051.11 3817.02 2051.5 3814.38 2055.95 3809.01C2044.99 3796.13 2034.03 3783.24 2022.89 3770.85" stroke="#EFEFEF" stroke-miterlimit="10" stroke-linecap="round" stroke-linejoin="round"/>
<path d="M1903.63 3941.12C1901.44 3942.56 1899.09 3943.66 1895.55 3945.73C1892.65 3942.17 1889.28 3937.61 1884.45 3931.68C1878.82 3938.01 1873.85 3944.03 1867.19 3951.66C1870.59 3961.53 1879.65 3971.22 1871.32 3985.78C1866.45 3994.62 1878.99 4003.9 1893.11 4003.42C1897.93 4003.21 1902.59 4002.66 1907.23 4002.94C1913.19 4003.42 1919.29 4005.07 1924.58 4005.86C1929.83 4021.43 1934.28 4036.14 1938.9 4050.36C1956.36 4049.14 1973.14 4048.23 1991.09 4047.19C1995.5 4043.48 2001.27 4038.32 2009.59 4030.72C2019.91 4036.13 2030.54 4042.2 2041.51 4048.12C2049.92 4050.32 2056.17 4046.16 2055.61 4035.36" stroke="#EFEFEF" stroke-miterlimit="10" stroke-linecap="round" stroke-linejoin="round"/>
<path d="M1765.17 418.729C1716.06 424.968 1666.45 431.03 1613.02 437.66C1613.49 451.777 1614.07 468.718 1614.24 488.305C1593.08 498.23 1571.25 508.471 1547.74 519.5C1549.95 524.202 1552.63 529.911 1555.31 535.62" stroke="#EFEFEF" stroke-miterlimit="10" stroke-linecap="round" stroke-linejoin="round"/>
<path d="M2428.22 3369.27C2426.03 3383.82 2425.16 3398.56 2421.65 3412.91C2419.98 3419.84 2414.19 3425.84 2410.87 3432.72C2408.05 3438.96 2405.07 3445.69 2403.73 3452.46C2401.27 3464.68 2399.95 3477.59 2397.78 3491.31C2384.26 3487.82 2374.11 3475.78 2363.81 3489.63" stroke="#EFEFEF" stroke-miterlimit="10" stroke-linecap="round" stroke-linejoin="round"/>
<path d="M2052.1 3445.33C2044.75 3447.13 2037.25 3448.61 2027.57 3450.69C2028.14 3441.41 2028.34 3433.12 2028.57 3423.99C2021.34 3414.69 2013.31 3403.7 2002.87 3390.16C1987.64 3395.26 1971.4 3400.83 1955.5 3406.24" stroke="#EFEFEF" stroke-miterlimit="10" stroke-linecap="round" stroke-linejoin="round"/>
<path d="M2094.99 3654.66C2094.71 3659.3 2094.92 3664.12 2094.58 3671.25C2082.15 3677.08 2068.38 3683.54 2054.28 3690.15C2044.88 3694.57 2039.1 3699.73 2041.77 3712.41C2044.27 3725.58 2042.59 3739.48 2042.67 3756.24C2081.24 3766.83 2122.26 3772.17 2161.26 3785.43C2164.31 3789.32 2167.19 3793.71 2170.56 3798.27C2169.33 3807.87 2167.58 3818.11 2166.16 3828.2" stroke="#EFEFEF" stroke-miterlimit="10" stroke-linecap="round" stroke-linejoin="round"/>
<path d="M2291.97 1882.28C2286.36 1887.78 2281.22 1894.29 2274.81 1898.11C2259.64 1907.69 2243.99 1916.26 2227.49 1925.64C2223.81 1920.4 2219.41 1917.14 2219.31 1914.32C2218.98 1894.4 2219.82 1874.34 2219.48 1854.41C2219.17 1840.63 2230.68 1838.1 2238.48 1838.13C2252.91 1838.32 2266.69 1838 2280.28 1852.12C2289.01 1861.13 2297.87 1865.17 2294.88 1878.87" stroke="#EFEFEF" stroke-miterlimit="10" stroke-linecap="round" stroke-linejoin="round"/>
<path d="M1831.42 3477.15C1814.44 3499.46 1804.69 3524.11 1805.13 3552.99C1805.22 3562.78 1801.5 3572.32 1800.76 3582.09C1799.86 3591.53 1799.94 3601.32 1800.03 3611.11" stroke="#EFEFEF" stroke-miterlimit="10" stroke-linecap="round" stroke-linejoin="round"/>
<path d="M1552.62 3411.27C1540.05 3389.71 1564 3387.49 1570.22 3371.05C1565.75 3364.13 1558.89 3353.01 1553.47 3344.08C1565.93 3323.48 1590.46 3338.2 1601.04 3319.71C1561.99 3281.89 1534.88 3238.07 1513.85 3189.75C1511.51 3183.88 1506.63 3179.61 1502.95 3174.38" stroke="#EFEFEF" stroke-miterlimit="10" stroke-linecap="round" stroke-linejoin="round"/>
<path d="M967.783 1357.17C967.895 1346.05 967.671 1335.09 968.613 1324C970.234 1305.62 968.795 1303.42 949.292 1300.28C924.548 1320.9 899.31 1341.35 873.045 1363.09C861.871 1345.39 872.609 1314.13 837.417 1321.21C843.96 1298.48 836.468 1272.9 859.106 1263.51C863.666 1247.03 867.315 1233.84 870.627 1220.82" stroke="#EFEFEF" stroke-miterlimit="10" stroke-linecap="round" stroke-linejoin="round"/>
<path d="M1038.81 2722.19C1031.97 2730.31 1025.31 2737.94 1021.04 2742.82C1023.95 2752.51 1029.07 2759.94 1027.15 2763.71C1016.17 2784.85 1013.82 2806.03 1020.72 2828.6C1021.96 2832.12 1020.35 2836.56 1019.87 2842.52C1009.71 2837.46 1004.31 2834.66 995.781 2830.47C994.189 2841.05 993.31 2849.66 992.095 2858.42" stroke="#EFEFEF" stroke-miterlimit="10" stroke-linecap="round" stroke-linejoin="round"/>
<path d="M2013.98 3211.21C2001.64 3206.76 1989.31 3202.3 1975.65 3197.64C1971.33 3211.14 1966.67 3224.8 1962.18 3238.79C1960.87 3237.77 1959.41 3236.4 1958.11 3235.37C1948.25 3244.92 1938.23 3254.13 1927.51 3264.48C1942.74 3279.46 1955.38 3291.56 1966.72 3302.63C1963.87 3323.64 1937.01 3336.24 1955.99 3360.11C1931.58 3367.47 1933.9 3394.24 1918.28 3408.13" stroke="#EFEFEF" stroke-miterlimit="10" stroke-linecap="round" stroke-linejoin="round"/>
<path d="M1928.71 3269.66C1908.4 3285.74 1887.75 3301.99 1867.25 3318.57C1867.76 3324.89 1868.28 3330.38 1868.91 3338.69C1866.89 3339.64 1862.48 3343.34 1859.01 3342.92C1838.81 3340.92 1820.02 3335.81 1810.59 3314.83C1778.49 3311.04 1751.44 3297.92 1731.17 3272.19C1730.05 3270.67 1727.58 3269.77 1725.45 3268.72" stroke="#EFEFEF" stroke-miterlimit="10" stroke-linecap="round" stroke-linejoin="round"/>
<path d="M1707.62 4147.8C1703.51 4132.93 1698.91 4117.88 1694.49 4102.33C1700.25 4091.03 1706.88 4078.08 1715.09 4061.53C1725.25 4053.48 1729.81 4070.19 1738.51 4073.9" stroke="#EFEFEF" stroke-miterlimit="10" stroke-linecap="round" stroke-linejoin="round"/>
<path d="M2045.82 3497.44C2054.22 3493.5 2062.61 3489.57 2071.35 3485.47C2075.95 3467.33 2068.3 3454.53 2056.23 3446.26C2058.18 3434.69 2062.26 3424.17 2061.52 3413.87C2061.08 3405.06 2050.48 3397.33 2060.78 3383.48C2081.76 3394.13 2103.56 3404.79 2124.88 3415.28C2128.94 3451.89 2150.54 3483.96 2144.74 3517.01C2170.59 3524.96 2196.45 3532.91 2222.3 3540.85C2220.9 3543.97 2219.67 3546.6 2218.26 3549.71C2224.47 3547.21 2230.67 3544.71 2237.21 3542.06" stroke="#EFEFEF" stroke-miterlimit="10" stroke-linecap="round" stroke-linejoin="round"/>
<path d="M581.309 1008.95C586.633 1015.06 588.399 1024.06 601.256 1020.9C608.267 1019.25 617.086 1024.95 627.625 1028.2C621.626 1042.48 616.518 1054.3 610.34 1069.09C604.146 1064.62 598.719 1062.66 596.986 1058.96C587.06 1037.8 573.312 1043.43 557.287 1053.82C559.65 1058.86 562.171 1064.23 567.055 1074.64C552.979 1073.46 542.871 1072.88 530.453 1071.74C521.663 1091.43 521.502 1111.17 539.247 1131.53C534.044 1140.53 528.662 1150.02 523.459 1159.01C517.634 1159.7 512.637 1160.4 506.812 1161.09C508.325 1166.93 509.524 1172.11 510.859 1178.45C537.216 1179.6 562.316 1157.99 589.548 1170.62" stroke="#EFEFEF" stroke-miterlimit="10" stroke-linecap="round" stroke-linejoin="round"/>
<path d="M2267.22 3602.54C2273.35 3609.5 2279.64 3616.79 2285.44 3623.91C2284.88 3626.22 2284.17 3628.19 2283.61 3630.5C2273.74 3633.9 2263.37 3637.13 2252.66 3640.51C2251.47 3628.37 2251.17 3620.73 2250.41 3611.25C2254.12 3608.69 2259.36 3605 2264.26 3601.47" stroke="#EFEFEF" stroke-miterlimit="10" stroke-linecap="round" stroke-linejoin="round"/>
<path d="M2448.68 3679.27C2447.52 3672.44 2446.21 3665.27 2445.09 3656.78C2453 3645.69 2477.01 3647.95 2474.9 3625.99C2458.24 3608.81 2441.08 3591.46 2426.19 3576.32C2424.57 3561.51 2422.89 3549.19 2421.56 3535.88C2410.69 3532.78 2400.3 3529.87 2393.71 3528.04C2376.8 3507.71 2362.46 3490.26 2347.48 3472.29C2340.62 3474.28 2333.44 3476.42 2326.4 3478.9" stroke="#EFEFEF" stroke-miterlimit="10" stroke-linecap="round" stroke-linejoin="round"/>
<path d="M2460.02 3690.34C2443.44 3669.85 2420.09 3674.24 2397.73 3672.85C2391.03 3662.06 2384.66 3651.12 2378.12 3640.67C2367.4 3637.91 2357.18 3635.33 2346.95 3632.75" stroke="#EFEFEF" stroke-miterlimit="10" stroke-linecap="round" stroke-linejoin="round"/>
<path d="M2027.76 2327.89C2038.42 2333.13 2049.07 2338.38 2059.73 2343.62C2060.31 2340.49 2061.04 2337.68 2061.62 2334.54C2068.59 2334.55 2076.09 2333.08 2082.17 2335.56C2085.78 2337.14 2089.07 2345.02 2088.94 2350C2089.35 2360.46 2080.14 2363.55 2072.28 2366.01C2066.59 2367.86 2060.16 2366.37 2054.17 2366.72" stroke="#EFEFEF" stroke-miterlimit="10" stroke-linecap="round" stroke-linejoin="round"/>
<path d="M2105.19 1222.12C2105.21 1241.37 2105.06 1260.28 2105.42 1279.38C2105.84 1289.01 2100.09 1293.35 2092.56 1295.65C2082.19 1298.87 2075.75 1291.25 2073.27 1284.21C2068.76 1271.99 2065.62 1258.3 2065.12 1245.01C2064.49 1223.59 2085.71 1211.18 2104.4 1220.44" stroke="#EFEFEF" stroke-miterlimit="10" stroke-linecap="round" stroke-linejoin="round"/>
<path d="M1976.66 3542.18C1974.76 3532.01 1973.01 3522.17 1970.98 3510.84C1993.09 3495.96 1978.03 3474.34 1978.35 3454.93C1978.86 3434.2 1964.27 3420.56 1952.21 3405.32C1931.57 3407.63 1909.93 3410.41 1885.95 3413.46C1884.38 3396.99 1883.36 3384.35 1881.8 3367.06C1872.3 3375.61 1864.83 3382.4 1858.05 3388.03C1850.65 3385.36 1843.09 3382.35 1831.4 3378.41C1832.27 3396.85 1832.77 3410.14 1833.29 3422.6C1817.6 3432.83 1804.06 3443.27 1801.43 3462.13" stroke="#EFEFEF" stroke-miterlimit="10" stroke-linecap="round" stroke-linejoin="round"/>
<path d="M2146.99 3267.65C2146.98 3274.62 2146.48 3281.41 2146.25 3290.53C2129.72 3294.6 2116.69 3304.39 2107.67 3320.1C2104.19 3326.65 2095.14 3330.07 2090.58 3333.44C2092.39 3353.9 2093.89 3373.69 2095.54 3393.81" stroke="#EFEFEF" stroke-miterlimit="10" stroke-linecap="round" stroke-linejoin="round"/>
<path d="M2599.03 2178.71C2603.91 2182.98 2608.44 2187.41 2614.62 2192.71C2617.3 2191.45 2622.34 2189.08 2627.38 2186.72C2626.23 2186.03 2625.58 2185.51 2624.44 2184.82C2630.25 2178 2635.18 2166.67 2641.83 2166.01C2652.16 2164.44 2658.57 2173.73 2659.44 2185.2C2660.3 2197.5 2663.15 2209.69 2664.67 2221.67C2642.9 2229.43 2621.97 2237.2 2598.52 2245.74C2595.05 2238.35 2591.43 2230.63 2587.81 2222.9C2588.81 2222.43 2589.82 2221.96 2590.83 2221.49C2585.62 2217.37 2580.41 2213.26 2575.05 2208.81C2576.56 2201.55 2578.05 2195.11 2579.2 2188.84C2553.71 2172.93 2550.57 2159.24 2567.51 2138.59C2590.08 2138.66 2596.33 2147.61 2593.92 2177.42" stroke="#EFEFEF" stroke-miterlimit="10" stroke-linecap="round" stroke-linejoin="round"/>
<path d="M2036.49 3704.64C1999.74 3694.43 1966.81 3677.51 1942.78 3642.89C1944.83 3634.15 1947.42 3623.09 1949.69 3612.2C1965.14 3604.95 1980.25 3597.86 1995.36 3590.77" stroke="#EFEFEF" stroke-miterlimit="10" stroke-linecap="round" stroke-linejoin="round"/>
<path d="M2264.9 3562.66C2257.64 3561.15 2250.37 3559.64 2243.44 3557.97C2239.5 3536.47 2239.19 3515.72 2216.4 3504.69C2209.02 3501.19 2207.06 3486.54 2201.55 3474.78C2182.42 3469.82 2161.48 3464.49 2140.87 3458.99" stroke="#EFEFEF" stroke-miterlimit="10" stroke-linecap="round" stroke-linejoin="round"/>
<path d="M1941.5 4052.42C1943.67 4058.78 1945.66 4065.63 1948.45 4073.34C1945.32 4078.9 1941.66 4085.94 1938.16 4093.32C1932.69 4093.02 1927.4 4092.23 1920.45 4091.39C1912.57 4107.79 1890.81 4115.54 1893.68 4140C1900.9 4143.17 1908.62 4146.52 1917.32 4150.22C1917.21 4161.34 1917.28 4171.96 1917.16 4183.07" stroke="#EFEFEF" stroke-miterlimit="10" stroke-linecap="round" stroke-linejoin="round"/>
<path d="M2476.58 3625.2C2482.61 3616.23 2489.3 3607.76 2494.68 3598.27C2505.11 3579.45 2505.62 3578.8 2526 3573.34C2533.13 3553.6 2530.21 3537.76 2511.96 3524.2C2503.32 3518.01 2498.97 3506.11 2493.06 3497.01C2494.09 3495.7 2495.12 3494.4 2496.15 3493.1C2487.7 3492.56 2478.91 3492.17 2468.8 3491.59C2466.71 3488.88 2463.52 3483.82 2460.48 3479.1C2441.91 3478.8 2424.16 3478.52 2406.07 3478.4" stroke="#EFEFEF" stroke-miterlimit="10" stroke-linecap="round" stroke-linejoin="round"/>
<path d="M908.749 2348.87C918.517 2369.69 938.327 2380.47 954.559 2394.98C960.891 2400.62 964.493 2409.17 969.282 2416.76" stroke="#EFEFEF" stroke-miterlimit="10" stroke-linecap="round" stroke-linejoin="round"/>
<path d="M2300.1 3847.31C2296.83 3858.68 2293.56 3870.05 2290.31 3880.59C2271.49 3883.27 2256.01 3885.21 2243.35 3887.05C2232.3 3877.48 2223.86 3869.97 2215.09 3862.61C2206.31 3855.26 2197.37 3847.56 2188.26 3840.37C2178.34 3832.32 2168.61 3829.92 2155.04 3835.06C2125.05 3846.25 2110.24 3867.96 2104.67 3898.02" stroke="#EFEFEF" stroke-miterlimit="10" stroke-linecap="round" stroke-linejoin="round"/>
<path d="M1798.32 4170.81C1796.25 4134.09 1769.53 4107.7 1757.23 4075.36C1756.12 4073.01 1749.15 4073 1743.21 4071.69C1738.78 4096.31 1734.37 4120.09 1730.14 4143.39" stroke="#EFEFEF" stroke-miterlimit="10" stroke-linecap="round" stroke-linejoin="round"/>
<path d="M2145.97 3706.55C2143.37 3717.6 2140.93 3728.99 2138.33 3740.05C2128.96 3749.77 2108 3745.26 2106.31 3766.13" stroke="#EFEFEF" stroke-miterlimit="10" stroke-linecap="round" stroke-linejoin="round"/>
<path d="M1995.4 3555.92C1988 3573.33 1990.08 3583.01 2003.55 3595.12C2014.1 3604.52 2023.98 3614.22 2037.59 3627.51C2056.79 3636.12 2081.93 3646.04 2106.36 3657.93C2120.63 3664.76 2121.55 3667.61 2122.21 3681.23C2131.3 3689.26 2139.43 3696.1 2150.47 3705.67C2160.03 3708.56 2173.55 3712.05 2187.22 3715.88" stroke="#EFEFEF" stroke-miterlimit="10" stroke-linecap="round" stroke-linejoin="round"/>
<path d="M2023.27 3536.71C2026.06 3531.3 2028.53 3525.22 2032.13 3520.66C2036.24 3515.46 2041.82 3511.61 2048.77 3505.48C2040.79 3492.84 2033.28 3481.2 2025.95 3469.07C2010.83 3470.02 1996.53 3470.99 1982.57 3471.8" stroke="#EFEFEF" stroke-miterlimit="10" stroke-linecap="round" stroke-linejoin="round"/>
<path d="M2189.03 3610.55C2194.53 3629.27 2200.04 3648 2204.72 3666.7C2205.91 3671.87 2206.08 3678.35 2204.14 3682.95C2199.89 3693.96 2194.15 3704.44 2188.9 3715.09C2190.85 3723.6 2192.61 3732.61 2194.99 3743.79C2220.84 3751.74 2247.23 3745.09 2273.67 3742.93" stroke="#EFEFEF" stroke-miterlimit="10" stroke-linecap="round" stroke-linejoin="round"/>
<path d="M2061.57 2369.39C2065.14 2372.63 2068.56 2375.54 2072.13 2378.78C2066.02 2397.21 2062.49 2399.28 2045.16 2395.53C2034.59 2393.11 2023.54 2390.51 2012.98 2388.09" stroke="#EFEFEF" stroke-miterlimit="10" stroke-linecap="round" stroke-linejoin="round"/>
<path d="M1888.85 3503.48C1883.62 3500.19 1877.9 3496.73 1872.18 3493.27C1873.65 3487.66 1874.91 3483.38 1876.76 3475.96C1861.36 3474.58 1847.28 3473.4 1833.05 3471.88" stroke="#EFEFEF" stroke-miterlimit="10" stroke-linecap="round" stroke-linejoin="round"/>
<path d="M2349.29 3738.18C2336.32 3739.35 2329.14 3747.64 2320.78 3756.89C2314.63 3763.87 2303.77 3766.92 2295.35 3771.69" stroke="#EFEFEF" stroke-miterlimit="10" stroke-linecap="round" stroke-linejoin="round"/>
<path d="M1622.65 3132.56C1627.26 3140.64 1631.71 3148.39 1636.66 3156.31C1635.99 3156.63 1634.82 3156.76 1634.15 3157.08C1643.89 3165.62 1653.97 3174 1664.21 3182.72C1664.29 3192.52 1664.22 3201.97 1664.15 3211.43" stroke="#EFEFEF" stroke-miterlimit="10" stroke-linecap="round" stroke-linejoin="round"/>
<path d="M1834.16 3832.34C1844.56 3834.43 1854.81 3836.18 1864.72 3838.09C1869.7 3851.32 1873.91 3862.05 1877.95 3873.27" stroke="#EFEFEF" stroke-miterlimit="10" stroke-linecap="round" stroke-linejoin="round"/>
<path d="M1893.35 4120.08C1886.22 4119.74 1879.09 4119.4 1875.44 4119.47C1864.36 4124.67 1856.3 4128.45 1848.24 4132.23C1847.26 4144.99 1846.43 4158.08 1845.27 4171.32" stroke="#EFEFEF" stroke-miterlimit="10" stroke-linecap="round" stroke-linejoin="round"/>
<path d="M2556.93 3464.58C2551.65 3476.9 2561.99 3481.47 2569.03 3485.13C2587.36 3495.38 2599.13 3509.12 2598.41 3531.17" stroke="#EFEFEF" stroke-miterlimit="10" stroke-linecap="round" stroke-linejoin="round"/>
<path d="M1843.28 4131.28C1827.32 4119.1 1811.52 4107.25 1796.71 4095.76C1778.86 4112.74 1762.71 4128.1 1746.72 4143.8" stroke="#EFEFEF" stroke-miterlimit="10" stroke-linecap="round" stroke-linejoin="round"/>
<path d="M2316.31 3663.51C2299.91 3655.64 2283.77 3650.92 2267.19 3663.61C2264.15 3665.86 2257.89 3663.88 2253.23 3664.43C2237.43 3665.69 2221.61 3667.78 2208.1 3677.4" stroke="#EFEFEF" stroke-miterlimit="10" stroke-linecap="round" stroke-linejoin="round"/>
<path d="M1772.92 4024.97C1771.15 4043.02 1777.78 4063.26 1760.82 4077.77" stroke="#EFEFEF" stroke-miterlimit="10" stroke-linecap="round" stroke-linejoin="round"/>
<path d="M2210.38 3752.14C2201.87 3767.19 2188.74 3781.13 2198.38 3800.79" stroke="#EFEFEF" stroke-miterlimit="10" stroke-linecap="round" stroke-linejoin="round"/>
<path d="M1898.59 3611.59C1911.93 3622.54 1925.1 3633.16 1938.44 3644.11" stroke="#EFEFEF" stroke-miterlimit="10" stroke-linecap="round" stroke-linejoin="round"/>
<path d="M2263.1 3667.99C2257.15 3686.76 2272.34 3696.43 2280.95 3710.42C2279.38 3720.17 2277.61 3731.25 2275.84 3742.32C2280.79 3750.25 2286.05 3758.84 2291.31 3767.44C2298.54 3783.71 2288.41 3797.07 2283.22 3812.21" stroke="#EFEFEF" stroke-miterlimit="10" stroke-linecap="round" stroke-linejoin="round"/>
<path d="M2233.43 3460.65C2229.88 3476.65 2226.66 3492.5 2223.11 3508.51" stroke="#EFEFEF" stroke-miterlimit="10" stroke-linecap="round" stroke-linejoin="round"/>
<path d="M2115.39 3602.07C2109.04 3617.34 2102.34 3632.78 2095.99 3648.05" stroke="#EFEFEF" stroke-miterlimit="10" stroke-linecap="round" stroke-linejoin="round"/>
<path d="M1849.65 3345.67C1849.54 3356.79 1848.93 3367.73 1848.82 3378.84" stroke="#EFEFEF" stroke-miterlimit="10" stroke-linecap="round" stroke-linejoin="round"/>
<path d="M2357.57 3009.05C2356.79 3013.51 2356.35 3017.82 2355.58 3022.28" stroke="#EFEFEF" stroke-miterlimit="10" stroke-linecap="round" stroke-linejoin="round"/>
<path d="M1605.82 4170.98C1602.36 4169.73 1599.4 4168.66 1595.95 4167.41" stroke="#EFEFEF" stroke-miterlimit="10" stroke-linecap="round" stroke-linejoin="round"/>
</svg>
