<svg width="165" height="1404" viewBox="0 0 165 1404" fill="none" xmlns="http://www.w3.org/2000/svg">
<path d="M114.444 1396.28L121.261 1397.56C149.594 1403.31 164.719 1384.78 164.719 1358.58C164.719 1334.29 153.003 1312.78 121.687 1306.39L114.231 1304.89C95.6977 1301.06 82.916 1308.94 77.1642 1323.43C72.0515 1309.79 60.7609 1298.5 44.1446 1294.88L37.7538 1293.6C14.3206 1288.7 0.686691 1305.32 0.686692 1327.9C0.686693 1350.06 13.8945 1369.02 37.7538 1374.13L44.1446 1375.41C58.8437 1378.6 69.7081 1372.64 75.4599 1361.13C80.1466 1378.6 92.9283 1392.02 114.444 1396.28ZM38.8189 1360.49C20.7114 1356.45 12.4033 1343.88 12.4033 1329.61C12.4033 1313.84 20.9245 1303.62 39.245 1307.66L43.2925 1308.52C61.613 1312.56 70.7733 1324.28 70.7733 1339.83C70.7733 1356.45 61.4 1365.39 43.2925 1361.35L38.8189 1360.49ZM115.083 1382.44C92.7153 1377.96 82.7029 1363.48 82.7029 1344.73C82.7029 1324.49 93.1414 1314.05 115.083 1318.53L120.196 1319.59C142.138 1324.28 153.003 1338.77 153.003 1357.73C153.003 1377.54 142.138 1388.19 120.196 1383.71L115.083 1382.44ZM86.3244 1226.11C86.3244 1208.22 96.1238 1198.63 117.64 1203.32L121.261 1203.96C142.564 1208.65 153.003 1222.28 153.003 1239.96C153.003 1259.13 141.712 1269.15 119.983 1264.25L114.444 1262.97L114.444 1276.82L119.557 1277.88C148.955 1283.63 164.719 1267.23 164.719 1240.39C164.719 1218.45 153.003 1196.93 123.391 1190.75L117.001 1189.47C97.615 1185.64 85.0462 1193.31 79.7205 1206.94C74.3948 1193.1 62.6782 1181.8 45.2098 1178.18L40.9492 1177.33C14.3206 1172.01 0.686686 1187.77 0.686687 1210.99C0.686688 1232.72 13.0424 1251.47 37.7538 1256.36L44.1446 1257.64L44.1446 1243.8L39.0319 1242.73C20.0723 1238.68 12.1903 1226.54 12.1903 1211.63C12.1903 1196.29 22.2026 1187.98 40.7362 1191.18L44.9968 1192.03C63.9564 1196.08 73.7557 1208.01 73.7557 1223.56L73.7557 1234L86.3244 1236.55L86.3244 1226.11ZM14.5336 1120.92L14.5336 1057.65L2.81697 1055.31L2.81697 1131.78L89.0938 1150.1L89.0938 1136.68C75.2469 1133.28 65.2345 1122.2 65.2345 1106.43C65.2345 1089.39 74.6078 1080.44 99.9583 1085.77L119.131 1089.82C143.416 1094.93 153.003 1106.86 153.003 1122.2C153.003 1141.8 142.138 1149.25 118.066 1144.35L114.87 1143.71L114.87 1157.56L119.983 1158.63C150.02 1164.8 164.719 1149.47 164.719 1122.62C164.719 1101.32 152.363 1083.21 119.131 1075.97L98.6801 1071.5C70.3472 1065.32 53.944 1075.76 53.944 1101.11C53.944 1114.1 60.3349 1125.39 70.1342 1132.64L14.5336 1120.92ZM86.3244 991.866C86.3244 973.971 96.1237 964.385 117.64 969.072L121.261 969.711C142.564 974.397 153.003 988.031 153.003 1005.71C153.003 1024.89 141.712 1034.9 119.983 1030L114.444 1028.72L114.444 1042.57L119.557 1043.63C148.955 1049.38 164.719 1032.98 164.719 1006.14C164.719 984.197 153.003 962.681 123.391 956.503L117.001 955.225C97.615 951.39 85.0462 959.059 79.7205 972.693C74.3948 958.846 62.6782 947.556 45.2098 943.934L40.9492 943.082C14.3205 937.756 0.686675 953.521 0.686676 976.741C0.686677 998.47 13.0424 1017.22 37.7538 1022.12L44.1446 1023.39L44.1446 1009.55L39.0319 1008.48C20.0723 1004.43 12.1903 992.292 12.1903 977.38C12.1903 962.042 22.2026 953.734 40.7362 956.929L44.9967 957.781C63.9563 961.829 73.7557 973.758 73.7557 989.309L73.7557 999.748L86.3244 1002.3L86.3244 991.866ZM14.5336 886.671L14.5336 823.401L2.81696 821.058L2.81696 897.536L89.0938 915.856L89.0938 902.435C75.2469 899.027 65.2345 887.949 65.2345 872.185C65.2345 855.143 74.6078 846.196 99.9583 851.521L119.131 855.569C143.416 860.681 153.003 872.611 153.003 887.949C153.003 907.548 142.138 915.004 118.066 910.104L114.87 909.465L114.87 923.312L119.983 924.377C150.02 930.555 164.719 915.217 164.719 888.375C164.719 867.072 152.363 848.965 119.131 841.722L98.6801 837.248C70.3472 831.07 53.944 841.509 53.944 866.859C53.944 879.854 60.3348 891.145 70.1342 898.388L14.5336 886.671ZM33.2801 708.407C11.5512 708.407 0.686665 722.68 0.686666 743.983C0.686667 767.629 14.1075 784.885 43.5055 790.85L51.8137 792.767L51.8137 779.346L44.3577 777.855C21.3505 773.168 12.4033 760.599 12.4033 744.196C12.4033 730.988 19.2202 721.402 34.1322 721.402C74.6078 721.402 101.449 803.844 155.772 815.774L162.589 817.265L162.589 732.906L150.872 730.562L150.872 800.01C104.432 785.95 79.7205 708.407 33.2801 708.407ZM153.216 657.109C90.1589 643.688 63.7433 623.45 20.0723 589.579L2.81695 585.957L2.81695 665.843L14.5336 668.399L14.5336 600.017C58.4176 634.102 89.0938 657.322 155.346 671.382L162.589 672.873L162.589 659.026L153.216 657.109ZM86.3244 523.368C86.3244 505.474 96.1237 495.887 117.64 500.574L121.261 501.213C142.564 505.9 153.003 519.534 153.003 537.215C153.003 556.388 141.712 566.4 119.983 561.5L114.444 560.222L114.444 574.069L119.557 575.134C148.955 580.886 164.719 564.483 164.719 537.641C164.719 515.699 153.003 494.183 123.391 488.005L117.001 486.727C97.6149 482.893 85.0462 490.562 79.7205 504.196C74.3947 490.349 62.6781 479.058 45.2098 475.437L40.9492 474.584C14.3205 469.259 0.686655 485.023 0.686656 508.243C0.686657 529.972 13.0424 548.719 37.7537 553.618L44.1446 554.896L44.1446 541.05L39.0319 539.984C20.0723 535.937 12.1902 523.794 12.1902 508.882C12.1902 493.544 22.2026 485.236 40.7361 488.431L44.9967 489.283C63.9563 493.331 73.7557 505.261 73.7557 520.812L73.7557 531.25L86.3244 533.807L86.3244 523.368ZM18.3681 395.592C30.7238 398.149 35.6234 404.539 35.6234 417.108L35.6234 431.807L46.4879 434.151L46.4879 402.409L162.589 427.121L162.589 413.274L2.81694 379.402L2.81694 392.184L18.3681 395.592ZM113.592 343.442L125.309 345.998L125.309 287.841L162.589 295.723L162.589 281.876L125.309 273.994L125.309 251.413L113.592 248.857L113.592 271.438L2.81693 248.005L2.81694 269.521L113.592 343.442ZM113.592 331.512L11.7642 263.769L113.592 285.285L113.592 331.512ZM52.6658 195.854C23.2677 189.676 12.4032 178.812 12.4032 159.852C12.4032 141.958 24.5459 131.306 48.4052 136.419L50.1094 136.632L50.1094 122.998L47.5531 122.359C19.6462 116.607 0.686639 131.093 0.686641 158.574C0.686642 184.138 13.6814 201.393 52.0267 209.488L109.332 221.418C145.546 229.087 164.719 212.683 164.719 186.907C164.719 162.622 150.02 142.384 116.148 136.206L113.166 135.78C83.981 130.454 64.8084 143.236 64.8084 166.882C64.8084 179.664 70.5602 192.872 85.8983 202.884L52.6658 195.854ZM112.953 208.423C89.3068 203.736 76.525 189.676 76.525 172.634C76.525 153.461 90.3719 144.727 113.166 149.414L116.361 150.053C141.925 154.953 153.003 168.586 153.003 185.629C153.003 203.097 140.008 213.962 116.148 209.062L112.953 208.423ZM114.444 107.915L121.261 109.193C149.594 114.945 164.719 96.4112 164.719 70.2086C164.719 45.9232 153.002 24.4073 121.687 18.0164L114.231 16.5252C95.6976 12.6907 82.9159 20.5728 77.1641 35.0588C72.0514 21.4249 60.7609 10.1344 44.1446 6.51286L37.7537 5.23469C14.3205 0.335015 0.686634 16.9513 0.686635 39.5324C0.686636 61.6874 13.8945 80.647 37.7537 85.7597L44.1446 87.0379C58.8436 90.2333 69.7081 84.2685 75.4599 72.7649C80.1465 90.2333 92.9283 103.654 114.444 107.915ZM38.8189 72.1258C20.7114 68.0783 12.4032 55.5096 12.4032 41.2366C12.4032 25.4724 20.9244 15.2471 39.2449 19.2946L43.2925 20.1467C61.613 24.1943 70.7732 35.9109 70.7732 51.462C70.7732 68.0783 61.4 77.0255 43.2925 72.978L38.8189 72.1258ZM115.083 94.0678C92.7152 89.5942 82.7029 75.1082 82.7029 56.3617C82.7029 36.1239 93.1413 25.6855 115.083 30.1591L120.196 31.2242C142.138 35.9109 153.002 50.3969 153.002 69.3565C153.002 89.1682 142.138 99.8196 120.196 95.346L115.083 94.0678Z" fill="#0014C8"/>
</svg>
