<svg width="405" height="1172" viewBox="0 0 405 1172" fill="none" xmlns="http://www.w3.org/2000/svg">
<path d="M32.5465 1096.82C69.7733 1096.82 84.4544 1112.03 84.4544 1149.25L84.4544 1171.8L128.497 1171.8L128.497 1096.82L399.047 1096.82L399.047 1044.39L5.80608 1044.39L5.80608 1096.82L32.5465 1096.82ZM275.832 952.212L298.902 952.212C367.588 952.212 404.291 901.877 404.291 839.483C404.291 777.088 367.588 726.754 298.902 726.754L275.832 726.754C233.362 726.754 204 749.824 189.319 783.905C175.162 756.64 149.47 738.289 112.768 738.289L93.8921 738.289C33.0708 738.289 0.562859 783.38 0.562862 839.483C0.562864 895.585 33.0708 940.677 93.8921 940.677L112.768 940.677C149.47 940.677 175.162 922.326 189.319 895.061C204 929.142 233.362 952.212 275.832 952.212ZM98.611 888.245C63.4815 888.245 48.8005 867.796 48.8005 839.483C48.8005 810.645 63.4815 790.721 98.611 790.721L112.243 790.721C149.995 790.721 166.249 809.596 166.249 839.483C166.249 868.845 149.995 888.245 112.243 888.245L98.611 888.245ZM276.356 899.78C232.313 899.78 214.486 875.661 214.486 839.483C214.486 802.78 232.313 779.186 276.356 779.186L294.183 779.186C337.177 779.186 356.053 802.78 356.053 839.483C356.053 875.661 337.177 899.78 294.183 899.78L276.356 899.78ZM54.0437 642.965L54.0437 497.203L5.80606 497.203L5.80607 693.299L218.156 693.299L218.156 642.965C196.659 639.294 177.784 624.089 177.784 592.63C177.784 561.17 197.183 540.198 249.091 540.198L287.891 540.197C335.08 540.197 356.053 561.695 356.053 592.63C356.053 625.662 335.604 646.11 285.794 646.11L279.502 646.11L279.502 698.543L294.183 698.543C366.015 698.543 404.291 651.878 404.291 592.63C404.291 534.43 364.966 487.765 287.891 487.765L245.945 487.765C170.967 487.765 131.643 519.225 131.643 578.997C131.643 607.835 144.751 629.857 165.2 642.965L54.0437 642.965ZM278.453 464.798L326.691 464.798L326.691 332.669L399.047 332.669L399.047 280.236L326.691 280.236L326.691 229.901L278.453 229.901L278.453 280.236L5.80605 280.236L5.80605 359.409L278.453 464.798ZM278.453 421.279L46.7031 332.669L278.453 332.669L278.453 421.279ZM372.307 87.3884C228.643 87.3884 169.394 51.2102 71.3463 0.351026L5.80604 0.351029L5.80605 200.642L54.0436 200.642L54.0436 43.3454C149.995 94.7289 227.07 139.821 381.22 139.821L399.047 139.821L399.047 87.3884L372.307 87.3884Z" fill="#0014C8"/>
</svg>
