<svg width="1643" height="215" viewBox="0 0 1643 215" fill="none" xmlns="http://www.w3.org/2000/svg">
<path d="M30.0058 29.201H107.237V3.64249H3.33604V116.156H30.0058C31.9505 104.765 40.007 94.7642 56.6756 94.7642C73.3442 94.7642 84.4566 105.043 84.4566 132.546V153.104C84.4566 178.107 73.0664 189.22 56.6756 189.22C39.1735 189.22 28.3389 178.385 28.3389 151.993V148.659H0.55794V156.438C0.55794 194.498 25.283 214.778 56.6756 214.778C87.5125 214.778 112.238 193.942 112.238 153.104V130.879C112.238 91.1526 95.569 70.3169 63.8986 70.3169C48.6191 70.3169 36.9511 77.2621 30.0058 88.0967V29.201ZM262.201 58.9267C262.201 20.5889 238.309 0.864388 208.861 0.864388C178.858 0.864388 154.966 20.3111 154.966 59.2045V77.54H182.747V61.427C182.747 35.3128 193.304 26.4229 208.861 26.4229C223.585 26.4229 234.42 35.8685 234.42 58.9267C234.42 109.766 153.299 131.991 153.299 198.109V212H264.979V186.441H183.303C190.526 141.158 262.201 116.433 262.201 58.9267ZM368.825 197.832C368.825 121.712 387.994 90.3192 414.942 38.3688V3.64249H308.819V29.201H392.162C364.936 80.0402 341.044 120.878 341.044 202.554V212H368.825V197.832ZM454.892 146.715V158.938C454.892 195.331 481.562 214.778 514.621 214.778C547.681 214.778 574.351 195.331 574.351 158.938V146.715C574.351 124.212 562.127 108.655 544.069 100.876C558.515 93.3751 568.239 79.7624 568.239 60.3157V50.3146C568.239 18.0886 544.347 0.864388 514.621 0.864388C484.896 0.864388 461.004 18.0886 461.004 50.3146V60.3157C461.004 79.7624 470.727 93.3751 485.174 100.876C467.116 108.655 454.892 124.212 454.892 146.715ZM488.785 52.8149C488.785 34.2016 499.62 26.4229 514.621 26.4229C529.901 26.4229 540.458 34.2016 540.458 52.8149V60.0379C540.458 80.0402 530.457 88.6524 514.621 88.6524C499.064 88.6524 488.785 80.0402 488.785 60.0379V52.8149ZM482.673 146.992C482.673 123.656 495.453 114.211 514.621 114.211C534.068 114.211 546.57 123.656 546.57 146.992V156.438C546.57 179.218 534.068 189.22 514.621 189.22C495.453 189.22 482.673 179.218 482.673 156.438V146.992ZM661.529 17.8108C661.529 37.5353 653.472 45.314 633.748 45.314H621.802V68.65H661.529V212H689.31V3.64249H661.529V17.8108ZM789.267 69.2057C789.267 38.6466 801.491 26.4229 820.104 26.4229C837.884 26.4229 848.718 36.9797 848.718 62.5382V65.0385H876.499V60.3157C876.499 21.4223 852.052 0.864388 820.104 0.864388C786.767 0.864388 761.486 23.6448 761.486 66.9832V148.659C761.486 191.998 786.767 214.778 820.104 214.778C853.441 214.778 878.722 192.831 878.722 151.437V145.881C878.722 103.654 855.941 82.5405 827.327 82.5405C811.77 82.5405 798.157 88.6524 789.267 104.21V69.2057ZM789.267 146.159C789.267 118.934 801.213 108.099 820.104 108.099C839.551 108.099 850.941 118.934 850.941 146.159V151.16C850.941 177.829 838.995 189.22 820.104 189.22C801.213 189.22 789.267 178.107 789.267 151.16V146.159ZM1025.91 58.9267C1025.91 20.5889 1002.02 0.864388 972.567 0.864388C942.564 0.864388 918.672 20.3111 918.672 59.2045V77.54H946.453V61.427C946.453 35.3128 957.01 26.4229 972.567 26.4229C987.291 26.4229 998.126 35.8685 998.126 58.9267C998.126 109.766 917.005 131.991 917.005 198.109V212H1028.69V186.441H947.009C954.232 141.158 1025.91 116.433 1025.91 58.9267ZM1119.75 17.8108C1119.75 37.5353 1111.7 45.314 1091.97 45.314H1080.03V68.65H1119.75V212H1147.53V3.64249H1119.75V17.8108ZM1285.27 197.832C1285.27 121.712 1304.44 90.3192 1331.39 38.3688V3.64249H1225.27V29.201H1308.61C1281.38 80.0402 1257.49 120.878 1257.49 202.554V212H1285.27V197.832ZM1371.34 146.715V158.938C1371.34 195.331 1398.01 214.778 1431.07 214.778C1464.13 214.778 1490.8 195.331 1490.8 158.938V146.715C1490.8 124.212 1478.57 108.655 1460.52 100.876C1474.96 93.3751 1484.69 79.7624 1484.69 60.3157V50.3146C1484.69 18.0886 1460.79 0.864388 1431.07 0.864388C1401.34 0.864388 1377.45 18.0886 1377.45 50.3146V60.3157C1377.45 79.7624 1387.17 93.3751 1401.62 100.876C1383.56 108.655 1371.34 124.212 1371.34 146.715ZM1405.23 52.8149C1405.23 34.2016 1416.07 26.4229 1431.07 26.4229C1446.35 26.4229 1456.91 34.2016 1456.91 52.8149V60.0379C1456.91 80.0402 1446.9 88.6524 1431.07 88.6524C1415.51 88.6524 1405.23 80.0402 1405.23 60.0379V52.8149ZM1399.12 146.992C1399.12 123.656 1411.9 114.211 1431.07 114.211C1450.52 114.211 1463.02 123.656 1463.02 146.992V156.438C1463.02 179.218 1450.52 189.22 1431.07 189.22C1411.9 189.22 1399.12 179.218 1399.12 156.438V146.992ZM1583.81 214.778C1620.48 214.778 1642.43 192.275 1642.43 146.437V69.2057C1642.43 23.6448 1620.48 0.864388 1583.81 0.864388C1547.42 0.864388 1525.19 23.6448 1525.19 69.2057V146.437C1525.19 192.275 1547.42 214.778 1583.81 214.778ZM1583.81 189.22C1564.36 189.22 1552.97 177.829 1552.97 146.437V69.2057C1552.97 38.0909 1564.64 26.4229 1583.81 26.4229C1602.98 26.4229 1614.65 38.0909 1614.65 69.2057V146.437C1614.65 177.829 1602.98 189.22 1583.81 189.22Z" fill="#0014C8"/>
</svg>
