<svg width="165" height="1050" viewBox="0 0 165 1050" fill="none" xmlns="http://www.w3.org/2000/svg">
<path d="M85.7356 992.239C85.7356 974.345 95.5349 964.758 117.051 969.445L120.672 970.084C141.975 974.771 152.414 988.405 152.414 1006.09C152.414 1025.26 141.123 1035.27 119.394 1030.37L113.855 1029.09L113.855 1042.94L118.968 1044.01C148.366 1049.76 164.13 1033.35 164.13 1006.51C164.13 984.57 152.414 963.054 122.803 956.876L116.412 955.598C97.0261 951.764 84.4574 959.433 79.1316 973.067C73.8059 959.22 62.0893 947.929 44.6209 944.308L40.3603 943.455C13.7317 938.13 0.0978236 953.894 0.0978246 977.114C0.0978255 998.843 12.4535 1017.59 37.1649 1022.49L43.5558 1023.77L43.5558 1009.92L38.4431 1008.86C19.4835 1004.81 11.6014 992.665 11.6014 977.753C11.6014 962.415 21.6138 954.107 40.1473 957.302L44.4079 958.154C63.3675 962.202 73.1668 974.132 73.1668 989.683L73.1668 1000.12L85.7356 1002.68L85.7356 992.239ZM13.9447 887.044L13.9447 823.775L2.22811 821.431L2.22811 897.909L88.5049 916.229L88.5049 902.808C74.658 899.4 64.6457 888.323 64.6457 872.558C64.6457 855.516 74.0189 846.569 99.3694 851.895L118.542 855.942C142.827 861.055 152.414 872.984 152.414 888.323C152.414 907.921 141.549 915.377 117.477 910.478L114.281 909.838L114.281 923.685L119.394 924.75C149.431 930.928 164.13 915.59 164.13 888.749C164.13 867.446 151.775 849.338 118.542 842.095L98.0912 837.622C69.7584 831.444 53.3551 841.882 53.3551 867.233C53.3551 880.227 59.746 891.518 69.5453 898.761L13.9447 887.044ZM32.6913 708.781C10.9623 708.781 0.0978135 723.053 0.0978144 744.356C0.0978154 768.003 13.5187 785.258 42.9167 791.223L51.2248 793.14L51.2248 779.719L43.7688 778.228C20.7616 773.541 11.8144 760.973 11.8144 744.569C11.8144 731.362 18.6314 721.775 33.5434 721.775C74.0189 721.775 100.861 804.218 155.183 816.147L162 817.638L162 733.279L150.283 730.936L150.283 800.383C103.843 786.323 79.1316 708.781 32.6913 708.781ZM152.627 657.482C89.5701 644.061 63.1544 623.824 19.4835 589.952L2.2281 586.33L2.2281 666.216L13.9447 668.773L13.9447 600.39C57.8287 634.475 88.5049 657.695 154.757 671.755L162 673.246L162 659.399L152.627 657.482ZM85.7355 523.741C85.7355 505.847 95.5349 496.261 117.051 500.947L120.672 501.586C141.975 506.273 152.414 519.907 152.414 537.588C152.414 556.761 141.123 566.773 119.394 561.874L113.855 560.595L113.855 574.442L118.968 575.508C148.366 581.259 164.13 564.856 164.13 538.014C164.13 516.072 152.414 494.556 122.803 488.379L116.412 487.1C97.0261 483.266 84.4574 490.935 79.1316 504.569C73.8059 490.722 62.0893 479.431 44.6209 475.81L40.3603 474.958C13.7317 469.632 0.0978031 485.396 0.0978041 508.616C0.0978051 530.345 12.4535 549.092 37.1649 553.992L43.5558 555.27L43.5558 541.423L38.4431 540.358C19.4835 536.31 11.6014 524.167 11.6014 509.255C11.6014 493.917 21.6138 485.609 40.1473 488.805L44.4079 489.657C63.3675 493.704 73.1668 505.634 73.1668 521.185L73.1668 531.623L85.7355 534.18L85.7355 523.741ZM17.7792 395.966C30.1349 398.522 35.0346 404.913 35.0346 417.481L35.0346 432.18L45.8991 434.524L45.8991 402.782L162 427.494L162 413.647L2.22809 379.775L2.22809 392.557L17.7792 395.966ZM113.003 343.815L124.72 346.371L124.72 288.214L162 296.096L162 282.25L124.72 274.367L124.72 251.786L113.003 249.23L113.003 271.811L2.22808 248.378L2.22808 269.894L113.003 343.815ZM113.003 331.885L11.1753 264.142L113.003 285.658L113.003 331.885ZM52.0769 196.227C22.6789 190.05 11.8144 179.185 11.8144 160.225C11.8144 142.331 23.9571 131.68 47.8163 136.792L49.5206 137.005L49.5206 123.371L46.9642 122.732C19.0574 116.981 0.0977876 131.467 0.0977888 158.947C0.0977899 184.511 13.0926 201.766 51.4378 209.861L108.743 221.791C144.958 229.46 164.13 213.057 164.13 187.28C164.13 162.995 149.431 142.757 115.56 136.579L112.577 136.153C83.3922 130.827 64.2196 143.609 64.2196 167.255C64.2196 180.037 69.9714 193.245 85.3095 203.257L52.0769 196.227ZM112.364 208.796C88.7179 204.11 75.9362 190.05 75.9362 173.007C75.9362 153.835 89.7831 145.1 112.577 149.787L115.773 150.426C141.336 155.326 152.414 168.96 152.414 186.002C152.414 203.47 139.419 214.335 115.56 209.435L112.364 208.796ZM113.855 108.288L120.672 109.566C149.005 115.318 164.13 96.7844 164.13 70.5818C164.13 46.2965 152.414 24.7805 121.098 18.3897L113.642 16.8985C95.1088 13.0639 82.327 20.946 76.5753 35.432C71.4626 21.7981 60.172 10.5076 43.5557 6.88609L37.1649 5.60792C13.7317 0.708245 0.0977826 17.3245 0.0977836 39.9056C0.0977846 62.0606 13.3056 81.0202 37.1649 86.1329L43.5557 87.4111C58.2548 90.6065 69.1192 84.6417 74.871 73.1382C79.5577 90.6065 92.3394 104.027 113.855 108.288ZM38.23 72.4991C20.1225 68.4515 11.8144 55.8828 11.8144 41.6098C11.8144 25.8457 20.3356 15.6203 38.6561 19.6678L42.7036 20.52C61.0241 24.5675 70.1844 36.2841 70.1844 51.8352C70.1844 68.4515 60.8111 77.3987 42.7036 73.3512L38.23 72.4991ZM114.494 94.4411C92.1264 89.9675 82.114 75.4815 82.114 56.7349C82.114 36.4971 92.5524 26.0587 114.494 30.5323L119.607 31.5975C141.549 36.2841 152.414 50.7701 152.414 69.7297C152.414 89.5414 141.549 100.193 119.607 95.7192L114.494 94.4411Z" fill="#0014C8"/>
</svg>
