<svg width="1179" height="425" viewBox="0 0 1179 425" fill="none" xmlns="http://www.w3.org/2000/svg">
<path d="M0.0587232 301.091V312.11C0.0587232 385.39 52.9527 424.51 118.519 424.51C184.086 424.51 236.98 385.39 236.98 312.11V301.091C236.98 241.585 202.268 204.669 153.782 192.548C192.901 182.079 220.45 151.775 220.45 104.942V93.9225C220.45 32.7639 174.719 0.256161 118.519 0.256161C62.3193 0.256161 16.5881 32.7639 16.5881 93.9225V104.942C16.5881 151.224 44.137 181.528 83.2565 192.548C34.7704 204.669 0.0587232 241.585 0.0587232 301.091ZM27.6077 96.1265C27.6077 38.8247 68.9311 10.1738 118.519 10.1738C168.658 10.1738 209.431 38.8247 209.431 96.1265V101.636C209.431 155.632 174.168 187.589 118.519 187.589C63.9723 187.589 27.6077 155.632 27.6077 101.636V96.1265ZM11.0783 303.845C11.0783 233.32 54.0546 198.609 118.519 198.609C184.086 198.609 225.96 233.32 225.96 303.845V309.355C225.96 376.575 184.086 414.592 118.519 414.592C54.0546 414.592 11.0783 376.575 11.0783 309.355V303.845ZM356.985 60.8638C356.985 80.6991 348.721 88.4128 328.334 88.4128H271.584V98.3304H356.985V419H368.005V5.76594H356.985V60.8638ZM597.655 209.077C656.61 209.077 694.077 242.136 694.077 309.355V314.865C694.077 378.779 656.059 414.592 596.553 414.592C535.946 414.592 495.724 376.575 495.724 309.355V301.091H484.705V312.11C484.705 385.39 534.844 424.51 596.553 424.51C656.61 424.51 705.096 387.043 705.096 317.62V306.6C705.096 249.299 675.343 214.036 629.061 203.567C666.528 192.548 694.077 160.591 694.077 110.452V99.4323C694.077 34.4169 649.998 0.256161 596.553 0.256161C540.905 0.256161 495.724 32.7639 495.724 93.9225V104.942H506.744V96.1265C506.744 38.8247 547.516 10.1738 596.553 10.1738C643.938 10.1738 683.057 40.4776 683.057 101.636V107.146C683.057 164.999 649.998 199.159 597.655 199.159H575.616V209.077H597.655ZM816.286 399.716C816.286 221.75 853.753 144.062 929.788 18.9895V5.76594H728.13V15.6836H919.319C842.733 144.062 805.267 219.546 805.267 400.267V419H816.286V399.716ZM1071.28 209.077C1130.24 209.077 1167.7 242.136 1167.7 309.355V314.865C1167.7 378.779 1129.69 414.592 1070.18 414.592C1009.57 414.592 969.351 376.575 969.351 309.355V301.091H958.331V312.11C958.331 385.39 1008.47 424.51 1070.18 424.51C1130.24 424.51 1178.72 387.043 1178.72 317.62V306.6C1178.72 249.299 1148.97 214.036 1102.69 203.567C1140.15 192.548 1167.7 160.591 1167.7 110.452V99.4323C1167.7 34.4169 1123.62 0.256161 1070.18 0.256161C1014.53 0.256161 969.351 32.7639 969.351 93.9225V104.942H980.37V96.1265C980.37 38.8247 1021.14 10.1738 1070.18 10.1738C1117.56 10.1738 1156.68 40.4776 1156.68 101.636V107.146C1156.68 164.999 1123.62 199.159 1071.28 199.159H1049.24V209.077H1071.28Z" fill="#0014C8"/>
</svg>
