<svg width="1172" height="685" viewBox="0 0 1172 685" fill="none" xmlns="http://www.w3.org/2000/svg">
<path d="M274.38 388.505L274.38 46.4186L0.71048 46.4186L0.710507 669.777L646.875 669.777L646.875 388.505C627.11 382.424 616.467 371.781 616.467 341.373C616.467 310.966 637.752 289.68 694.007 289.68L830.841 289.68C877.973 289.68 897.738 310.966 897.738 341.373C897.738 374.822 877.973 396.107 821.719 396.107L760.904 396.107L760.904 684.981L836.923 684.981C1055.86 684.981 1171.41 532.942 1171.41 341.373C1171.41 152.846 1055.86 0.807005 830.841 0.807015L684.884 0.807021C476.591 0.80703 365.603 101.152 365.603 292.721C365.603 329.21 374.725 361.138 392.97 388.505L274.38 388.505Z" fill="#0014C8"/>
</svg>
