<svg width="2379" height="105" viewBox="0 0 2379 105" fill="none" xmlns="http://www.w3.org/2000/svg">
<path d="M9.744 66.08H0.144V68.384C0.144 84.8 8.112 92.96 21.36 92.96C34.608 92.96 42.576 84.8 42.576 68.384V43.616C42.576 27.2 34.608 19.04 21.36 19.04C8.112 19.04 0.144 27.2 0.144 43.616V44.96H9.744V43.616C9.744 32.096 14.064 27.872 21.36 27.872C28.56 27.872 32.976 32.096 32.976 43.616V50.528H13.776V59.36H32.976V68.384C32.976 79.904 28.656 84.128 21.36 84.128C14.16 84.128 9.744 79.904 9.744 68.384V66.08ZM65.454 20H55.854V92H65.454V56.576L86.67 92H98.19L75.438 54.464L97.038 20H86.478L65.454 55.04V20ZM123.454 92.96C136.702 92.96 144.67 84.896 144.67 68.384V43.616C144.67 27.2 136.702 19.04 123.454 19.04C110.206 19.04 102.238 27.2 102.238 43.616V68.384C102.238 84.896 110.206 92.96 123.454 92.96ZM123.454 84.128C116.158 84.128 111.838 80 111.838 68.384V43.616C111.838 32.096 116.254 27.872 123.454 27.872C130.75 27.872 135.07 32.096 135.07 43.616V68.384C135.07 80 130.654 84.128 123.454 84.128ZM198.67 92V20H161.038C161.038 52.448 160.654 71.168 159.31 76.928C158.254 80.768 156.814 83.168 153.07 83.168H152.494V92H153.934C162.862 92 166.606 88.352 168.046 77.504C169.39 67.808 169.774 52.928 169.87 28.832H189.07V92H198.67ZM233.141 92.96C246.389 92.96 254.357 84.896 254.357 68.384V43.616C254.357 27.2 246.389 19.04 233.141 19.04C219.893 19.04 211.925 27.2 211.925 43.616V68.384C211.925 84.896 219.893 92.96 233.141 92.96ZM233.141 84.128C225.845 84.128 221.525 80 221.525 68.384V43.616C221.525 32.096 225.941 27.872 233.141 27.872C240.437 27.872 244.757 32.096 244.757 43.616V68.384C244.757 80 240.341 84.128 233.141 84.128ZM277.235 92V28.832H299.507V20H267.635V92H277.235ZM337.868 20L318.092 82.88V20H309.26V92H323.276L343.052 29.12V92H351.884V20H337.868ZM361.273 92H372.409L395.065 58.304V92H404.665V20H383.545C371.929 20 363.481 26.624 363.481 39.008V41.888C363.481 54.272 371.833 60.32 382.873 60.896L361.273 92ZM384.505 53.024C377.497 53.024 373.081 49.568 373.081 40.928V39.968C373.081 31.904 377.497 28.832 384.505 28.832H395.065V53.024H384.505ZM472.851 64.544V68.384C472.851 79.904 468.435 84.128 461.235 84.128C453.939 84.128 449.619 79.904 449.619 68.384V43.616C449.619 32.096 454.035 27.872 461.235 27.872C468.531 27.872 472.851 32.096 472.851 43.616V46.496H482.451V43.616C482.451 27.2 474.483 19.04 461.235 19.04C447.987 19.04 440.019 27.2 440.019 43.616V68.384C440.019 84.8 447.987 92.96 461.235 92.96C474.483 92.96 482.451 84.8 482.451 68.384V64.544H472.851ZM515.985 92.96C529.233 92.96 537.201 84.896 537.201 68.384V43.616C537.201 27.2 529.233 19.04 515.985 19.04C502.737 19.04 494.769 27.2 494.769 43.616V68.384C494.769 84.896 502.737 92.96 515.985 92.96ZM515.985 84.128C508.689 84.128 504.369 80 504.369 68.384V43.616C504.369 32.096 508.785 27.872 515.985 27.872C523.281 27.872 527.601 32.096 527.601 43.616V68.384C527.601 80 523.185 84.128 515.985 84.128ZM570.735 92.96C583.983 92.96 591.951 84.896 591.951 68.384V43.616C591.951 27.2 583.983 19.04 570.735 19.04C557.487 19.04 549.519 27.2 549.519 43.616V68.384C549.519 84.896 557.487 92.96 570.735 92.96ZM570.735 84.128C563.439 84.128 559.119 80 559.119 68.384V43.616C559.119 32.096 563.535 27.872 570.735 27.872C578.031 27.872 582.351 32.096 582.351 43.616V68.384C582.351 80 577.935 84.128 570.735 84.128ZM605.229 92H624.813C636.621 92 644.973 86.336 644.973 72.224V68.576C644.973 54.848 636.621 48.608 624.813 48.608H614.829V28.832H640.269V20H605.229V92ZM623.565 57.44C631.917 57.44 635.373 61.184 635.373 69.44V71.072C635.373 79.328 631.917 83.168 623.757 83.168H614.829V57.44H623.565ZM665.735 20H656.135V92H723.527V104.96H732.359V83.168H725.639V20H716.039V83.168H695.687V20H686.087V83.168H665.735V20ZM774.36 83.168H751.704V59.36H772.44V50.528H751.704V28.832H774.36V20H742.104V92H774.36V83.168ZM817.57 64.544V68.384C817.57 79.904 813.154 84.128 805.954 84.128C798.658 84.128 794.338 79.904 794.338 68.384V43.616C794.338 32.096 798.754 27.872 805.954 27.872C813.25 27.872 817.57 32.096 817.57 43.616V46.496H827.17V43.616C827.17 27.2 819.202 19.04 805.954 19.04C792.706 19.04 784.738 27.2 784.738 43.616V68.384C784.738 84.8 792.706 92.96 805.954 92.96C819.202 92.96 827.17 84.8 827.17 68.384V64.544H817.57ZM858.507 92V28.832H873.579V20H833.835V28.832H848.907V92H858.507ZM881.604 92H903.204C915.012 92 923.076 84.896 923.076 71.84V69.92C923.076 61.28 918.66 55.712 911.94 53.12C917.604 50.624 921.156 46.016 921.156 38.624V37.664C921.156 26.144 913.092 20 901.284 20H881.604V92ZM900.324 28.832C907.524 28.832 911.556 31.712 911.556 38.432V39.392C911.556 46.88 907.332 49.856 900.516 49.856H891.204V28.832H900.324ZM902.244 58.592C909.252 58.592 913.476 61.76 913.476 70.016V70.976C913.476 79.52 909.444 83.168 902.244 83.168H891.204V58.592H902.244ZM954.641 92.96C967.889 92.96 975.857 84.896 975.857 68.384V43.616C975.857 27.2 967.889 19.04 954.641 19.04C941.393 19.04 933.425 27.2 933.425 43.616V68.384C933.425 84.896 941.393 92.96 954.641 92.96ZM954.641 84.128C947.345 84.128 943.025 80 943.025 68.384V43.616C943.025 32.096 947.441 27.872 954.641 27.872C961.937 27.872 966.257 32.096 966.257 43.616V68.384C966.257 80 961.841 84.128 954.641 84.128ZM1020.86 92V28.832H1043.52V92H1053.12V20H1011.26V92H1020.86ZM1090.37 73.664L1105.83 20H1096.13L1083.94 65.888L1070.6 20H1060.71L1079.52 79.424C1077.6 83.072 1075.3 84.128 1071.94 84.128C1070.12 84.128 1068.68 83.936 1066.56 83.36V91.904C1068.39 92.48 1070.98 92.96 1073.67 92.96C1083.17 92.96 1086.92 85.952 1090.37 73.664ZM1132.54 92V28.832H1147.61V20H1107.87V28.832H1122.94V92H1132.54ZM1187.89 83.168H1165.24V59.36H1185.97V50.528H1165.24V28.832H1187.89V20H1155.64V92H1187.89V83.168ZM1208.83 20H1199.23V92H1268.73V20H1259.13V83.168H1238.78V20H1229.18V83.168H1208.83V20ZM1315.2 83.168H1292.55V59.36H1313.28V50.528H1292.55V28.832H1315.2V20H1282.95V92H1315.2V83.168ZM1358.41 64.544V68.384C1358.41 79.904 1354 84.128 1346.8 84.128C1339.5 84.128 1335.18 79.904 1335.18 68.384V43.616C1335.18 32.096 1339.6 27.872 1346.8 27.872C1354.09 27.872 1358.41 32.096 1358.41 43.616V46.496H1368.01V43.616C1368.01 27.2 1360.05 19.04 1346.8 19.04C1333.55 19.04 1325.58 27.2 1325.58 43.616V68.384C1325.58 84.8 1333.55 92.96 1346.8 92.96C1360.05 92.96 1368.01 84.8 1368.01 68.384V64.544H1358.41ZM1399.35 92V28.832H1414.42V20H1374.68V28.832H1389.75V92H1399.35ZM1422.45 92H1444.05C1455.86 92 1463.92 84.896 1463.92 71.84V69.92C1463.92 61.28 1459.5 55.712 1452.78 53.12C1458.45 50.624 1462 46.016 1462 38.624V37.664C1462 26.144 1453.94 20 1442.13 20H1422.45V92ZM1441.17 28.832C1448.37 28.832 1452.4 31.712 1452.4 38.432V39.392C1452.4 46.88 1448.18 49.856 1441.36 49.856H1432.05V28.832H1441.17ZM1443.09 58.592C1450.1 58.592 1454.32 61.76 1454.32 70.016V70.976C1454.32 79.52 1450.29 83.168 1443.09 83.168H1432.05V58.592H1443.09ZM1503.84 20L1484.06 82.88V20H1475.23V92H1489.25L1509.02 29.12V92H1517.85V20H1503.84ZM1527.24 92H1538.38L1561.03 58.304V92H1570.63V20H1549.51C1537.9 20 1529.45 26.624 1529.45 39.008V41.888C1529.45 54.272 1537.8 60.32 1548.84 60.896L1527.24 92ZM1550.47 53.024C1543.47 53.024 1539.05 49.568 1539.05 40.928V39.968C1539.05 31.904 1543.47 28.832 1550.47 28.832H1561.03V53.024H1550.47ZM1616.55 92V59.36H1639.78V92H1649.38V20H1639.78V50.528H1616.55V20H1606.95V92H1616.55ZM1673.75 20L1657.62 92H1667.32L1671.06 74.336H1690.84L1694.58 92H1704.28L1688.15 20H1673.75ZM1672.98 65.504L1680.95 27.68L1688.92 65.504H1672.98ZM1709.09 104.96H1717.93V92H1754.98V104.96H1763.81V83.168H1757.09V20H1719.27C1719.56 64.928 1718.12 75.584 1714.18 83.168H1709.09V104.96ZM1725.99 74.144C1727.43 66.368 1728.01 55.616 1728.1 28.832H1747.49V83.168H1723.3C1724.65 80.48 1725.32 77.696 1725.99 74.144ZM1780.55 11.648C1783.72 11.648 1786.12 9.152 1786.12 6.08C1786.12 3.008 1783.72 0.511993 1780.55 0.511993C1777.48 0.511993 1774.98 3.008 1774.98 6.08C1774.98 9.152 1777.48 11.648 1780.55 11.648ZM1799.75 11.648C1802.92 11.648 1805.32 9.152 1805.32 6.08C1805.32 3.008 1802.92 0.511993 1799.75 0.511993C1796.68 0.511993 1794.18 3.008 1794.18 6.08C1794.18 9.152 1796.68 11.648 1799.75 11.648ZM1805.8 83.168H1783.14V59.36H1803.88V50.528H1783.14V28.832H1805.8V20H1773.54V92H1805.8V83.168ZM1850.54 20H1840.94V54.752L1821.84 20H1811.09L1831.25 54.752L1810.42 92H1821.74L1840.94 56.864V92H1850.54V56.672L1869.84 92H1880.69L1859.95 54.848L1880.02 20H1869.74L1850.54 54.944V20ZM1897.8 92V59.36H1921.03V92H1930.63V20H1921.03V50.528H1897.8V20H1888.2V92H1897.8ZM1965.08 92.96C1978.33 92.96 1986.29 84.896 1986.29 68.384V43.616C1986.29 27.2 1978.33 19.04 1965.08 19.04C1951.83 19.04 1943.86 27.2 1943.86 43.616V68.384C1943.86 84.896 1951.83 92.96 1965.08 92.96ZM1965.08 84.128C1957.78 84.128 1953.46 80 1953.46 68.384V43.616C1953.46 32.096 1957.88 27.872 1965.08 27.872C1972.37 27.872 1976.69 32.096 1976.69 43.616V68.384C1976.69 80 1972.28 84.128 1965.08 84.128ZM2031.44 64.544V68.384C2031.44 79.904 2027.03 84.128 2019.83 84.128C2012.53 84.128 2008.21 79.904 2008.21 68.384V43.616C2008.21 32.096 2012.63 27.872 2019.83 27.872C2027.12 27.872 2031.44 32.096 2031.44 43.616V46.496H2041.04V43.616C2041.04 27.2 2033.08 19.04 2019.83 19.04C2006.58 19.04 1998.61 27.2 1998.61 43.616V68.384C1998.61 84.8 2006.58 92.96 2019.83 92.96C2033.08 92.96 2041.04 84.8 2041.04 68.384V64.544H2031.44ZM2072.38 92V28.832H2087.45V20H2047.71V28.832H2062.78V92H2072.38ZM2105.08 20H2095.48V92H2114.39C2128.12 92 2135.99 82.88 2135.99 70.496V66.848C2135.99 54.176 2128.12 45.92 2114.39 45.92H2105.08V20ZM2112.95 54.752C2122.65 54.752 2126.39 59.552 2126.39 67.808V69.536C2126.39 78.272 2122.65 83.168 2112.95 83.168H2105.08V54.752H2112.95ZM2202.42 92L2217.02 27.2V92H2226.62V20H2209.91L2197.05 79.328L2183.9 20H2167.48V92H2176.31V26.912L2190.81 92H2202.42ZM2261.05 92.96C2274.3 92.96 2282.26 84.896 2282.26 68.384V43.616C2282.26 27.2 2274.3 19.04 2261.05 19.04C2247.8 19.04 2239.83 27.2 2239.83 43.616V68.384C2239.83 84.896 2247.8 92.96 2261.05 92.96ZM2261.05 84.128C2253.75 84.128 2249.43 80 2249.43 68.384V43.616C2249.43 32.096 2253.85 27.872 2261.05 27.872C2268.34 27.872 2272.66 32.096 2272.66 43.616V68.384C2272.66 80 2268.25 84.128 2261.05 84.128ZM2305.14 92V64.544H2316.37C2327.99 64.544 2336.25 57.44 2336.25 44.384V39.2C2336.25 26.624 2327.99 20 2316.37 20H2295.54V92H2305.14ZM2315.41 28.832C2322.33 28.832 2326.65 32 2326.65 40.16V43.424C2326.65 52.16 2322.33 55.712 2315.41 55.712H2305.14V28.832H2315.41ZM2378.7 83.168H2356.05V59.36H2376.78V50.528H2356.05V28.832H2378.7V20H2346.45V92H2378.7V83.168Z" fill="#0014C8"/>
</svg>
